# This file uses centimeters as units for non-parametric coordinates.

mtllib Fence Destroyed.mtl
g default
v 51.191921 40.403263 -2.776047
v 49.503574 40.772274 -2.776047
v 49.573040 40.205105 -2.583382
v 49.573040 40.205105 -4.510235
v 49.503574 40.772274 -4.317570
v 51.191921 40.403263 -4.317570
v -50.476246 27.959620 -2.583382
v -50.545712 28.526793 -2.776047
v -52.095242 27.761469 -2.776047
v -52.095242 27.761469 -4.317570
v -50.545712 28.526793 -4.317570
v -50.476246 27.959620 -4.510235
v -49.920864 23.422243 -2.583382
v -51.539860 23.224091 -2.776047
v -49.851513 22.855246 -2.776047
v -49.851513 22.855246 -4.317570
v -51.539860 23.224091 -4.317570
v -49.920864 23.422243 -4.510235
v 50.128307 35.667728 -2.583382
v 50.197773 35.100731 -2.776047
v 51.747303 35.865883 -2.776047
v 51.747303 35.865883 -4.317570
v 50.197773 35.100731 -4.317570
v 50.128307 35.667728 -4.510235
v 51.854992 15.470924 -2.776047
v 50.223980 16.042330 -2.776047
v 50.223980 15.470924 -2.583382
v 50.223980 15.470924 -4.510235
v 50.223980 16.042330 -4.317570
v 51.854992 15.470924 -4.317570
v -50.571918 15.470924 -2.583382
v -50.571918 16.042330 -2.776047
v -52.202930 15.470924 -2.776047
v -52.202930 15.470924 -4.317570
v -50.571918 16.042330 -4.317570
v -50.571918 15.470924 -4.510235
v -50.571918 10.899687 -2.583382
v -52.202930 10.899687 -2.776047
v -50.571918 10.328457 -2.776047
v -50.571918 10.328457 -4.317570
v -52.202930 10.899687 -4.317570
v -50.571918 10.899687 -4.510235
v 50.223980 10.899687 -2.583382
v 50.223980 10.328457 -2.776047
v 51.854992 10.899687 -2.776047
v 51.854992 10.899687 -4.317570
v 50.223980 10.328457 -4.317570
v 50.223980 10.899687 -4.510235
v -42.395000 -1.273193 3.713333
v -41.597919 -0.476294 3.713337
v -42.395000 -0.476294 4.510231
v -42.395000 -0.476294 -3.459549
v -41.597923 -0.476294 -2.662651
v -42.395004 -1.273193 -2.662651
v -42.395000 48.770496 4.510231
v -41.597919 48.770496 3.713337
v -42.395000 49.567387 3.713333
v -42.395004 49.567387 -2.662651
v -41.597923 48.770496 -2.662651
v -42.395000 48.770496 -3.459549
v -48.771191 48.770496 4.510231
v -48.771191 49.567387 3.713333
v -49.568043 48.770496 3.713337
v -49.568047 48.770496 -2.662651
v -48.771194 49.567387 -2.662651
v -48.771191 48.770496 -3.459549
v -48.771191 -0.476294 4.510231
v -49.568043 -0.476294 3.713337
v -48.771191 -1.273193 3.713333
v -48.771194 -1.273193 -2.662651
v -49.568047 -0.476294 -2.662651
v -48.771191 -0.476294 -3.459549
v 47.529697 -1.273193 3.713337
v 48.326778 -0.476294 3.713337
v 47.529697 -0.476294 4.510235
v 47.529697 -0.476294 -3.459549
v 48.326775 -0.476294 -2.662651
v 47.529694 -1.273193 -2.662651
v 47.529697 48.770496 4.510235
v 48.326778 48.770496 3.713337
v 47.529697 49.567387 3.713337
v 47.529694 49.567387 -2.662651
v 48.326775 48.770496 -2.662651
v 47.529697 48.770496 -3.459549
v 41.153507 48.770496 4.510235
v 41.153507 49.567387 3.713337
v 40.356655 48.770496 3.713337
v 40.356651 48.770496 -2.662651
v 41.153503 49.567387 -2.662651
v 41.153507 48.770496 -3.459549
v 41.153507 -0.476294 4.510235
v 40.356655 -0.476294 3.713337
v 41.153507 -1.273193 3.713337
v 41.153503 -1.273193 -2.662651
v 40.356651 -0.476294 -2.662651
v 41.153507 -0.476294 -3.459549
vt 0.318719 0.006818
vt 0.316950 0.021277
vt 0.276428 0.016317
vt 0.278197 0.001859
vt 0.322014 0.021897
vt 0.207587 0.914804
vt 0.167065 0.909844
vt 0.271363 0.015697
vt 0.212651 0.915424
vt 0.205816 0.929264
vt 0.165294 0.924303
vt 0.162000 0.909225
vt 0.484561 0.909846
vt 0.486330 0.924304
vt 0.445808 0.929264
vt 0.444039 0.914805
vt 0.489625 0.909225
vt 0.438974 0.915426
vt 0.334676 0.021279
vt 0.375198 0.016319
vt 0.380262 0.015699
vt 0.329611 0.021897
vt 0.373427 0.001859
vt 0.332905 0.006820
vt 0.047917 0.001859
vt 0.047917 0.016426
vt 0.007093 0.016426
vt 0.007093 0.001859
vt 0.053020 0.016426
vt 0.047917 0.916620
vt 0.007093 0.916620
vt 0.001992 0.016426
vt 0.053020 0.916620
vt 0.047917 0.931187
vt 0.007093 0.931187
vt 0.001992 0.916620
vt 0.128019 0.916620
vt 0.128019 0.931187
vt 0.087195 0.931187
vt 0.087195 0.916620
vt 0.133122 0.916620
vt 0.082094 0.916620
vt 0.087195 0.016426
vt 0.128019 0.016426
vt 0.133122 0.016426
vt 0.082094 0.016426
vt 0.128019 0.001859
vt 0.087195 0.001859
vt 0.625174 0.008976
vt 0.682119 0.008976
vt 0.682119 0.448793
vt 0.625174 0.448793
vt 0.625174 0.001859
vt 0.682119 0.001859
vt 0.689236 0.448793
vt 0.689236 0.008976
vt 0.625174 0.455910
vt 0.682119 0.455910
vt 0.618055 0.008976
vt 0.618055 0.448793
vt 0.547215 0.008976
vt 0.604160 0.008976
vt 0.604160 0.448793
vt 0.547215 0.448793
vt 0.604160 0.001859
vt 0.547215 0.001859
vt 0.611279 0.008976
vt 0.611279 0.448793
vt 0.604160 0.455910
vt 0.547215 0.455910
vt 0.540099 0.448793
vt 0.540099 0.008976
vt 0.781091 0.008976
vt 0.838036 0.008976
vt 0.838036 0.448793
vt 0.781091 0.448793
vt 0.781091 0.001859
vt 0.838036 0.001859
vt 0.845153 0.448793
vt 0.845153 0.008976
vt 0.781091 0.455910
vt 0.838036 0.455910
vt 0.773973 0.008976
vt 0.773973 0.448793
vt 0.703131 0.008976
vt 0.760076 0.008976
vt 0.760076 0.448793
vt 0.703131 0.448793
vt 0.760076 0.001859
vt 0.703131 0.001859
vt 0.767195 0.008976
vt 0.767195 0.448793
vt 0.760076 0.455910
vt 0.703131 0.455910
vt 0.696014 0.448793
vt 0.696014 0.008976
vt 0.497221 0.016938
vt 0.497221 0.001859
vt 0.510988 0.001859
vt 0.510988 0.016938
vt 0.510988 0.910465
vt 0.497221 0.910465
vt 0.497221 0.924305
vt 0.510988 0.924305
vt 0.518659 0.016936
vt 0.518659 0.001859
vt 0.532426 0.001859
vt 0.532426 0.016936
vt 0.532426 0.910465
vt 0.518659 0.910465
vt 0.518659 0.924303
vt 0.532426 0.924303
vt 0.060655 0.016426
vt 0.060655 0.001859
vt 0.074422 0.001859
vt 0.074422 0.016426
vt 0.074422 0.916621
vt 0.060655 0.916621
vt 0.060655 0.931187
vt 0.074422 0.931187
vt 0.140562 0.016426
vt 0.140562 0.001859
vt 0.154330 0.001859
vt 0.154330 0.016426
vt 0.154330 0.916621
vt 0.140562 0.916621
vt 0.140562 0.931187
vt 0.154330 0.931187
vt 0.751830 0.467019
vt 0.808773 0.467019
vt 0.808773 0.523965
vt 0.751830 0.523965
vt 0.751830 0.459901
vt 0.808773 0.459901
vt 0.751830 0.531081
vt 0.808773 0.531081
vt 0.814908 0.467018
vt 0.871851 0.467018
vt 0.871851 0.523963
vt 0.814908 0.523963
vt 0.814908 0.459901
vt 0.871851 0.459901
vt 0.814908 0.531081
vt 0.871851 0.531081
vt 0.625673 0.467019
vt 0.682616 0.467019
vt 0.682616 0.523965
vt 0.625673 0.523965
vt 0.625673 0.459901
vt 0.682616 0.459901
vt 0.625673 0.531081
vt 0.682616 0.531081
vt 0.688751 0.467018
vt 0.745694 0.467018
vt 0.745694 0.523963
vt 0.688751 0.523963
vt 0.688751 0.459901
vt 0.745694 0.459901
vt 0.688751 0.531081
vt 0.745694 0.531081
vt 0.565965 0.459901
vt 0.579733 0.459901
vt 0.579733 0.500424
vt 0.565965 0.500424
vt 0.546063 0.459901
vt 0.559830 0.459901
vt 0.559830 0.500424
vt 0.546063 0.500424
vt 0.605770 0.459901
vt 0.619537 0.459901
vt 0.619537 0.500726
vt 0.605770 0.500726
vt 0.585868 0.459901
vt 0.599635 0.459901
vt 0.599635 0.500726
vt 0.585868 0.500726
vt 0.851930 0.001859
vt 0.908873 0.001859
vt 0.908873 0.441676
vt 0.851930 0.441676
vt 0.916246 0.001859
vt 0.973189 0.001859
vt 0.973189 0.441676
vt 0.916246 0.441676
vt 0.941065 0.445667
vt 0.998008 0.445667
vt 0.998008 0.885484
vt 0.941065 0.885484
vt 0.877986 0.445667
vt 0.934930 0.445667
vt 0.934930 0.885484
vt 0.877986 0.885484
vn 0.116441 0.014251 0.993095
vn 0.116441 0.014251 0.993095
vn 0.116441 0.014251 0.993095
vn 0.116441 0.014251 0.993095
vn 0.213523 0.976938 0.000000
vn 0.213523 0.976938 0.000000
vn 0.213523 0.976938 0.000000
vn 0.213523 0.976938 0.000000
vn -0.038816 0.317137 0.947585
vn -0.038816 0.317137 0.947585
vn -0.038816 0.317137 0.947585
vn -0.038816 0.317137 0.947585
vn 0.116441 0.014251 -0.993095
vn 0.116441 0.014251 -0.993095
vn 0.116441 0.014251 -0.993095
vn 0.116441 0.014251 -0.993095
vn -0.038816 0.317137 -0.947585
vn -0.038816 0.317137 -0.947585
vn -0.038816 0.317137 -0.947585
vn -0.038816 0.317137 -0.947585
vn -0.116437 -0.014252 0.993096
vn -0.116437 -0.014252 0.993096
vn -0.116437 -0.014252 0.993096
vn -0.116437 -0.014252 0.993096
vn -0.442837 0.896602 0.000000
vn -0.442837 0.896602 0.000000
vn -0.442837 0.896602 0.000000
vn -0.442837 0.896602 0.000000
vn -0.116437 -0.014252 -0.993096
vn -0.116437 -0.014252 -0.993096
vn -0.116437 -0.014252 -0.993096
vn -0.116437 -0.014252 -0.993096
vn 0.038827 -0.317225 0.947555
vn 0.038827 -0.317225 0.947555
vn 0.038827 -0.317225 0.947555
vn 0.038827 -0.317225 0.947555
vn -0.213431 -0.976958 0.000000
vn -0.213431 -0.976958 0.000000
vn -0.213431 -0.976958 0.000000
vn -0.213431 -0.976958 0.000000
vn 0.038827 -0.317225 -0.947555
vn 0.038827 -0.317225 -0.947555
vn 0.038827 -0.317225 -0.947555
vn 0.038827 -0.317225 -0.947555
vn 0.442758 -0.896641 0.000000
vn 0.442758 -0.896641 0.000000
vn 0.442758 -0.896641 0.000000
vn 0.442758 -0.896641 0.000000
vn -0.121488 0.992593 0.000000
vn -0.121488 0.992593 0.000000
vn -0.121488 0.992593 0.000000
vn -0.121488 0.992593 0.000000
vn -0.992592 -0.121496 0.000000
vn -0.992592 -0.121496 0.000000
vn -0.992592 -0.121496 0.000000
vn -0.992592 -0.121496 0.000000
vn 0.121488 -0.992593 0.000000
vn 0.121488 -0.992593 0.000000
vn 0.121488 -0.992593 0.000000
vn 0.121488 -0.992593 0.000000
vn 0.992592 0.121495 0.000000
vn 0.992592 0.121495 0.000000
vn 0.992592 0.121495 0.000000
vn 0.992592 0.121495 0.000000
vn 0.000000 0.000000 -1.000000
vn 0.000000 0.000000 -1.000000
vn 0.000000 0.000000 -1.000000
vn 0.000000 0.000000 -1.000000
vn 0.000000 0.000000 1.000000
vn 0.000000 0.000000 1.000000
vn 0.000000 0.000000 1.000000
vn 0.000000 0.000000 1.000000
vn 0.071841 0.328695 0.941700
vn 0.071841 0.328695 0.941700
vn 0.071841 0.328695 0.941700
vn 0.071841 0.328695 -0.941700
vn 0.071841 0.328695 -0.941700
vn 0.071841 0.328695 -0.941700
vn -0.148985 0.301645 0.941708
vn -0.148985 0.301645 0.941708
vn -0.148985 0.301645 0.941708
vn -0.148984 0.301645 -0.941708
vn -0.148984 0.301645 -0.941708
vn -0.148984 0.301645 -0.941708
vn -0.071824 -0.328768 0.941676
vn -0.071824 -0.328768 0.941676
vn -0.071824 -0.328768 0.941676
vn -0.071824 -0.328768 -0.941676
vn -0.071824 -0.328768 -0.941676
vn -0.071824 -0.328768 -0.941676
vn 0.148991 -0.301725 0.941681
vn 0.148991 -0.301725 0.941681
vn 0.148991 -0.301725 0.941681
vn 0.148991 -0.301725 -0.941681
vn 0.148991 -0.301725 -0.941681
vn 0.148991 -0.301725 -0.941681
vn 0.117311 0.000000 0.993095
vn 0.117311 0.000000 0.993095
vn 0.117311 0.000000 0.993095
vn 0.117311 0.000000 0.993095
vn 0.330634 0.943759 0.000000
vn 0.330634 0.943759 0.000000
vn 0.330634 0.943759 0.000000
vn 0.330634 0.943759 0.000000
vn 0.000000 0.319504 0.947585
vn 0.000000 0.319504 0.947585
vn 0.000000 0.319504 0.947585
vn 0.000000 0.319504 0.947585
vn 0.117311 0.000000 -0.993095
vn 0.117311 0.000000 -0.993095
vn 0.117311 0.000000 -0.993095
vn 0.117311 0.000000 -0.993095
vn 0.000000 0.319504 -0.947585
vn 0.000000 0.319504 -0.947585
vn 0.000000 0.319504 -0.947585
vn 0.000000 0.319504 -0.947585
vn -0.117311 0.000000 0.993095
vn -0.117311 0.000000 0.993095
vn -0.117311 0.000000 0.993095
vn -0.117311 0.000000 0.993095
vn -0.330634 0.943759 0.000000
vn -0.330634 0.943759 0.000000
vn -0.330634 0.943759 0.000000
vn -0.330634 0.943759 0.000000
vn -0.117311 0.000000 -0.993095
vn -0.117311 0.000000 -0.993095
vn -0.117311 0.000000 -0.993095
vn -0.117311 0.000000 -0.993095
vn 0.000000 -0.319592 0.947555
vn 0.000000 -0.319592 0.947555
vn 0.000000 -0.319592 0.947555
vn 0.000000 -0.319592 0.947555
vn -0.330544 -0.943791 0.000000
vn -0.330544 -0.943791 0.000000
vn -0.330544 -0.943791 0.000000
vn -0.330544 -0.943791 0.000000
vn 0.000000 -0.319592 -0.947555
vn 0.000000 -0.319592 -0.947555
vn 0.000000 -0.319592 -0.947555
vn 0.000000 -0.319592 -0.947555
vn 0.330544 -0.943791 0.000000
vn 0.330544 -0.943791 0.000000
vn 0.330544 -0.943791 0.000000
vn 0.330544 -0.943791 0.000000
vn 0.000000 1.000000 0.000000
vn 0.000000 1.000000 0.000000
vn 0.000000 1.000000 0.000000
vn 0.000000 1.000000 0.000000
vn -1.000000 0.000000 0.000000
vn -1.000000 0.000000 0.000000
vn -1.000000 0.000000 0.000000
vn -1.000000 0.000000 0.000000
vn 0.000000 -1.000000 0.000000
vn 0.000000 -1.000000 0.000000
vn 0.000000 -1.000000 0.000000
vn 0.000000 -1.000000 0.000000
vn 1.000000 0.000000 0.000000
vn 1.000000 0.000000 0.000000
vn 1.000000 0.000000 0.000000
vn 1.000000 0.000000 0.000000
vn 0.000000 0.000000 -1.000000
vn 0.000000 0.000000 -1.000000
vn 0.000000 0.000000 -1.000000
vn 0.000000 0.000000 -1.000000
vn 0.000000 0.000000 1.000000
vn 0.000000 0.000000 1.000000
vn 0.000000 0.000000 1.000000
vn 0.000000 0.000000 1.000000
vn 0.111240 0.317522 0.941704
vn 0.111240 0.317522 0.941703
vn 0.111240 0.317522 0.941704
vn 0.111240 0.317522 -0.941704
vn 0.111240 0.317522 -0.941704
vn 0.111240 0.317522 -0.941704
vn -0.111240 0.317522 0.941704
vn -0.111240 0.317522 0.941703
vn -0.111240 0.317522 0.941704
vn -0.111240 0.317522 -0.941704
vn -0.111240 0.317522 -0.941704
vn -0.111240 0.317522 -0.941704
vn -0.111236 -0.317610 0.941674
vn -0.111236 -0.317610 0.941674
vn -0.111236 -0.317610 0.941674
vn -0.111236 -0.317610 -0.941674
vn -0.111236 -0.317610 -0.941674
vn -0.111236 -0.317610 -0.941674
vn 0.111236 -0.317610 0.941674
vn 0.111236 -0.317610 0.941674
vn 0.111236 -0.317610 0.941674
vn 0.111236 -0.317610 -0.941674
vn 0.111236 -0.317610 -0.941674
vn 0.111236 -0.317610 -0.941674
vn 0.000000 -0.707106 0.707107
vn 0.000000 -0.707106 0.707107
vn 0.000000 -0.707106 0.707107
vn 0.000000 -0.707106 0.707107
vn 0.707028 -0.707186 -0.000000
vn 0.707028 -0.707186 -0.000000
vn 0.707028 -0.707186 -0.000000
vn 0.707028 -0.707186 -0.000000
vn 0.707024 0.000000 0.707190
vn 0.707024 0.000000 0.707190
vn 0.707024 0.000000 0.707190
vn 0.707024 0.000000 0.707190
vn 0.000000 -0.707106 -0.707107
vn 0.000000 -0.707106 -0.707107
vn 0.000000 -0.707106 -0.707107
vn 0.000000 -0.707106 -0.707107
vn 0.707027 0.000000 -0.707186
vn 0.707027 0.000000 -0.707186
vn 0.707027 0.000000 -0.707186
vn 0.707027 0.000000 -0.707186
vn 0.000000 0.707111 0.707103
vn 0.000000 0.707111 0.707103
vn 0.000000 0.707111 0.707103
vn 0.000000 0.707111 0.707103
vn 0.707024 0.707190 -0.000000
vn 0.707024 0.707190 -0.000000
vn 0.707024 0.707190 -0.000000
vn 0.707024 0.707190 -0.000000
vn 0.000000 0.707111 -0.707103
vn 0.000000 0.707111 -0.707103
vn 0.000000 0.707111 -0.707103
vn 0.000000 0.707111 -0.707103
vn -0.707125 0.000000 0.707088
vn -0.707125 0.000000 0.707088
vn -0.707125 0.000000 0.707088
vn -0.707125 0.000000 0.707088
vn -0.707124 0.707090 0.000001
vn -0.707124 0.707090 0.000001
vn -0.707124 0.707090 0.000001
vn -0.707124 0.707090 0.000001
vn -0.707125 0.000000 -0.707088
vn -0.707125 0.000000 -0.707088
vn -0.707125 0.000000 -0.707088
vn -0.707125 0.000000 -0.707088
vn -0.707127 -0.707086 0.000000
vn -0.707127 -0.707086 0.000000
vn -0.707127 -0.707086 0.000000
vn -0.707127 -0.707086 0.000000
vn 1.000000 0.000000 -0.000001
vn 1.000000 0.000000 -0.000001
vn 1.000000 0.000000 -0.000001
vn 1.000000 0.000000 -0.000001
vn 0.000000 1.000000 0.000000
vn 0.000000 1.000000 0.000000
vn 0.000000 1.000000 0.000000
vn 0.000000 1.000000 0.000000
vn -1.000000 0.000000 0.000001
vn -1.000000 0.000000 0.000001
vn -1.000000 0.000000 0.000001
vn -1.000000 0.000000 0.000001
vn 0.000000 -1.000000 0.000000
vn 0.000000 -1.000000 0.000000
vn 0.000000 -1.000000 0.000000
vn 0.000000 -1.000000 0.000000
vn 0.000000 0.000000 -1.000000
vn 0.000000 0.000000 -1.000000
vn 0.000000 0.000000 -1.000000
vn 0.000000 0.000000 -1.000000
vn 0.000000 0.000000 1.000000
vn 0.000000 0.000000 1.000000
vn 0.000000 0.000000 1.000000
vn 0.000000 0.000000 1.000000
vn 0.577260 -0.577396 0.577395
vn 0.577260 -0.577395 0.577395
vn 0.577260 -0.577395 0.577395
vn 0.577261 -0.577400 -0.577390
vn 0.577260 -0.577400 -0.577390
vn 0.577260 -0.577400 -0.577390
vn 0.577258 0.577400 0.577393
vn 0.577258 0.577400 0.577393
vn 0.577258 0.577400 0.577393
vn 0.577258 0.577404 -0.577389
vn 0.577258 0.577404 -0.577389
vn 0.577258 0.577404 -0.577389
vn -0.577369 0.577344 0.577337
vn -0.577369 0.577344 0.577337
vn -0.577369 0.577344 0.577337
vn -0.577373 0.577339 -0.577339
vn -0.577373 0.577339 -0.577339
vn -0.577373 0.577339 -0.577339
vn -0.577371 -0.577340 0.577340
vn -0.577371 -0.577340 0.577340
vn -0.577371 -0.577340 0.577340
vn -0.577374 -0.577333 -0.577344
vn -0.577374 -0.577333 -0.577344
vn -0.577374 -0.577333 -0.577344
vn 0.000000 -0.707106 0.707107
vn 0.000000 -0.707106 0.707107
vn 0.000000 -0.707106 0.707107
vn 0.000000 -0.707106 0.707107
vn 0.707028 -0.707186 -0.000000
vn 0.707028 -0.707186 -0.000000
vn 0.707028 -0.707186 -0.000000
vn 0.707028 -0.707186 -0.000000
vn 0.707025 0.000000 0.707188
vn 0.707025 0.000000 0.707188
vn 0.707025 0.000000 0.707188
vn 0.707025 0.000000 0.707188
vn 0.000000 -0.707106 -0.707107
vn 0.000000 -0.707106 -0.707107
vn 0.000000 -0.707106 -0.707107
vn 0.000000 -0.707106 -0.707107
vn 0.707027 0.000000 -0.707186
vn 0.707027 0.000000 -0.707186
vn 0.707027 0.000000 -0.707186
vn 0.707027 0.000000 -0.707186
vn 0.000000 0.707111 0.707103
vn 0.000000 0.707111 0.707103
vn 0.000000 0.707111 0.707103
vn 0.000000 0.707111 0.707103
vn 0.707024 0.707190 -0.000000
vn 0.707024 0.707190 -0.000000
vn 0.707024 0.707190 -0.000000
vn 0.707024 0.707190 -0.000000
vn 0.000000 0.707111 -0.707103
vn 0.000000 0.707111 -0.707103
vn 0.000000 0.707111 -0.707103
vn 0.000000 0.707111 -0.707103
vn -0.707127 0.000000 0.707087
vn -0.707127 0.000000 0.707087
vn -0.707127 0.000000 0.707087
vn -0.707127 0.000000 0.707087
vn -0.707124 0.707090 0.000001
vn -0.707124 0.707090 0.000001
vn -0.707124 0.707090 0.000001
vn -0.707124 0.707090 0.000001
vn -0.707125 0.000000 -0.707088
vn -0.707125 0.000000 -0.707088
vn -0.707125 0.000000 -0.707088
vn -0.707125 0.000000 -0.707088
vn -0.707127 -0.707086 0.000000
vn -0.707127 -0.707086 0.000000
vn -0.707127 -0.707086 0.000000
vn -0.707127 -0.707086 0.000000
vn 1.000000 0.000000 -0.000001
vn 1.000000 0.000000 -0.000001
vn 1.000000 0.000000 -0.000001
vn 1.000000 0.000000 -0.000001
vn 0.000000 1.000000 0.000000
vn 0.000000 1.000000 0.000000
vn 0.000000 1.000000 0.000000
vn 0.000000 1.000000 0.000000
vn -1.000000 0.000000 0.000001
vn -1.000000 0.000000 0.000001
vn -1.000000 0.000000 0.000001
vn -1.000000 0.000000 0.000001
vn 0.000000 -1.000000 0.000000
vn 0.000000 -1.000000 0.000000
vn 0.000000 -1.000000 0.000000
vn 0.000000 -1.000000 0.000000
vn 0.000000 0.000000 -1.000000
vn 0.000000 0.000000 -1.000000
vn 0.000000 0.000000 -1.000000
vn 0.000000 0.000000 -1.000000
vn 0.000000 0.000000 1.000000
vn 0.000000 0.000000 1.000000
vn 0.000000 0.000000 1.000000
vn 0.000000 0.000000 1.000000
vn 0.577262 -0.577394 0.577394
vn 0.577262 -0.577394 0.577394
vn 0.577262 -0.577394 0.577394
vn 0.577261 -0.577400 -0.577390
vn 0.577260 -0.577400 -0.577390
vn 0.577260 -0.577400 -0.577390
vn 0.577260 0.577399 0.577392
vn 0.577260 0.577399 0.577392
vn 0.577260 0.577399 0.577392
vn 0.577258 0.577404 -0.577389
vn 0.577258 0.577404 -0.577389
vn 0.577258 0.577404 -0.577389
vn -0.577371 0.577343 0.577336
vn -0.577371 0.577343 0.577336
vn -0.577371 0.577343 0.577336
vn -0.577373 0.577339 -0.577339
vn -0.577373 0.577339 -0.577339
vn -0.577373 0.577339 -0.577339
vn -0.577373 -0.577339 0.577339
vn -0.577373 -0.577339 0.577339
vn -0.577373 -0.577339 0.577339
vn -0.577374 -0.577333 -0.577344
vn -0.577374 -0.577333 -0.577344
vn -0.577374 -0.577333 -0.577344
s off
g Fence_Destroyed
usemtl initialShadingGroup
f 1/1/1 3/2/2 19/3/3 21/4/4
f 2/97/5 1/98/6 6/99/7 5/100/8
f 3/2/9 2/5/10 8/9/11 7/6/12
f 4/13/13 6/14/14 22/15/15 24/16/16
f 5/17/17 4/13/18 12/20/19 11/21/20
f 7/6/21 9/10/22 14/11/23 13/7/24
f 9/103/25 8/102/26 11/101/27 10/104/28
f 10/23/29 12/20/30 18/19/31 17/24/32
f 13/7/33 15/12/34 20/8/35 19/3/36
f 15/105/37 14/106/38 17/107/39 16/108/40
f 16/22/41 18/19/42 24/16/43 23/18/44
f 21/111/45 20/110/46 23/109/47 22/112/48
f 2/97/49 5/100/50 11/101/51 8/102/52
f 9/161/53 10/162/54 17/163/55 14/164/56
f 15/105/57 16/108/58 23/109/59 20/110/60
f 21/165/61 22/166/62 6/167/63 1/168/64
f 4/13/65 24/16/66 18/19/67 12/20/68
f 19/3/69 3/2/70 7/6/71 13/7/72
f 1/1/73 2/5/74 3/2/75
f 4/13/76 5/17/77 6/14/78
f 7/6/79 8/9/80 9/10/81
f 10/23/82 11/21/83 12/20/84
f 13/7/85 14/11/86 15/12/87
f 16/22/88 17/24/89 18/19/90
f 19/3/91 20/8/92 21/4/93
f 22/15/94 23/18/95 24/16/96
f 25/25/97 27/26/98 43/27/99 45/28/100
f 26/113/101 25/114/102 30/115/103 29/116/104
f 27/26/105 26/29/106 32/33/107 31/30/108
f 28/37/109 30/38/110 46/39/111 48/40/112
f 29/41/113 28/37/114 36/44/115 35/45/116
f 31/30/117 33/34/118 38/35/119 37/31/120
f 33/119/121 32/118/122 35/117/123 34/120/124
f 34/47/125 36/44/126 42/43/127 41/48/128
f 37/31/129 39/36/130 44/32/131 43/27/132
f 39/121/133 38/122/134 41/123/135 40/124/136
f 40/46/137 42/43/138 48/40/139 47/42/140
f 45/127/141 44/126/142 47/125/143 46/128/144
f 26/113/145 29/116/146 35/117/147 32/118/148
f 33/169/149 34/170/150 41/171/151 38/172/152
f 39/121/153 40/124/154 47/125/155 44/126/156
f 45/173/157 46/174/158 30/175/159 25/176/160
f 28/37/161 48/40/162 42/43/163 36/44/164
f 43/27/165 27/26/166 31/30/167 37/31/168
f 25/25/169 26/29/170 27/26/171
f 28/37/172 29/41/173 30/38/174
f 31/30/175 32/33/176 33/34/177
f 34/47/178 35/45/179 36/44/180
f 37/31/181 38/35/182 39/36/183
f 40/46/184 41/48/185 42/43/186
f 43/27/187 44/32/188 45/28/189
f 46/39/190 47/42/191 48/40/192
f 49/65/193 51/62/194 67/61/195 69/66/196
f 50/143/197 49/140/198 54/139/199 53/144/200
f 51/62/201 50/67/202 56/68/203 55/63/204
f 52/49/205 54/53/206 70/54/207 72/50/208
f 53/59/209 52/49/210 60/52/211 59/60/212
f 55/63/213 57/69/214 62/70/215 61/64/216
f 57/129/217 56/133/218 59/134/219 58/130/220
f 58/57/221 60/52/222 66/51/223 65/58/224
f 61/64/225 63/71/226 68/72/227 67/61/228
f 63/135/229 62/132/230 65/131/231 64/136/232
f 64/55/233 66/51/234 72/50/235 71/56/236
f 69/137/237 68/141/238 71/142/239 70/138/240
f 50/177/241 53/178/242 59/179/243 56/180/244
f 57/129/245 58/130/246 65/131/247 62/132/248
f 63/181/249 64/182/250 71/183/251 68/184/252
f 69/137/253 70/138/254 54/139/255 49/140/256
f 52/49/257 72/50/258 66/51/259 60/52/260
f 67/61/261 51/62/262 55/63/263 61/64/264
f 49/65/265 50/67/266 51/62/267
f 52/49/268 53/59/269 54/53/270
f 55/63/271 56/68/272 57/69/273
f 58/57/274 59/60/275 60/52/276
f 61/64/277 62/70/278 63/71/279
f 64/55/280 65/58/281 66/51/282
f 67/61/283 68/72/284 69/66/285
f 70/54/286 71/56/287 72/50/288
f 73/89/289 75/86/290 91/85/291 93/90/292
f 74/159/293 73/156/294 78/155/295 77/160/296
f 75/86/297 74/91/298 80/92/299 79/87/300
f 76/73/301 78/77/302 94/78/303 96/74/304
f 77/83/305 76/73/306 84/76/307 83/84/308
f 79/87/309 81/93/310 86/94/311 85/88/312
f 81/145/313 80/149/314 83/150/315 82/146/316
f 82/81/317 84/76/318 90/75/319 89/82/320
f 85/88/321 87/95/322 92/96/323 91/85/324
f 87/151/325 86/148/326 89/147/327 88/152/328
f 88/79/329 90/75/330 96/74/331 95/80/332
f 93/153/333 92/157/334 95/158/335 94/154/336
f 74/185/337 77/186/338 83/187/339 80/188/340
f 81/145/341 82/146/342 89/147/343 86/148/344
f 87/189/345 88/190/346 95/191/347 92/192/348
f 93/153/349 94/154/350 78/155/351 73/156/352
f 76/73/353 96/74/354 90/75/355 84/76/356
f 91/85/357 75/86/358 79/87/359 85/88/360
f 73/89/361 74/91/362 75/86/363
f 76/73/364 77/83/365 78/77/366
f 79/87/367 80/92/368 81/93/369
f 82/81/370 83/84/371 84/76/372
f 85/88/373 86/94/374 87/95/375
f 88/79/376 89/82/377 90/75/378
f 91/85/379 92/96/380 93/90/381
f 94/78/382 95/80/383 96/74/384
