# This file uses centimeters as units for non-parametric coordinates.

mtllib snow pile 2.mtl
g default
v -4.168180 -0.528786 13.721103
v -1.311571 -0.413639 16.914314
v 1.930571 -0.167205 15.279191
v 3.761489 -0.318215 12.132148
v -3.414869 0.662678 13.979427
v -1.194119 1.502352 15.108610
v 1.165188 1.296337 13.991139
v 3.353943 0.107528 12.069608
v -2.736300 1.633309 13.941604
v -1.265218 2.257826 14.527805
v 0.097040 2.270083 13.694748
v 1.661858 1.608654 13.323261
v -1.885791 2.302517 14.205790
v -1.047838 2.609825 14.165703
v 0.176055 2.611566 13.366614
v 1.224679 2.187114 13.412080
v -2.284777 2.423822 12.394868
v -0.863404 2.942460 12.349731
v 0.316684 2.942460 11.675892
v 1.299972 2.444666 12.016440
v -2.296954 2.423822 10.932504
v -0.800093 2.942460 10.675018
v 0.453531 2.942460 10.263690
v 1.478769 2.444666 10.588475
v -1.887163 2.302517 9.473302
v -0.931437 2.609825 9.377733
v 0.513527 2.611566 9.213723
v 1.638960 2.187114 9.425535
v -2.700007 1.443863 8.481620
v -1.166103 2.070135 8.718918
v 0.475913 2.079503 8.596340
v 2.484572 1.321123 8.714532
v -3.173892 0.361324 7.660371
v -0.554338 1.078205 8.044899
v 2.664722 0.624023 7.819629
v 3.997320 -0.051323 7.550037
v -3.309966 -0.609716 6.798883
v 0.202685 -0.574933 6.215187
v 3.732740 -0.609715 6.494273
v 4.409557 -0.318215 6.933684
v -5.639176 -0.609716 9.211362
v 4.262987 -0.318215 8.475003
v -5.638105 -0.609716 11.552079
v 4.580917 -0.318215 10.508226
v 3.280114 0.205518 9.473343
v 3.523993 0.081256 10.707732
v 1.473936 2.098855 10.735889
v 1.378805 2.059156 12.227006
v -3.593398 0.858603 10.321738
v -3.641841 0.835002 12.425107
v -2.977610 1.830323 11.024430
v -2.969884 1.830523 12.606120
v 3.732740 -0.609716 6.494273
v 4.403732 -0.609716 6.933684
v 4.264132 -0.609716 8.475003
v 4.590771 -0.609716 10.508226
v 1.952535 -0.503834 15.242895
v -1.311571 -0.413642 16.914314
v 3.783503 -0.609716 12.113173
vt 0.079220 0.426144
vt 0.095209 0.308724
vt 0.266529 0.307343
vt 0.235576 0.399109
vt 0.194025 0.163901
vt 0.290955 0.200725
vt 0.218590 0.055035
vt 0.872351 0.699397
vt 0.392962 0.330614
vt 0.339879 0.382942
vt 0.419271 0.270451
vt 0.804973 0.581549
vt 0.482325 0.347974
vt 0.426738 0.365166
vt 0.520665 0.311090
vt 0.772781 0.493341
vt 0.527820 0.388578
vt 0.468980 0.408228
vt 0.562094 0.370451
vt 0.708285 0.457162
vt 0.544809 0.423042
vt 0.483651 0.450322
vt 0.583324 0.410992
vt 0.659026 0.471660
vt 0.534018 0.484385
vt 0.480651 0.510785
vt 0.587855 0.483628
vt 0.626790 0.537790
vt 0.486940 0.568530
vt 0.413933 0.577876
vt 0.550709 0.588942
vt 0.614427 0.656522
vt 0.443457 0.697995
vt 0.334233 0.659022
vt 0.540886 0.758514
vt 0.617274 0.827281
vt 0.354594 0.876811
vt 0.231162 0.787085
vt 0.497050 0.940096
vt 0.614473 0.918570
vt 0.713292 0.877085
vt 0.716439 0.754988
vt 0.845596 0.828618
vt 0.804311 0.731328
vt 0.687163 0.577249
vt 0.738409 0.561170
vt 0.125583 0.636899
vt 0.291344 0.537825
vt 0.084112 0.527488
vt 0.264737 0.466337
vt 0.403556 0.482321
vt 0.385519 0.433031
vt 0.641585 0.984792
vt 0.497051 0.940098
vt 0.741097 0.943943
vt 0.878436 0.889917
vt 0.095208 0.308721
vt 0.123100 0.153278
vt 0.149911 0.038667
vt 0.925859 0.770411
vt 0.964512 0.831063
vt 0.394213 0.190570
vt 0.295741 0.092141
vt 0.639621 0.412106
vt 0.608323 0.325370
vt 0.507582 0.244998
vt 0.124265 0.146107
vt 0.583745 0.982588
vn -0.670827 0.541496 0.506728
vn -0.155144 0.619973 0.769132
vn -0.016841 0.651114 0.758793
vn -0.667224 0.524737 0.528643
vn 0.488771 0.630491 0.602979
vn 0.437504 0.632707 0.638962
vn 0.733802 0.566609 0.374818
vn 0.667783 0.698733 0.256591
vn 0.135884 0.603009 0.786076
vn -0.668736 0.563931 0.484534
vn 0.396147 0.531701 0.748573
vn 0.709833 0.629750 0.315519
vn -0.126578 0.952875 0.275695
vn -0.478514 0.827724 0.293082
vn 0.263746 0.923774 0.277633
vn 0.557112 0.693491 0.456833
vn -0.129192 0.986733 0.098328
vn -0.455660 0.886659 0.078806
vn 0.195496 0.977481 0.079448
vn 0.532614 0.834688 0.140062
vn -0.174799 0.980864 -0.085741
vn -0.470608 0.876918 -0.097686
vn 0.165766 0.979048 -0.118261
vn 0.580285 0.813955 -0.027337
vn -0.196302 0.917670 -0.345466
vn -0.452664 0.839580 -0.300332
vn 0.168367 0.906605 -0.386936
vn 0.557717 0.768841 -0.312785
vn -0.110365 0.666880 -0.736947
vn -0.481521 0.679015 -0.554145
vn 0.105997 0.655610 -0.747623
vn 0.646079 0.754855 -0.113032
vn -0.026955 0.626998 -0.778554
vn -0.346863 0.750274 -0.562828
vn 0.115292 0.749078 -0.652373
vn 0.527976 0.838834 -0.132659
vn -0.010997 0.733651 -0.679437
vn -0.309112 0.758157 -0.574149
vn 0.083465 0.747900 -0.658543
vn 0.463015 0.817925 -0.341490
vn 0.694619 0.719375 0.001983
vn 0.671951 0.737685 0.065590
vn 0.645804 0.760892 0.063096
vn 0.613105 0.788904 0.041625
vn 0.775403 0.628424 0.061910
vn 0.761518 0.646751 0.042478
vn -0.564805 0.801372 -0.196973
vn -0.681968 0.719570 -0.130912
vn -0.636780 0.764124 0.103085
vn -0.717650 0.686121 0.119234
vn -0.735195 0.668749 -0.110743
vn -0.743453 0.660988 0.101848
vn 0.994009 -0.009460 -0.108892
vn 0.547815 -0.010945 -0.836528
vn 0.998719 0.007263 -0.050069
vn 0.990712 0.027193 0.133230
vn 0.453328 -0.066262 0.888877
vn 0.762960 -0.009851 0.646370
vn 0.874031 0.022297 0.485358
s 1
g pCube2
usemtl initialShadingGroup
f 1/1/1 2/2/2 6/3/3 5/4/4
f 2/2/2 3/5/5 7/6/6 6/3/3
f 3/5/5 4/7/7 8/63/8 7/6/6
f 5/4/4 6/3/3 10/9/9 9/10/10
f 6/3/3 7/6/6 11/11/11 10/9/9
f 7/6/6 8/63/8 12/62/12 11/11/11
f 9/10/10 10/9/9 14/13/13 13/14/14
f 10/9/9 11/11/11 15/15/15 14/13/13
f 11/11/11 12/62/12 16/66/16 15/15/15
f 13/14/14 14/13/13 18/17/17 17/18/18
f 14/13/13 15/15/15 19/19/19 18/17/17
f 15/15/15 16/66/16 20/65/20 19/19/19
f 17/18/18 18/17/17 22/21/21 21/22/22
f 18/17/17 19/19/19 23/23/23 22/21/21
f 19/19/19 20/65/20 24/64/24 23/23/23
f 21/22/22 22/21/21 26/25/25 25/26/26
f 22/21/21 23/23/23 27/27/27 26/25/25
f 23/23/23 24/64/24 28/28/28 27/27/27
f 25/26/26 26/25/25 30/29/29 29/30/30
f 26/25/25 27/27/27 31/31/31 30/29/29
f 27/27/27 28/28/28 32/32/32 31/31/31
f 29/30/30 30/29/29 34/33/33 33/34/34
f 30/29/29 31/31/31 35/35/35 34/33/33
f 31/31/31 32/32/32 36/36/36 35/35/35
f 33/34/34 34/33/33 38/37/37 37/38/38
f 34/33/33 35/35/35 39/39/39 38/37/37
f 35/35/35 36/36/36 40/40/40 39/39/39
f 42/41/41 40/40/40 36/36/36 45/42/42
f 44/43/43 42/41/41 45/42/42 46/44/44
f 4/60/7 44/43/43 46/44/44 8/8/8
f 45/42/42 36/36/36 32/32/32 47/45/45
f 46/44/44 45/42/42 47/45/45 48/46/46
f 8/8/8 46/44/44 48/46/46 12/12/12
f 47/45/45 32/32/32 28/28/28 24/24/24
f 48/46/46 47/45/45 24/24/24 20/20/20
f 12/12/12 48/46/46 20/20/20 16/16/16
f 37/38/38 41/47/47 49/48/48 33/34/34
f 41/47/47 43/49/49 50/50/50 49/48/48
f 43/49/49 1/1/1 5/4/4 50/50/50
f 33/34/34 49/48/48 51/51/51 29/30/30
f 49/48/48 50/50/50 52/52/52 51/51/51
f 50/50/50 5/4/4 9/10/10 52/52/52
f 29/30/30 51/51/51 21/22/22 25/26/26
f 51/51/51 52/52/52 17/18/18 21/22/22
f 52/52/52 9/10/10 13/14/14 17/18/18
f 39/39/39 40/40/40 54/68/53 53/54/54
f 40/40/40 42/41/41 55/55/55 54/53/53
f 42/41/41 44/43/43 56/56/56 55/55/55
f 3/5/5 2/2/2 58/57/57 57/58/58
f 44/43/43 4/60/7 59/61/59 56/56/56
f 4/7/7 3/5/5 57/67/58 59/59/59
