# This file uses centimeters as units for non-parametric coordinates.

mtllib Tree Vines.mtl
g default
v 214.090866 252.296005 108.229263
v 141.340866 200.298813 48.726944
v 141.057892 216.996780 47.161301
v 213.096558 265.967102 106.470993
v 145.189270 246.966660 45.106033
v 214.800400 285.607086 103.758102
v 153.118561 290.665192 42.187698
v 218.101471 309.611145 99.586182
v 155.632629 322.140961 39.034531
v 219.983521 338.397491 96.261856
v 154.587112 350.526947 39.588791
v 218.938019 366.783447 96.816116
v 151.251343 368.468842 44.482559
v 215.602219 384.725372 101.709839
v 147.642212 374.393585 50.465897
v 211.993103 390.650116 107.693176
v 144.668640 374.089722 54.070145
v 209.019531 390.346252 111.297470
v 140.701736 370.674164 58.392208
v 205.052628 386.930695 115.619492
v 137.500122 356.323517 63.989559
v 201.850998 372.580048 121.216843
v 136.756210 331.369171 69.424591
v 201.107117 347.625702 126.651871
v 137.117615 300.800842 72.957703
v 202.540146 321.617523 130.475250
v 134.089615 259.718262 74.028412
v 203.836899 298.937988 132.717377
v 131.665924 231.509995 75.756287
v 203.718933 280.541321 135.069824
v 130.570877 215.277100 78.796158
v 203.320877 267.274292 138.298477
v 133.589890 122.474136 -77.826599
v 71.335815 86.429619 1.935665
v 71.746582 103.142014 0.349194
v 133.517212 136.307541 -78.325691
v 72.464691 132.394516 -7.643494
v 132.585419 155.734558 -82.607468
v 73.233147 174.760315 -21.440948
v 130.208359 179.367676 -89.329895
v 73.178902 205.830963 -27.902401
v 129.724564 207.880234 -94.825195
v 77.747559 234.066879 -29.541515
v 134.293228 236.116150 -96.464325
v 86.468513 251.943512 -26.960983
v 143.014175 253.992783 -93.883797
v 94.943100 257.865784 -22.704403
v 151.488770 259.915039 -89.627197
v 99.696289 257.713531 -18.841904
v 156.241943 259.762817 -85.764717
v 105.074463 254.566681 -13.445766
v 161.620148 256.615906 -80.368561
v 110.363327 240.369888 -7.633606
v 166.908997 242.419159 -74.556412
v 113.596039 215.317581 -3.539825
v 170.141708 217.366852 -70.462631
v 113.654556 184.692368 -0.371441
v 170.928558 191.079071 -68.932419
v 110.115326 144.345261 7.378246
v 170.328598 168.236328 -67.793854
v 108.913086 116.613159 13.218441
v 170.693451 149.836670 -65.478363
v 110.555153 100.446228 16.507519
v 172.809219 136.490753 -63.254730
v 14.945723 182.905396 114.375748
v 46.891705 140.348862 89.643280
v 48.197945 156.845673 87.455902
v 16.251966 196.475647 112.188370
v 50.636513 186.376114 86.728470
v 18.690554 216.018326 111.460892
v 54.396507 229.435150 87.066345
v 22.450533 240.035248 111.798767
v 57.420013 260.581055 85.300110
v 25.474045 268.580811 110.032532
v 57.261612 288.156830 79.979248
v 25.315643 296.156616 104.711670
v 53.543648 304.912720 72.945709
v 21.597675 312.912476 97.678131
v 48.846989 309.798462 67.142685
v 16.901014 317.798218 91.875153
v 45.856461 308.962128 63.639507
v 13.910490 316.961853 88.371933
v 42.174553 304.983093 59.604046
v 10.228578 312.982819 84.336517
v 37.537533 290.168427 57.343792
v 5.591563 298.168182 82.076263
v 33.210316 265.059875 58.603329
v 1.264341 273.059601 83.335754
v 30.320168 234.762329 62.245663
v -1.625807 247.171188 86.978134
v 28.587933 194.551804 65.857651
v -3.358042 224.754135 90.590118
v 26.640865 166.796646 67.715485
v -5.305105 206.485565 92.447906
v 24.097202 150.530991 68.258804
v -7.848778 193.087555 92.991226
vt 0.018315 0.018315
vt 0.981685 0.018315
vt 0.981685 0.082540
vt 0.018315 0.082540
vt 0.981685 0.146764
vt 0.018315 0.146764
vt 0.981685 0.210989
vt 0.018315 0.210989
vt 0.981685 0.275214
vt 0.018315 0.275214
vt 0.981685 0.339438
vt 0.018315 0.339438
vt 0.981685 0.403663
vt 0.018315 0.403663
vt 0.981685 0.467888
vt 0.018315 0.467888
vt 0.981685 0.532112
vt 0.018315 0.532112
vt 0.981685 0.596337
vt 0.018315 0.596337
vt 0.981685 0.660562
vt 0.018315 0.660562
vt 0.981685 0.724786
vt 0.018315 0.724786
vt 0.981685 0.789011
vt 0.018315 0.789011
vt 0.981685 0.853236
vt 0.018315 0.853236
vt 0.981685 0.917460
vt 0.018315 0.917460
vt 0.981685 0.981685
vt 0.018315 0.981685
vt 0.018315 0.018315
vt 0.981685 0.018315
vt 0.981685 0.082540
vt 0.018315 0.082540
vt 0.981685 0.146764
vt 0.018315 0.146764
vt 0.981685 0.210989
vt 0.018315 0.210989
vt 0.981685 0.275214
vt 0.018315 0.275214
vt 0.981685 0.339438
vt 0.018315 0.339438
vt 0.981685 0.403663
vt 0.018315 0.403663
vt 0.981685 0.467888
vt 0.018315 0.467888
vt 0.981685 0.532112
vt 0.018315 0.532112
vt 0.981685 0.596337
vt 0.018315 0.596337
vt 0.981685 0.660562
vt 0.018315 0.660562
vt 0.981685 0.724786
vt 0.018315 0.724786
vt 0.981685 0.789011
vt 0.018315 0.789011
vt 0.981685 0.853236
vt 0.018315 0.853236
vt 0.981685 0.917460
vt 0.018315 0.917460
vt 0.981685 0.981685
vt 0.018315 0.981685
vt 0.018315 0.018315
vt 0.981685 0.018315
vt 0.981685 0.082540
vt 0.018315 0.082540
vt 0.981685 0.146764
vt 0.018315 0.146764
vt 0.981685 0.210989
vt 0.018315 0.210989
vt 0.981685 0.275214
vt 0.018315 0.275214
vt 0.981685 0.339438
vt 0.018315 0.339438
vt 0.981685 0.403663
vt 0.018315 0.403663
vt 0.981685 0.467888
vt 0.018315 0.467888
vt 0.981685 0.532112
vt 0.018315 0.532112
vt 0.981685 0.596337
vt 0.018315 0.596337
vt 0.981685 0.660562
vt 0.018315 0.660562
vt 0.981685 0.724786
vt 0.018315 0.724786
vt 0.981685 0.789011
vt 0.018315 0.789011
vt 0.981685 0.853236
vt 0.018315 0.853236
vt 0.981685 0.917460
vt 0.018315 0.917460
vt 0.981685 0.981685
vt 0.018315 0.981685
vn 0.655960 -0.054806 -0.752803
vn 0.655960 -0.054806 -0.752803
vn 0.670002 -0.096612 -0.736046
vn 0.677965 -0.122448 -0.724824
vn 0.677965 -0.122448 -0.724824
vn 0.670002 -0.096612 -0.736046
vn 0.685985 -0.164959 -0.708670
vn 0.686132 -0.175308 -0.706038
vn 0.686132 -0.175308 -0.706038
vn 0.685985 -0.164959 -0.708670
vn 0.682985 -0.164113 -0.711758
vn 0.681728 -0.155746 -0.714836
vn 0.681728 -0.155746 -0.714836
vn 0.682985 -0.164113 -0.711758
vn 0.671507 -0.056550 -0.738837
vn 0.669546 -0.038600 -0.741767
vn 0.669546 -0.038600 -0.741767
vn 0.671507 -0.056550 -0.738837
vn 0.639690 0.132867 -0.757062
vn 0.631610 0.165837 -0.757342
vn 0.631610 0.165837 -0.757342
vn 0.639690 0.132867 -0.757062
vn 0.530556 0.443262 -0.722516
vn 0.496627 0.509012 -0.703042
vn 0.496627 0.509012 -0.703042
vn 0.530556 0.443262 -0.722516
vn 0.168257 0.882191 -0.439806
vn 0.125469 0.908280 -0.399104
vn 0.125469 0.908280 -0.399104
vn 0.168257 0.882191 -0.439806
vn -0.352705 0.926160 0.133515
vn -0.345978 0.929893 0.124890
vn -0.345978 0.929893 0.124890
vn -0.352705 0.926160 0.133515
vn -0.630219 0.543770 0.554200
vn -0.621365 0.571027 0.536501
vn -0.621365 0.571027 0.536501
vn -0.630219 0.543770 0.554200
vn -0.677699 0.256015 0.689333
vn -0.677244 0.266072 0.685964
vn -0.677244 0.266072 0.685964
vn -0.677699 0.256015 0.689333
vn -0.676069 0.119571 0.727072
vn -0.676349 0.123973 0.726073
vn -0.676349 0.123973 0.726073
vn -0.676069 0.119571 0.727072
vn -0.668169 0.063896 0.741261
vn -0.668885 0.065658 0.740461
vn -0.668885 0.065658 0.740461
vn -0.668169 0.063896 0.741261
vn -0.669723 0.082136 0.738055
vn -0.667915 0.071592 0.740786
vn -0.667915 0.071592 0.740786
vn -0.669723 0.082136 0.738055
vn -0.686883 0.146808 0.711786
vn -0.680478 0.125291 0.721977
vn -0.680478 0.125291 0.721977
vn -0.686883 0.146808 0.711786
vn -0.696682 0.182675 0.693732
vn -0.696682 0.182675 0.693732
vn -0.779699 -0.034059 -0.625227
vn -0.779699 -0.034059 -0.625227
vn -0.764712 -0.093041 -0.637620
vn -0.753924 -0.129478 -0.644077
vn -0.753924 -0.129478 -0.644077
vn -0.764712 -0.093041 -0.637620
vn -0.738431 -0.188206 -0.647532
vn -0.736215 -0.201951 -0.645912
vn -0.736215 -0.201951 -0.645912
vn -0.738431 -0.188206 -0.647532
vn -0.742272 -0.186190 -0.643712
vn -0.745240 -0.174742 -0.643493
vn -0.745240 -0.174742 -0.643493
vn -0.742272 -0.186190 -0.643712
vn -0.762487 -0.040730 -0.645720
vn -0.763394 -0.016818 -0.645714
vn -0.763394 -0.016818 -0.645714
vn -0.762487 -0.040730 -0.645720
vn -0.750225 0.208296 -0.627516
vn -0.743676 0.248200 -0.620760
vn -0.743676 0.248200 -0.620760
vn -0.750225 0.208296 -0.627516
vn -0.637132 0.568051 -0.520943
vn -0.605842 0.624603 -0.492774
vn -0.605842 0.624603 -0.492774
vn -0.637132 0.568051 -0.520943
vn -0.294078 0.930118 -0.219997
vn -0.264742 0.944445 -0.194771
vn -0.264742 0.944445 -0.194771
vn -0.294078 0.930118 -0.219997
vn 0.166167 0.971308 0.170143
vn 0.160193 0.973172 0.165152
vn 0.160193 0.973172 0.165152
vn 0.166167 0.971308 0.170143
vn 0.569370 0.651750 0.501039
vn 0.551755 0.677100 0.486932
vn 0.551755 0.677100 0.486932
vn 0.569370 0.651750 0.501039
vn 0.722501 0.306240 0.619846
vn 0.719081 0.319063 0.617350
vn 0.719081 0.319063 0.617350
vn 0.722501 0.306240 0.619846
vn 0.756400 0.125138 0.642027
vn 0.755693 0.131041 0.641682
vn 0.755693 0.131041 0.641682
vn 0.756400 0.125138 0.642027
vn 0.766630 0.049453 0.640182
vn 0.765886 0.051968 0.640873
vn 0.765886 0.051968 0.640873
vn 0.766630 0.049453 0.640182
vn 0.765241 0.073863 0.639493
vn 0.767163 0.059485 0.638689
vn 0.767163 0.059485 0.638689
vn 0.765241 0.073863 0.639493
vn 0.740323 0.164384 0.651844
vn 0.750659 0.134017 0.646955
vn 0.750659 0.134017 0.646955
vn 0.740323 0.164384 0.651844
vn 0.721272 0.214839 0.658492
vn 0.721272 0.214839 0.658492
vn 0.653161 0.053151 0.755352
vn 0.653161 0.053151 0.755352
vn 0.653161 0.053151 0.755352
vn 0.653161 0.053151 0.755352
vn 0.603407 -0.014989 0.797293
vn 0.629760 0.020168 0.776528
vn 0.585611 -0.049401 0.809085
vn 0.583256 -0.062533 0.809878
vn 0.583256 -0.062533 0.809878
vn 0.585611 -0.049401 0.809085
vn 0.593234 -0.049118 0.803530
vn 0.595964 -0.043469 0.801834
vn 0.595964 -0.043469 0.801834
vn 0.593234 -0.049118 0.803530
vn 0.620326 0.060913 0.781976
vn 0.621321 0.069403 0.780476
vn 0.621321 0.069403 0.780476
vn 0.620326 0.060913 0.781976
vn 0.631091 0.251376 0.733849
vn 0.630873 0.266626 0.728635
vn 0.630873 0.266626 0.728635
vn 0.631091 0.251376 0.733849
vn 0.591649 0.555080 0.584669
vn 0.583240 0.584207 0.564387
vn 0.583240 0.584207 0.564387
vn 0.591649 0.555080 0.584669
vn 0.342098 0.928964 0.141401
vn 0.325722 0.938164 0.117272
vn 0.325722 0.938164 0.117272
vn 0.342098 0.928964 0.141401
vn -0.129595 0.882179 -0.452731
vn -0.126231 0.884501 -0.449137
vn -0.126231 0.884501 -0.449137
vn -0.129595 0.882179 -0.452731
vn -0.471946 0.453245 -0.756198
vn -0.465239 0.466990 -0.751979
vn -0.465239 0.466990 -0.751979
vn -0.471946 0.453245 -0.756198
vn -0.581955 0.148159 -0.799611
vn -0.580727 0.153003 -0.799592
vn -0.580727 0.153003 -0.799592
vn -0.581955 0.148159 -0.799611
vn -0.611696 0.008587 -0.791046
vn -0.611323 0.010678 -0.791309
vn -0.611323 0.010678 -0.791309
vn -0.611696 0.008587 -0.791046
vn -0.627710 -0.047380 -0.777004
vn -0.626317 -0.045814 -0.778221
vn -0.626317 -0.045814 -0.778221
vn -0.627710 -0.047380 -0.777004
vn -0.625158 -0.027611 -0.780010
vn -0.629710 -0.041724 -0.775709
vn -0.629710 -0.041724 -0.775709
vn -0.625158 -0.027611 -0.780010
vn -0.581091 0.036933 -0.813000
vn -0.605753 0.006672 -0.795625
vn -0.605753 0.006672 -0.795625
vn -0.581091 0.036933 -0.813000
vn -0.557039 0.065204 -0.827923
vn -0.557039 0.065204 -0.827923
s off
g Swamp_TRee:Swamp_TRee:polySurface2
usemtl Swamp_TRee:Swamp_TRee:lambert1SG
f 1/1/1 2/2/2 3/3/3 4/4/4
f 4/4/5 3/3/6 5/5/7 6/6/8
f 6/6/9 5/5/10 7/7/11 8/8/12
f 8/8/13 7/7/14 9/9/15 10/10/16
f 10/10/17 9/9/18 11/11/19 12/12/20
f 12/12/21 11/11/22 13/13/23 14/14/24
f 14/14/25 13/13/26 15/15/27 16/16/28
f 16/16/29 15/15/30 17/17/31 18/18/32
f 18/18/33 17/17/34 19/19/35 20/20/36
f 20/20/37 19/19/38 21/21/39 22/22/40
f 22/22/41 21/21/42 23/23/43 24/24/44
f 24/24/45 23/23/46 25/25/47 26/26/48
f 26/26/49 25/25/50 27/27/51 28/28/52
f 28/28/53 27/27/54 29/29/55 30/30/56
f 30/30/57 29/29/58 31/31/59 32/32/60
f 33/33/61 34/34/62 35/35/63 36/36/64
f 36/36/65 35/35/66 37/37/67 38/38/68
f 38/38/69 37/37/70 39/39/71 40/40/72
f 40/40/73 39/39/74 41/41/75 42/42/76
f 42/42/77 41/41/78 43/43/79 44/44/80
f 44/44/81 43/43/82 45/45/83 46/46/84
f 46/46/85 45/45/86 47/47/87 48/48/88
f 48/48/89 47/47/90 49/49/91 50/50/92
f 50/50/93 49/49/94 51/51/95 52/52/96
f 52/52/97 51/51/98 53/53/99 54/54/100
f 54/54/101 53/53/102 55/55/103 56/56/104
f 56/56/105 55/55/106 57/57/107 58/58/108
f 58/58/109 57/57/110 59/59/111 60/60/112
f 60/60/113 59/59/114 61/61/115 62/62/116
f 62/62/117 61/61/118 63/63/119 64/64/120
f 65/65/121 66/66/122 67/67/123 68/68/124
f 68/68/125 67/67/126 69/69/127 70/70/128
f 70/70/129 69/69/130 71/71/131 72/72/132
f 72/72/133 71/71/134 73/73/135 74/74/136
f 74/74/137 73/73/138 75/75/139 76/76/140
f 76/76/141 75/75/142 77/77/143 78/78/144
f 78/78/145 77/77/146 79/79/147 80/80/148
f 80/80/149 79/79/150 81/81/151 82/82/152
f 82/82/153 81/81/154 83/83/155 84/84/156
f 84/84/157 83/83/158 85/85/159 86/86/160
f 86/86/161 85/85/162 87/87/163 88/88/164
f 88/88/165 87/87/166 89/89/167 90/90/168
f 90/90/169 89/89/170 91/91/171 92/92/172
f 92/92/173 91/91/174 93/93/175 94/94/176
f 94/94/177 93/93/178 95/95/179 96/96/180
