# This file uses centimeters as units for non-parametric coordinates.

mtllib Rune ROck 2.mtl
g default
v -10.592987 16.199048 323.739519
v -10.332165 15.977551 323.753849
v -10.057798 15.888453 323.757784
v -9.781071 15.888453 323.757784
v -9.498133 15.977551 323.753849
v -9.122487 16.199048 323.739519
v -10.510735 16.423158 323.532900
v -10.319835 16.235174 323.733300
v -10.046772 16.148452 323.743687
v -9.740962 16.148452 323.743687
v -9.388693 16.235174 323.733300
v -9.004406 16.423158 323.727553
v -10.500430 16.699828 323.522594
v -10.286829 16.580800 323.711752
v -9.963797 16.524924 323.718628
v -9.607842 16.524924 323.737456
v -9.255699 16.580800 323.769231
v -8.943366 16.699828 323.834523
v -10.500430 17.176049 323.522594
v -10.282507 17.208227 323.728687
v -9.945295 17.180649 323.820211
v -9.579084 17.175634 323.932130
v -9.235141 17.174327 323.972709
v -8.943366 17.128784 323.972709
v -10.500430 17.738479 323.528090
v -10.306906 18.142232 323.778818
v -10.049948 18.304271 323.860776
v -9.783749 18.302899 323.935090
v -9.478122 18.126934 323.972709
v -9.077970 17.678933 323.972709
v -10.570635 18.103252 323.727503
v -10.314020 18.499476 323.763002
v -10.053456 18.643298 323.802760
v -9.785413 18.643298 323.851441
v -9.524849 18.498325 323.918499
v -9.212984 18.082666 323.949921
v -10.577076 18.380536 323.461600
v -10.331870 18.824194 323.478401
v -10.057865 19.001706 323.481258
v -9.781004 19.001706 323.481258
v -9.506999 18.824194 323.498130
v -9.261793 18.402635 323.621216
v -10.589544 18.407370 323.199988
v -10.334727 18.950072 323.204397
v -10.057865 19.132108 323.204397
v -9.781004 19.132108 323.204397
v -9.504142 18.950072 323.204397
v -9.249325 18.415308 323.269696
v -10.589544 18.310225 322.931944
v -10.334727 18.920041 322.927535
v -10.057865 19.101100 322.927535
v -9.781004 19.101100 322.927535
v -9.504142 18.920041 322.927535
v -9.249325 18.317257 322.955591
v -10.577076 18.063504 322.671381
v -10.331870 18.660210 322.653530
v -10.057865 18.864104 322.650674
v -9.781004 18.864104 322.650674
v -9.506999 18.660210 322.653530
v -9.261793 18.065183 322.676404
v -10.570635 17.693391 322.414766
v -10.314020 18.025082 322.408324
v -10.053456 18.207714 322.395856
v -9.785413 18.207714 322.395856
v -9.524849 18.025082 322.408324
v -9.268234 17.677858 322.414766
v -10.565221 17.434126 322.420180
v -10.306906 17.697734 322.420180
v -10.049948 17.809918 322.413399
v -9.788921 17.799526 322.413399
v -9.531963 17.680548 322.420180
v -9.270062 17.422955 322.417971
v -10.565220 17.070609 322.420180
v -10.306906 17.073021 322.414520
v -10.049683 17.043801 322.355493
v -9.784746 17.029130 322.265276
v -9.513996 17.036889 322.197703
v -9.249249 17.028381 322.160510
v -10.565220 16.695281 322.392215
v -10.306906 16.554120 322.256114
v -10.049787 16.470914 322.082077
v -9.785019 16.446386 321.931252
v -9.513996 16.491040 321.868219
v -9.253571 16.610068 321.868219
v -10.575526 16.419774 322.389066
v -10.319835 16.209301 322.239535
v -10.054979 16.095820 322.064602
v -9.783890 16.071234 321.913413
v -9.519034 16.145413 321.846670
v -9.248006 16.333397 321.857913
v -10.592987 16.194701 322.365681
v -10.332165 15.963661 322.292669
v -10.057798 15.863773 322.222381
v -9.781071 15.847611 322.122994
v -9.506704 15.913687 321.985368
v -9.245882 16.119937 321.905941
v -10.607318 15.977192 322.651027
v -10.334727 15.697545 322.650674
v -10.057865 15.589200 322.650674
v -9.781004 15.588632 322.647181
v -9.504142 15.687137 322.586675
v -9.231551 15.928894 322.354032
v -10.611253 15.888453 322.927602
v -10.334727 15.589200 322.927535
v -10.057865 15.471474 322.927535
v -9.781004 15.471474 322.927535
v -9.504142 15.589200 322.927535
v -9.227616 15.868087 322.802361
v -10.611253 15.888453 323.204330
v -10.334727 15.589200 323.204397
v -10.057865 15.471474 323.204397
v -9.781004 15.471474 323.204397
v -9.504142 15.589200 323.204397
v -9.227616 15.882799 323.169561
v -10.607318 15.977551 323.478696
v -10.334727 15.697545 323.481258
v -10.057865 15.589200 323.481258
v -9.781004 15.589200 323.481258
v -9.504142 15.697545 323.481258
v -9.212356 15.977295 323.477121
v -9.218558 16.166343 322.242304
v -9.187873 16.105625 322.667068
v -9.145953 16.131854 323.099447
v -9.078678 16.232692 323.451106
v -9.168608 16.506622 322.222351
v -9.061808 16.475457 322.631426
v -8.975180 16.505006 323.084940
v -8.943366 16.579161 323.492031
v -9.168608 17.038149 322.482682
v -9.059067 17.043229 322.904228
v -8.971677 17.088907 323.354886
v -8.943366 17.131243 323.687957
v -9.270322 17.753715 322.694384
v -9.261695 17.996612 323.005289
v -9.247672 18.118214 323.341057
v -9.206611 18.041928 323.660895
v -10.586769 16.231944 322.645705
v -10.597156 16.148195 322.928847
v -10.597156 16.148452 323.201510
v -10.586769 16.235174 323.466367
v -10.565221 16.576769 322.653706
v -10.571196 16.524183 322.931055
v -10.571196 16.524924 323.196318
v -10.565220 16.580800 323.453437
v -10.565221 17.084127 322.678494
v -10.570677 17.083456 322.935717
v -10.570677 17.111608 323.196214
v -10.565220 17.166567 323.453437
v -10.565221 17.767144 322.678494
v -10.572002 17.988973 322.935452
v -10.572002 18.092521 323.196975
v -10.565220 18.039643 323.460891
vt 0.375000 0.000000
vt 0.425000 0.000000
vt 0.475000 0.000000
vt 0.525000 0.000000
vt 0.575000 0.000000
vt 0.625000 0.000000
vt 0.375000 0.050000
vt 0.425000 0.050000
vt 0.475000 0.050000
vt 0.525000 0.050000
vt 0.575000 0.050000
vt 0.625000 0.050000
vt 0.375000 0.100000
vt 0.425000 0.100000
vt 0.475000 0.100000
vt 0.525000 0.100000
vt 0.575000 0.100000
vt 0.625000 0.100000
vt 0.375000 0.150000
vt 0.425000 0.150000
vt 0.475000 0.150000
vt 0.525000 0.150000
vt 0.575000 0.150000
vt 0.625000 0.150000
vt 0.375000 0.200000
vt 0.425000 0.200000
vt 0.475000 0.200000
vt 0.525000 0.200000
vt 0.575000 0.200000
vt 0.625000 0.200000
vt 0.375000 0.250000
vt 0.425000 0.250000
vt 0.475000 0.250000
vt 0.525000 0.250000
vt 0.575000 0.250000
vt 0.625000 0.250000
vt 0.375000 0.300000
vt 0.425000 0.300000
vt 0.475000 0.300000
vt 0.525000 0.300000
vt 0.575000 0.300000
vt 0.625000 0.300000
vt 0.375000 0.350000
vt 0.425000 0.350000
vt 0.475000 0.350000
vt 0.525000 0.350000
vt 0.575000 0.350000
vt 0.625000 0.350000
vt 0.375000 0.400000
vt 0.425000 0.400000
vt 0.475000 0.400000
vt 0.525000 0.400000
vt 0.575000 0.400000
vt 0.625000 0.400000
vt 0.375000 0.450000
vt 0.425000 0.450000
vt 0.475000 0.450000
vt 0.525000 0.450000
vt 0.575000 0.450000
vt 0.625000 0.450000
vt 0.375000 0.500000
vt 0.425000 0.500000
vt 0.475000 0.500000
vt 0.525000 0.500000
vt 0.575000 0.500000
vt 0.625000 0.500000
vt 0.375000 0.550000
vt 0.425000 0.550000
vt 0.475000 0.550000
vt 0.525000 0.550000
vt 0.575000 0.550000
vt 0.625000 0.550000
vt 0.375000 0.600000
vt 0.425000 0.600000
vt 0.475000 0.600000
vt 0.525000 0.600000
vt 0.575000 0.600000
vt 0.625000 0.600000
vt 0.375000 0.650000
vt 0.425000 0.650000
vt 0.475000 0.650000
vt 0.525000 0.650000
vt 0.575000 0.650000
vt 0.625000 0.650000
vt 0.375000 0.700000
vt 0.425000 0.700000
vt 0.475000 0.700000
vt 0.525000 0.700000
vt 0.575000 0.700000
vt 0.625000 0.700000
vt 0.375000 0.750000
vt 0.425000 0.750000
vt 0.475000 0.750000
vt 0.525000 0.750000
vt 0.575000 0.750000
vt 0.625000 0.750000
vt 0.375000 0.800000
vt 0.425000 0.800000
vt 0.475000 0.800000
vt 0.525000 0.800000
vt 0.575000 0.800000
vt 0.625000 0.800000
vt 0.375000 0.850000
vt 0.425000 0.850000
vt 0.475000 0.850000
vt 0.525000 0.850000
vt 0.575000 0.850000
vt 0.625000 0.850000
vt 0.375000 0.900000
vt 0.425000 0.900000
vt 0.475000 0.900000
vt 0.525000 0.900000
vt 0.575000 0.900000
vt 0.625000 0.900000
vt 0.375000 0.950000
vt 0.425000 0.950000
vt 0.475000 0.950000
vt 0.525000 0.950000
vt 0.575000 0.950000
vt 0.625000 0.950000
vt 0.375000 1.000000
vt 0.425000 1.000000
vt 0.475000 1.000000
vt 0.525000 1.000000
vt 0.575000 1.000000
vt 0.625000 1.000000
vt 0.875000 0.000000
vt 0.825000 0.000000
vt 0.775000 0.000000
vt 0.725000 0.000000
vt 0.675000 0.000000
vt 0.875000 0.050000
vt 0.825000 0.050000
vt 0.775000 0.050000
vt 0.725000 0.050000
vt 0.675000 0.050000
vt 0.875000 0.100000
vt 0.825000 0.100000
vt 0.775000 0.100000
vt 0.725000 0.100000
vt 0.675000 0.100000
vt 0.875000 0.150000
vt 0.825000 0.150000
vt 0.775000 0.150000
vt 0.725000 0.150000
vt 0.675000 0.150000
vt 0.875000 0.200000
vt 0.825000 0.200000
vt 0.775000 0.200000
vt 0.725000 0.200000
vt 0.675000 0.200000
vt 0.875000 0.250000
vt 0.825000 0.250000
vt 0.775000 0.250000
vt 0.725000 0.250000
vt 0.675000 0.250000
vt 0.125000 0.000000
vt 0.175000 0.000000
vt 0.225000 0.000000
vt 0.275000 0.000000
vt 0.325000 0.000000
vt 0.125000 0.050000
vt 0.175000 0.050000
vt 0.225000 0.050000
vt 0.275000 0.050000
vt 0.325000 0.050000
vt 0.125000 0.100000
vt 0.175000 0.100000
vt 0.225000 0.100000
vt 0.275000 0.100000
vt 0.325000 0.100000
vt 0.125000 0.150000
vt 0.175000 0.150000
vt 0.225000 0.150000
vt 0.275000 0.150000
vt 0.325000 0.150000
vt 0.125000 0.200000
vt 0.175000 0.200000
vt 0.225000 0.200000
vt 0.275000 0.200000
vt 0.325000 0.200000
vt 0.125000 0.250000
vt 0.175000 0.250000
vt 0.225000 0.250000
vt 0.275000 0.250000
vt 0.325000 0.250000
vn -0.036636 0.432108 0.901077
vn -0.012067 0.152390 0.988247
vn -0.098080 0.193821 0.976122
vn -0.570892 0.150957 0.807028
vn -0.001827 0.059258 0.998241
vn -0.012932 0.058837 0.998184
vn 0.001617 0.058366 0.998294
vn -0.013750 0.039206 0.999137
vn 0.001327 0.066915 0.997758
vn -0.012527 -0.009561 0.999876
vn -0.013306 0.073591 0.997200
vn 0.013289 -0.185936 0.982472
vn -0.346803 -0.012330 0.937857
vn -0.673229 0.008927 0.739380
vn -0.113054 -0.077338 0.990574
vn -0.093739 -0.156496 0.983220
vn -0.043899 -0.250540 0.967110
vn -0.048883 -0.299465 0.952854
vn -0.446229 -0.053866 0.893296
vn -0.702123 -0.023762 0.711659
vn -0.231572 -0.097581 0.967911
vn -0.174322 -0.130874 0.975953
vn -0.068711 -0.130569 0.989056
vn -0.035382 -0.174185 0.984077
vn -0.281047 -0.094652 0.955015
vn -0.700924 -0.050239 0.711465
vn -0.272369 0.003552 0.962186
vn -0.209819 0.024608 0.977431
vn -0.065129 0.019388 0.997689
vn 0.004776 0.005566 0.999973
vn -0.264586 0.045456 0.963290
vn -0.147540 -0.258554 0.954663
vn -0.241673 0.162553 0.956645
vn -0.171493 0.193611 0.965973
vn -0.054263 0.177313 0.982657
vn 0.105303 0.122718 0.986839
vn -0.758859 0.422550 0.495565
vn -0.685554 0.473858 0.552698
vn -0.689935 0.574240 0.440724
vn -0.813872 0.436673 0.383312
vn -0.265999 0.649176 0.712611
vn -0.258596 0.778677 0.571656
vn 0.188525 0.717040 0.671053
vn 0.205627 0.803814 0.558213
vn 0.631893 0.596950 0.494330
vn 0.659688 0.643900 0.387563
vn 0.704878 0.551370 0.446249
vn 0.767855 0.536523 0.350061
vn -0.762226 0.641993 0.082802
vn -0.906003 0.423190 0.008248
vn -0.274704 0.949379 0.152372
vn 0.274139 0.949698 0.151398
vn 0.766748 0.637990 0.071175
vn 0.899026 0.437871 0.004639
vn -0.747478 0.585926 -0.312998
vn -0.883590 0.368155 -0.289363
vn -0.268585 0.882608 -0.385832
vn 0.268585 0.882608 -0.385831
vn 0.757004 0.578652 -0.303492
vn 0.889577 0.367089 -0.271842
vn -0.612988 0.403851 -0.679081
vn -0.692465 0.337751 -0.637508
vn -0.194983 0.550907 -0.811470
vn 0.194983 0.550907 -0.811470
vn 0.623488 0.402605 -0.670203
vn 0.701863 0.333850 -0.629232
vn -0.570537 0.337783 -0.748592
vn -0.643111 0.329531 -0.691243
vn -0.168241 0.353712 -0.920099
vn 0.168241 0.353712 -0.920099
vn 0.578322 0.334198 -0.744215
vn 0.650272 0.324955 -0.686695
vn 0.020993 -0.028973 -0.999360
vn -0.009594 -0.039242 -0.999184
vn -0.068459 0.012016 -0.997582
vn -0.010157 0.002002 -0.999946
vn -0.004533 -0.042710 -0.999077
vn -0.088015 0.037148 -0.995426
vn 0.003511 -0.042262 -0.999100
vn -0.069866 0.081508 -0.994221
vn 0.010128 -0.037510 -0.999245
vn -0.020613 0.168931 -0.985412
vn -0.020771 -0.024803 -0.999476
vn 0.129921 0.379561 -0.915999
vn -0.169425 0.140499 -0.975477
vn -0.110812 0.101860 -0.988608
vn -0.242495 0.240853 -0.939780
vn -0.209839 0.334101 -0.918882
vn -0.088498 0.424344 -0.901166
vn -0.026594 0.489050 -0.871850
vn -0.388830 0.201256 -0.899059
vn -0.268702 0.165804 -0.948846
vn -0.426769 0.255437 -0.867537
vn -0.338512 0.290289 -0.895065
vn -0.182678 0.332483 -0.925248
vn -0.144495 0.456050 -0.878146
vn -0.493919 -0.035869 -0.868768
vn -0.453861 0.031967 -0.890499
vn -0.492834 -0.204592 -0.845729
vn -0.336384 -0.301387 -0.892195
vn -0.077555 -0.206696 -0.975326
vn 0.024355 -0.030365 -0.999242
vn -0.484494 -0.273594 -0.830910
vn -0.417702 -0.030956 -0.908056
vn -0.429030 -0.485451 -0.761756
vn -0.289729 -0.594463 -0.750114
vn -0.076725 -0.563754 -0.822372
vn 0.162666 -0.377139 -0.911760
vn -0.643009 -0.603974 -0.470909
vn -0.544703 -0.673811 -0.499277
vn -0.523807 -0.744405 -0.414110
vn -0.664220 -0.625696 -0.409044
vn -0.238133 -0.825373 -0.511911
vn -0.210748 -0.866885 -0.451770
vn 0.041064 -0.901820 -0.430156
vn 0.077934 -0.910051 -0.407105
vn 0.382824 -0.853065 -0.354578
vn 0.394475 -0.869548 -0.297111
vn 0.486555 -0.809021 -0.329771
vn 0.521700 -0.802375 -0.289868
vn -0.564518 -0.810869 -0.154308
vn -0.722578 -0.677398 -0.137888
vn -0.189540 -0.963642 -0.188331
vn 0.181388 -0.966673 -0.180672
vn 0.547362 -0.829501 -0.111009
vn 0.665483 -0.740985 -0.089852
vn -0.564565 -0.810801 0.154491
vn -0.722898 -0.676935 0.138485
vn -0.188911 -0.963652 0.188911
vn 0.188911 -0.963652 0.188910
vn 0.567387 -0.809381 0.151574
vn 0.713694 -0.688992 0.126219
vn -0.488940 -0.722409 0.488940
vn -0.621776 -0.621794 0.476201
vn -0.154491 -0.810801 0.564565
vn 0.154092 -0.810858 0.564592
vn 0.484737 -0.737170 0.470756
vn 0.579053 -0.681435 0.447597
vn -0.476201 -0.621794 0.621776
vn -0.571588 -0.588704 0.571589
vn -0.138485 -0.676935 0.722898
vn 0.137199 -0.678151 0.722002
vn 0.438575 -0.676254 0.591889
vn 0.516953 -0.668652 0.534475
vn 0.990662 -0.121448 -0.061964
vn 0.995995 -0.050217 -0.073979
vn 0.985026 -0.068822 -0.158076
vn 0.979527 -0.150516 -0.133686
vn 0.975243 -0.216517 -0.044960
vn 0.958330 -0.266367 -0.103206
vn 0.948289 -0.316731 -0.020721
vn 0.931826 -0.358799 -0.054431
vn 0.913532 -0.406388 0.017586
vn 0.914719 -0.403907 0.012173
vn 0.885101 -0.458298 0.080985
vn 0.939907 -0.337903 0.048953
vn 0.975974 0.063948 -0.208293
vn 0.976707 -0.001503 -0.214574
vn 0.977437 -0.082668 -0.194378
vn 0.983482 -0.129685 -0.126273
vn 0.990725 -0.130767 -0.036924
vn 0.998423 -0.055640 0.007454
vn 0.962114 0.149595 -0.227942
vn 0.957527 0.165974 -0.235785
vn 0.963485 0.170830 -0.206189
vn 0.974625 0.176487 -0.137689
vn 0.981528 0.180879 -0.062341
vn 0.985516 0.166849 -0.030341
vn 0.955383 0.190683 -0.225573
vn 0.972673 0.157784 -0.170329
vn 0.975677 0.168802 -0.139856
vn 0.980142 0.174253 -0.094640
vn 0.968918 0.240178 -0.059272
vn 0.964531 0.260105 -0.044992
vn 0.999766 -0.017823 0.012299
vn 0.999472 -0.032067 -0.005184
vn 0.999640 -0.023467 -0.012977
vn 0.999143 0.033830 -0.023861
vn 0.992736 0.117142 -0.027444
vn 0.970578 0.240463 -0.012491
vn -0.996843 0.078526 0.011692
vn -0.997571 0.069642 -0.001219
vn -0.997638 0.068680 -0.001303
vn -0.998364 0.056441 0.009166
vn -0.998231 0.059429 -0.001975
vn -0.997900 0.064645 -0.004135
vn -0.998240 0.059279 0.001861
vn -0.997907 0.064558 0.003849
vn -0.995208 0.097661 0.004900
vn -0.992104 0.123665 0.020879
vn -0.977434 0.211163 0.005676
vn -0.880277 0.118560 0.459408
vn -0.999617 0.026358 -0.008483
vn -0.999933 0.011452 0.001917
vn -0.999471 0.031438 -0.008301
vn -0.999493 0.030688 0.008433
vn -0.987761 0.026414 0.153719
vn -0.732587 0.005439 0.680652
vn -0.999914 -0.000026 -0.013140
vn -1.000000 0.000000 -0.000000
vn -0.999944 -0.000230 -0.010575
vn -0.999940 -0.000432 0.010984
vn -0.984443 -0.001113 0.175702
vn -0.730803 -0.003870 0.682577
vn -0.999915 -0.010668 -0.007444
vn -0.999994 -0.002404 0.002295
vn -0.999870 -0.016094 0.000323
vn -0.999630 -0.020489 0.017901
vn -0.998641 -0.043238 0.029083
vn -0.801440 -0.024570 0.597570
vn -0.998932 -0.045391 0.008603
vn -0.999117 -0.030400 0.029013
vn -0.998406 -0.053536 0.017871
vn -0.998453 -0.049096 0.026098
vn -0.997800 -0.061485 0.024816
vn -0.993015 -0.117723 0.007921
s 1
g pCube549
usemtl initialShadingGroup
f 1/1/1 2/2/2 8/8/3 7/7/4
f 2/2/2 3/3/5 9/9/6 8/8/3
f 3/3/5 4/4/7 10/10/8 9/9/6
f 4/4/7 5/5/9 11/11/10 10/10/8
f 5/5/9 6/6/11 12/12/12 11/11/10
f 7/7/4 8/8/3 14/14/13 13/13/14
f 8/8/3 9/9/6 15/15/15 14/14/13
f 9/9/6 10/10/8 16/16/16 15/15/15
f 10/10/8 11/11/10 17/17/17 16/16/16
f 11/11/10 12/12/12 18/18/18 17/17/17
f 13/13/14 14/14/13 20/20/19 19/19/20
f 14/14/13 15/15/15 21/21/21 20/20/19
f 15/15/15 16/16/16 22/22/22 21/21/21
f 16/16/16 17/17/17 23/23/23 22/22/22
f 17/17/17 18/18/18 24/24/24 23/23/23
f 19/19/20 20/20/19 26/26/25 25/25/26
f 20/20/19 21/21/21 27/27/27 26/26/25
f 21/21/21 22/22/22 28/28/28 27/27/27
f 22/22/22 23/23/23 29/29/29 28/28/28
f 23/23/23 24/24/24 30/30/30 29/29/29
f 25/25/26 26/26/25 32/32/31 31/31/32
f 26/26/25 27/27/27 33/33/33 32/32/31
f 27/27/27 28/28/28 34/34/34 33/33/33
f 28/28/28 29/29/29 35/35/35 34/34/34
f 29/29/29 30/30/30 36/36/36 35/35/35
s 2
f 31/31/37 32/32/38 38/38/39 37/37/40
f 32/32/38 33/33/41 39/39/42 38/38/39
f 33/33/41 34/34/43 40/40/44 39/39/42
f 34/34/43 35/35/45 41/41/46 40/40/44
f 35/35/45 36/36/47 42/42/48 41/41/46
f 37/37/40 38/38/39 44/44/49 43/43/50
f 38/38/39 39/39/42 45/45/51 44/44/49
f 39/39/42 40/40/44 46/46/52 45/45/51
f 40/40/44 41/41/46 47/47/53 46/46/52
f 41/41/46 42/42/48 48/48/54 47/47/53
f 43/43/50 44/44/49 50/50/55 49/49/56
f 44/44/49 45/45/51 51/51/57 50/50/55
f 45/45/51 46/46/52 52/52/58 51/51/57
f 46/46/52 47/47/53 53/53/59 52/52/58
f 47/47/53 48/48/54 54/54/60 53/53/59
f 49/49/56 50/50/55 56/56/61 55/55/62
f 50/50/55 51/51/57 57/57/63 56/56/61
f 51/51/57 52/52/58 58/58/64 57/57/63
f 52/52/58 53/53/59 59/59/65 58/58/64
f 53/53/59 54/54/60 60/60/66 59/59/65
f 55/55/62 56/56/61 62/62/67 61/61/68
f 56/56/61 57/57/63 63/63/69 62/62/67
f 57/57/63 58/58/64 64/64/70 63/63/69
f 58/58/64 59/59/65 65/65/71 64/64/70
f 59/59/65 60/60/66 66/66/72 65/65/71
s 3
f 61/61/73 62/62/74 68/68/75 67/67/76
f 62/62/74 63/63/77 69/69/78 68/68/75
f 63/63/77 64/64/79 70/70/80 69/69/78
f 64/64/79 65/65/81 71/71/82 70/70/80
f 65/65/81 66/66/83 72/72/84 71/71/82
f 67/67/76 68/68/75 74/74/85 73/73/86
f 68/68/75 69/69/78 75/75/87 74/74/85
f 69/69/78 70/70/80 76/76/88 75/75/87
f 70/70/80 71/71/82 77/77/89 76/76/88
f 71/71/82 72/72/84 78/78/90 77/77/89
f 73/73/86 74/74/85 80/80/91 79/79/92
f 74/74/85 75/75/87 81/81/93 80/80/91
f 75/75/87 76/76/88 82/82/94 81/81/93
f 76/76/88 77/77/89 83/83/95 82/82/94
f 77/77/89 78/78/90 84/84/96 83/83/95
f 79/79/92 80/80/91 86/86/97 85/85/98
f 80/80/91 81/81/93 87/87/99 86/86/97
f 81/81/93 82/82/94 88/88/100 87/87/99
f 82/82/94 83/83/95 89/89/101 88/88/100
f 83/83/95 84/84/96 90/90/102 89/89/101
f 85/85/98 86/86/97 92/92/103 91/91/104
f 86/86/97 87/87/99 93/93/105 92/92/103
f 87/87/99 88/88/100 94/94/106 93/93/105
f 88/88/100 89/89/101 95/95/107 94/94/106
f 89/89/101 90/90/102 96/96/108 95/95/107
s 4
f 91/91/109 92/92/110 98/98/111 97/97/112
f 92/92/110 93/93/113 99/99/114 98/98/111
f 93/93/113 94/94/115 100/100/116 99/99/114
f 94/94/115 95/95/117 101/101/118 100/100/116
f 95/95/117 96/96/119 102/102/120 101/101/118
f 97/97/112 98/98/111 104/104/121 103/103/122
f 98/98/111 99/99/114 105/105/123 104/104/121
f 99/99/114 100/100/116 106/106/124 105/105/123
f 100/100/116 101/101/118 107/107/125 106/106/124
f 101/101/118 102/102/120 108/108/126 107/107/125
f 103/103/122 104/104/121 110/110/127 109/109/128
f 104/104/121 105/105/123 111/111/129 110/110/127
f 105/105/123 106/106/124 112/112/130 111/111/129
f 106/106/124 107/107/125 113/113/131 112/112/130
f 107/107/125 108/108/126 114/114/132 113/113/131
f 109/109/128 110/110/127 116/116/133 115/115/134
f 110/110/127 111/111/129 117/117/135 116/116/133
f 111/111/129 112/112/130 118/118/136 117/117/135
f 112/112/130 113/113/131 119/119/137 118/118/136
f 113/113/131 114/114/132 120/120/138 119/119/137
f 115/115/134 116/116/133 2/122/139 1/121/140
f 116/116/133 117/117/135 3/123/141 2/122/139
f 117/117/135 118/118/136 4/124/142 3/123/141
f 118/118/136 119/119/137 5/125/143 4/124/142
f 119/119/137 120/120/138 6/126/144 5/125/143
s 5
f 102/128/145 96/127/146 90/132/147 121/133/148
f 108/129/149 102/128/145 121/133/148 122/134/150
f 114/130/151 108/129/149 122/134/150 123/135/152
f 120/131/153 114/130/151 123/135/152 124/136/154
f 6/6/155 120/131/153 124/136/154 12/12/156
f 121/133/148 90/132/147 84/137/157 125/138/158
f 122/134/150 121/133/148 125/138/158 126/139/159
f 123/135/152 122/134/150 126/139/159 127/140/160
f 124/136/154 123/135/152 127/140/160 128/141/161
f 12/12/156 124/136/154 128/141/161 18/18/162
f 125/138/158 84/137/157 78/142/163 129/143/164
f 126/139/159 125/138/158 129/143/164 130/144/165
f 127/140/160 126/139/159 130/144/165 131/145/166
f 128/141/161 127/140/160 131/145/166 132/146/167
f 18/18/162 128/141/161 132/146/167 24/24/168
f 129/143/164 78/142/163 72/147/169 133/148/170
f 130/144/165 129/143/164 133/148/170 134/149/171
f 131/145/166 130/144/165 134/149/171 135/150/172
f 132/146/167 131/145/166 135/150/172 136/151/173
f 24/24/168 132/146/167 136/151/173 30/30/174
f 133/148/170 72/147/169 66/152/175 60/153/176
f 134/149/171 133/148/170 60/153/176 54/154/177
f 135/150/172 134/149/171 54/154/177 48/155/178
f 136/151/173 135/150/172 48/155/178 42/156/179
f 30/30/174 136/151/173 42/156/179 36/36/180
s 6
f 91/157/181 97/158/182 137/163/183 85/162/184
f 97/158/182 103/159/185 138/164/186 137/163/183
f 103/159/185 109/160/187 139/165/188 138/164/186
f 109/160/187 115/161/189 140/166/190 139/165/188
f 115/161/189 1/1/191 7/7/192 140/166/190
f 85/162/184 137/163/183 141/168/193 79/167/194
f 137/163/183 138/164/186 142/169/195 141/168/193
f 138/164/186 139/165/188 143/170/196 142/169/195
f 139/165/188 140/166/190 144/171/197 143/170/196
f 140/166/190 7/7/192 13/13/198 144/171/197
f 79/167/194 141/168/193 145/173/199 73/172/200
f 141/168/193 142/169/195 146/174/201 145/173/199
f 142/169/195 143/170/196 147/175/202 146/174/201
f 143/170/196 144/171/197 148/176/203 147/175/202
f 144/171/197 13/13/198 19/19/204 148/176/203
f 73/172/200 145/173/199 149/178/205 67/177/206
f 145/173/199 146/174/201 150/179/207 149/178/205
f 146/174/201 147/175/202 151/180/208 150/179/207
f 147/175/202 148/176/203 152/181/209 151/180/208
f 148/176/203 19/19/204 25/25/210 152/181/209
f 67/177/206 149/178/205 55/183/211 61/182/212
f 149/178/205 150/179/207 49/184/213 55/183/211
f 150/179/207 151/180/208 43/185/214 49/184/213
f 151/180/208 152/181/209 37/186/215 43/185/214
f 152/181/209 25/25/210 31/31/216 37/186/215
