# This file uses centimeters as units for non-parametric coordinates.

mtllib Rune Rock 3.mtl
g default
v -1.980924 16.273711 335.303142
v -2.239088 15.885431 335.263328
v -2.511749 15.729245 335.232534
v -2.787145 15.729245 335.205424
v -3.069108 15.885431 335.181622
v -3.444350 16.273711 335.159084
v -2.083021 16.666571 335.500709
v -2.253371 16.337039 335.282571
v -2.524103 16.185017 335.245483
v -2.828442 16.185017 335.215524
v -3.180035 16.337039 335.191351
v -3.563035 16.666571 335.159424
v -2.044132 16.934502 335.514892
v -2.284663 16.934817 335.301143
v -2.609134 16.844966 335.262293
v -2.961533 16.844966 335.208684
v -3.308868 16.932661 335.142565
v -3.613303 17.080471 335.046988
v -1.877403 17.043992 335.538372
v -1.973579 17.340442 335.322651
v -2.369103 17.675952 335.183847
v -2.961464 17.864255 335.013076
v -3.309394 17.754996 334.938052
v -3.599766 17.632298 334.909468
v -2.001844 18.498934 335.596492
v -2.096962 18.774901 335.341762
v -2.613370 18.999408 335.218388
v -2.846378 18.862461 335.073562
v -3.068832 18.506832 334.962555
v -3.465808 18.471815 334.922654
v -1.864105 18.636013 335.375929
v -1.985281 18.947810 335.348487
v -2.408170 19.322454 335.282178
v -2.856732 19.438503 335.169703
v -3.069085 19.123390 335.044258
v -3.333676 18.516563 334.958559
v -1.862682 19.044307 335.569533
v -1.884299 19.413205 335.518695
v -2.030855 19.624015 335.518651
v -2.568221 19.985777 335.492739
v -3.100591 19.694631 335.452742
v -3.321149 19.230880 335.292614
v -1.922003 19.081359 335.804445
v -1.896594 19.456928 335.735869
v -1.916136 19.607969 335.741200
v -2.257366 20.030633 335.745753
v -2.988335 20.234456 335.720078
v -3.364149 19.657667 335.639073
v -2.025530 19.015916 336.176867
v -1.952917 19.579501 336.054780
v -1.959165 19.721827 336.040657
v -2.294317 20.178085 336.021235
v -3.006184 20.480626 335.994963
v -3.397633 19.837879 335.956001
v -2.069633 18.714427 336.515179
v -1.988494 19.748350 336.357973
v -2.046248 20.053593 336.301935
v -2.486238 20.478736 336.293661
v -3.062302 20.456853 336.270141
v -3.510773 19.522447 336.391996
v -2.202619 18.682529 336.918947
v -2.359199 19.081274 337.040002
v -2.603305 19.744195 336.782960
v -3.000349 19.794859 336.764941
v -3.413112 19.474709 336.910265
v -3.612361 18.866034 336.784638
v -2.185588 18.228044 336.752730
v -2.538590 18.782569 337.083312
v -2.859748 19.032680 337.199818
v -3.257726 19.079314 337.185181
v -3.474395 18.870749 337.004887
v -3.484519 18.419194 336.580733
v -2.273687 17.238350 336.987068
v -2.505048 17.330725 337.117043
v -2.900493 17.523875 337.289632
v -3.307905 17.701801 337.340180
v -3.544366 17.742429 337.272950
v -3.680024 17.727514 337.073942
v -2.285314 17.002477 336.911813
v -2.734582 16.896144 337.268581
v -3.088410 16.750286 337.545871
v -3.366680 16.707290 337.670033
v -3.583913 16.785567 337.612466
v -3.685217 16.994220 337.334664
v -2.314166 16.660639 336.938747
v -2.709110 16.291685 337.263607
v -3.084955 16.092755 337.563771
v -3.369551 16.049656 337.687674
v -3.575737 16.179690 337.625977
v -3.708238 16.509222 337.370700
v -2.285492 16.266091 336.942016
v -2.666232 15.861083 337.171340
v -2.941595 15.685981 337.207110
v -3.222559 15.657649 337.272246
v -3.532345 15.773480 337.419500
v -3.723272 16.135032 337.350862
v -2.148675 15.884802 336.508264
v -2.375962 15.394587 336.411551
v -2.627224 15.204661 336.345647
v -2.899083 15.203665 336.315586
v -3.198410 15.376343 336.377236
v -3.584982 15.800137 336.729881
v -2.046215 15.729245 336.119223
v -2.317488 15.204661 336.085919
v -2.593018 14.998289 336.058796
v -2.868547 14.998289 336.031673
v -3.144077 15.204661 336.004550
v -3.433749 15.693543 336.105570
v -2.015175 15.729245 335.837546
v -2.290365 15.204661 335.810389
v -2.565895 14.998289 335.783266
v -2.841425 14.998289 335.756143
v -3.116954 15.204661 335.729021
v -3.395563 15.719334 335.736599
v -1.992213 15.885431 335.564114
v -2.263242 15.394587 335.534859
v -2.538772 15.204661 335.507736
v -2.814302 15.204661 335.480614
v -3.089832 15.394587 335.453491
v -3.380619 15.884982 335.429023
v -3.646928 16.216379 336.900639
v -3.513048 16.109942 336.278656
v -3.483702 16.155921 335.798376
v -3.516204 16.332688 335.441817
v -3.690770 16.812882 336.903100
v -3.630640 16.758250 336.283626
v -3.655075 16.810048 335.796083
v -3.646855 16.925179 335.387833
v -3.670270 17.744638 336.652018
v -3.611590 17.695712 336.019772
v -3.632116 17.616449 335.527092
v -3.627661 17.636609 335.192850
v -3.568121 18.982176 336.482966
v -3.447295 19.271137 336.014573
v -3.361874 19.079179 335.572800
v -3.368333 18.608267 335.245570
v -2.173489 16.331377 336.517688
v -2.070081 16.184567 336.132517
v -2.029481 16.185017 335.838971
v -2.013871 16.337039 335.574371
v -2.196309 16.845916 336.536056
v -2.091615 16.786919 336.136420
v -2.049775 16.806579 335.842190
v -2.025729 16.876654 335.586195
v -2.061633 16.977906 336.510513
v -1.945940 16.865417 336.140842
v -1.904759 16.914767 335.856569
v -1.880095 17.011108 335.606010
v -1.993261 18.434240 336.429785
v -1.955122 18.452769 336.082244
v -1.914875 18.634286 335.826389
v -1.878922 18.510192 335.594125
vt 0.375000 0.000000
vt 0.425000 0.000000
vt 0.475000 0.000000
vt 0.525000 0.000000
vt 0.575000 0.000000
vt 0.625000 0.000000
vt 0.375000 0.050000
vt 0.425000 0.050000
vt 0.475000 0.050000
vt 0.525000 0.050000
vt 0.575000 0.050000
vt 0.625000 0.050000
vt 0.375000 0.100000
vt 0.425000 0.100000
vt 0.475000 0.100000
vt 0.525000 0.100000
vt 0.575000 0.100000
vt 0.625000 0.100000
vt 0.375000 0.150000
vt 0.425000 0.150000
vt 0.475000 0.150000
vt 0.525000 0.150000
vt 0.575000 0.150000
vt 0.625000 0.150000
vt 0.375000 0.200000
vt 0.425000 0.200000
vt 0.475000 0.200000
vt 0.525000 0.200000
vt 0.575000 0.200000
vt 0.625000 0.200000
vt 0.375000 0.250000
vt 0.425000 0.250000
vt 0.475000 0.250000
vt 0.525000 0.250000
vt 0.575000 0.250000
vt 0.625000 0.250000
vt 0.375000 0.300000
vt 0.425000 0.300000
vt 0.475000 0.300000
vt 0.525000 0.300000
vt 0.575000 0.300000
vt 0.625000 0.300000
vt 0.375000 0.350000
vt 0.425000 0.350000
vt 0.475000 0.350000
vt 0.525000 0.350000
vt 0.575000 0.350000
vt 0.625000 0.350000
vt 0.375000 0.400000
vt 0.425000 0.400000
vt 0.475000 0.400000
vt 0.525000 0.400000
vt 0.575000 0.400000
vt 0.625000 0.400000
vt 0.375000 0.450000
vt 0.425000 0.450000
vt 0.475000 0.450000
vt 0.525000 0.450000
vt 0.575000 0.450000
vt 0.625000 0.450000
vt 0.375000 0.500000
vt 0.425000 0.500000
vt 0.475000 0.500000
vt 0.525000 0.500000
vt 0.575000 0.500000
vt 0.625000 0.500000
vt 0.375000 0.550000
vt 0.425000 0.550000
vt 0.475000 0.550000
vt 0.525000 0.550000
vt 0.575000 0.550000
vt 0.625000 0.550000
vt 0.375000 0.600000
vt 0.425000 0.600000
vt 0.475000 0.600000
vt 0.525000 0.600000
vt 0.575000 0.600000
vt 0.625000 0.600000
vt 0.375000 0.650000
vt 0.425000 0.650000
vt 0.475000 0.650000
vt 0.525000 0.650000
vt 0.575000 0.650000
vt 0.625000 0.650000
vt 0.375000 0.700000
vt 0.425000 0.700000
vt 0.475000 0.700000
vt 0.525000 0.700000
vt 0.575000 0.700000
vt 0.625000 0.700000
vt 0.375000 0.750000
vt 0.425000 0.750000
vt 0.475000 0.750000
vt 0.525000 0.750000
vt 0.575000 0.750000
vt 0.625000 0.750000
vt 0.375000 0.800000
vt 0.425000 0.800000
vt 0.475000 0.800000
vt 0.525000 0.800000
vt 0.575000 0.800000
vt 0.625000 0.800000
vt 0.375000 0.850000
vt 0.425000 0.850000
vt 0.475000 0.850000
vt 0.525000 0.850000
vt 0.575000 0.850000
vt 0.625000 0.850000
vt 0.375000 0.900000
vt 0.425000 0.900000
vt 0.475000 0.900000
vt 0.525000 0.900000
vt 0.575000 0.900000
vt 0.625000 0.900000
vt 0.375000 0.950000
vt 0.425000 0.950000
vt 0.475000 0.950000
vt 0.525000 0.950000
vt 0.575000 0.950000
vt 0.625000 0.950000
vt 0.375000 1.000000
vt 0.425000 1.000000
vt 0.475000 1.000000
vt 0.525000 1.000000
vt 0.575000 1.000000
vt 0.625000 1.000000
vt 0.875000 0.000000
vt 0.825000 0.000000
vt 0.775000 0.000000
vt 0.725000 0.000000
vt 0.675000 0.000000
vt 0.875000 0.050000
vt 0.825000 0.050000
vt 0.775000 0.050000
vt 0.725000 0.050000
vt 0.675000 0.050000
vt 0.875000 0.100000
vt 0.825000 0.100000
vt 0.775000 0.100000
vt 0.725000 0.100000
vt 0.675000 0.100000
vt 0.875000 0.150000
vt 0.825000 0.150000
vt 0.775000 0.150000
vt 0.725000 0.150000
vt 0.675000 0.150000
vt 0.875000 0.200000
vt 0.825000 0.200000
vt 0.775000 0.200000
vt 0.725000 0.200000
vt 0.675000 0.200000
vt 0.875000 0.250000
vt 0.825000 0.250000
vt 0.775000 0.250000
vt 0.725000 0.250000
vt 0.675000 0.250000
vt 0.125000 0.000000
vt 0.175000 0.000000
vt 0.225000 0.000000
vt 0.275000 0.000000
vt 0.325000 0.000000
vt 0.125000 0.050000
vt 0.175000 0.050000
vt 0.225000 0.050000
vt 0.275000 0.050000
vt 0.325000 0.050000
vt 0.125000 0.100000
vt 0.175000 0.100000
vt 0.225000 0.100000
vt 0.275000 0.100000
vt 0.325000 0.100000
vt 0.125000 0.150000
vt 0.175000 0.150000
vt 0.225000 0.150000
vt 0.275000 0.150000
vt 0.325000 0.150000
vt 0.125000 0.200000
vt 0.175000 0.200000
vt 0.225000 0.200000
vt 0.275000 0.200000
vt 0.325000 0.200000
vt 0.125000 0.250000
vt 0.175000 0.250000
vt 0.225000 0.250000
vt 0.275000 0.250000
vt 0.325000 0.250000
vn 0.133419 0.263663 -0.955343
vn 0.109685 0.087621 -0.990097
vn 0.181190 0.110147 -0.977260
vn 0.629904 0.068326 -0.773662
vn 0.099729 0.033844 -0.994439
vn 0.110863 0.033654 -0.993266
vn 0.096299 0.033334 -0.994794
vn 0.111655 0.022400 -0.993495
vn 0.096571 0.038230 -0.994592
vn 0.111257 -0.005443 -0.993777
vn 0.111136 0.042057 -0.992915
vn 0.088355 -0.113995 -0.989545
vn 0.304456 -0.103968 -0.946835
vn 0.630382 -0.254105 -0.733518
vn 0.166985 -0.085752 -0.982223
vn 0.170588 -0.114080 -0.978716
vn 0.158570 -0.167627 -0.973014
vn 0.162603 -0.215008 -0.962981
vn 0.691121 0.001622 -0.722737
vn 0.846104 -0.148105 -0.512029
vn 0.281968 -0.014992 -0.959307
vn 0.286040 -0.062321 -0.956189
vn 0.180101 -0.115921 -0.976794
vn 0.155410 -0.147839 -0.976725
vn 0.386505 0.023984 -0.921975
vn 0.943049 0.062819 -0.326668
vn 0.322865 0.059884 -0.944548
vn 0.343231 0.074129 -0.936321
vn 0.225683 0.021494 -0.973963
vn 0.095245 0.008848 -0.995414
vn 0.146794 -0.074438 -0.986362
vn -0.155100 -0.473357 -0.867109
vn 0.270932 0.046229 -0.961488
vn 0.333751 0.105120 -0.936782
vn 0.267979 0.146630 -0.952201
vn 0.021145 0.170966 -0.985050
vn 0.845775 0.117575 -0.520424
vn 0.635704 0.193854 -0.747196
vn 0.667391 0.243852 -0.703651
vn 0.951635 0.087234 -0.294585
vn 0.314183 0.325705 -0.891743
vn 0.444657 0.427140 -0.787294
vn -0.069099 0.511315 -0.856611
vn 0.138508 0.565683 -0.812907
vn -0.495261 0.449235 -0.743576
vn -0.383228 0.546047 -0.744962
vn -0.543224 0.413903 -0.730474
vn -0.544719 0.423620 -0.723759
vn 0.989387 0.044390 0.138357
vn 0.977698 -0.033324 0.207357
vn 0.799889 0.530839 -0.279979
vn 0.493024 0.715232 -0.495348
vn -0.239963 0.728609 -0.641519
vn -0.629411 0.493840 -0.599970
vn 0.989507 -0.032152 0.140861
vn 0.988020 -0.071531 0.136745
vn 0.878148 0.463380 -0.118891
vn 0.518586 0.749256 -0.411927
vn -0.374823 0.850682 -0.368576
vn -0.849177 0.500015 -0.169949
vn 0.778308 0.255554 0.573523
vn 0.918927 0.034266 0.392937
vn 0.595017 0.587661 0.548279
vn 0.231137 0.811300 0.536999
vn -0.504790 0.757615 0.413771
vn -0.902036 0.395858 0.172128
vn 0.812831 0.164615 0.558755
vn 0.890756 0.058278 0.450730
vn 0.381375 0.464976 0.798968
vn -0.001091 0.573783 0.819006
vn -0.819751 0.456045 0.346455
vn -0.902667 0.378401 0.204952
vn 0.372563 -0.227137 0.899781
vn 0.291705 0.202664 0.934792
vn 0.417563 0.055492 0.906952
vn 0.647423 0.048345 0.760596
vn 0.089131 0.451593 0.887761
vn 0.167910 0.212992 0.962518
vn -0.043210 0.491585 0.869757
vn -0.130563 0.268594 0.954364
vn -0.453849 0.369533 0.810843
vn -0.739478 0.161254 0.653582
vn -0.841426 -0.108354 0.529397
vn -0.978583 0.160443 0.128969
vn 0.554721 0.045309 0.830802
vn 0.641521 0.014628 0.766966
vn 0.312879 0.107248 0.943718
vn -0.049178 0.180294 0.982383
vn -0.742843 0.232091 0.627948
vn -0.958708 0.190382 0.211265
vn 0.575482 0.046326 0.816501
vn 0.606439 -0.038277 0.794208
vn 0.447118 0.131024 0.884826
vn 0.112045 0.176794 0.977849
vn -0.547124 0.195551 0.813889
vn -0.858275 0.164415 0.486140
vn 0.607497 -0.051255 0.792666
vn 0.617561 0.002544 0.786519
vn 0.494162 -0.203594 0.845194
vn 0.125277 -0.325766 0.937114
vn -0.582140 -0.169766 0.795168
vn -0.897216 -0.008751 0.441506
vn 0.583086 -0.198237 0.787853
vn 0.603021 -0.033674 0.797014
vn 0.474795 -0.421181 0.772772
vn 0.209679 -0.617399 0.758190
vn -0.374343 -0.555702 0.742336
vn -0.856161 -0.172372 0.487111
vn 0.725664 -0.411140 0.551703
vn 0.603743 -0.555615 0.571652
vn 0.640268 -0.560110 0.525675
vn 0.744375 -0.419636 0.519433
vn 0.248616 -0.810164 0.530872
vn 0.270761 -0.791037 0.548589
vn -0.213056 -0.914475 0.344009
vn -0.164431 -0.883687 0.438246
vn -0.700380 -0.706116 0.104253
vn -0.613316 -0.774187 0.156456
vn -0.798499 -0.600813 0.037723
vn -0.799393 -0.599983 0.031485
vn 0.738630 -0.607787 0.291582
vn 0.844326 -0.458304 0.277617
vn 0.278161 -0.901071 0.332713
vn -0.322664 -0.910523 0.258526
vn -0.751119 -0.658603 0.045414
vn -0.829356 -0.557481 -0.037185
vn 0.774558 -0.619121 -0.129419
vn 0.882496 -0.463844 -0.077778
vn 0.337872 -0.899411 -0.277314
vn -0.277314 -0.899411 -0.337872
vn -0.735904 -0.617953 -0.276730
vn -0.846111 -0.477066 -0.237708
vn 0.663996 -0.511958 -0.544985
vn 0.773978 -0.412564 -0.480363
vn 0.280231 -0.620001 -0.732850
vn -0.131427 -0.620079 -0.773452
vn -0.548184 -0.528378 -0.648314
vn -0.642469 -0.469080 -0.605969
vn 0.622059 -0.412564 -0.665457
vn 0.713825 -0.383660 -0.585883
vn 0.251010 -0.464589 -0.849206
vn -0.079237 -0.465799 -0.881336
vn -0.455142 -0.463913 -0.760020
vn -0.552956 -0.456428 -0.697075
vn -0.977110 -0.066909 -0.201939
vn -0.985252 -0.017430 -0.170218
vn -0.996385 -0.019935 -0.082580
vn -0.986810 -0.072552 -0.144714
vn -0.981335 -0.131892 -0.139951
vn -0.982059 -0.142610 -0.123378
vn -0.976116 -0.195878 -0.093967
vn -0.974805 -0.214190 -0.062266
vn -0.962619 -0.245931 -0.113505
vn -0.963222 -0.247034 -0.105720
vn -0.942207 -0.282195 -0.180586
vn -0.966529 -0.213174 -0.142753
vn -0.999756 0.001746 -0.022013
vn -0.996512 -0.032946 -0.076664
vn -0.995529 -0.067702 -0.065872
vn -0.996506 -0.083497 -0.001923
vn -0.994305 -0.087309 -0.061112
vn -0.993226 -0.046046 -0.106689
vn -0.995010 0.064267 0.076326
vn -0.996975 0.063819 -0.044354
vn -0.993237 0.075712 -0.088018
vn -0.991343 0.113965 -0.065196
vn -0.988753 0.137838 -0.058034
vn -0.990925 0.134340 0.004615
vn -0.908649 0.233297 0.346309
vn -0.987864 0.061350 -0.142693
vn -0.984242 0.093429 -0.150130
vn -0.985164 0.121248 -0.121456
vn -0.970483 0.213521 -0.112121
vn -0.975106 0.220238 0.025770
vn -0.985062 -0.051549 -0.164303
vn -0.977396 0.054967 -0.204145
vn -0.980531 0.052409 -0.189239
vn -0.985374 0.042993 -0.164892
vn -0.990061 0.065337 -0.124541
vn -0.939238 0.277485 -0.202075
vn 0.962894 0.059305 0.263284
vn 0.967711 0.050288 0.246995
vn 0.965907 0.039634 0.255837
vn 0.961496 0.015763 0.274367
vn 0.982501 0.042957 0.181235
vn 0.980039 0.038573 0.195027
vn 0.992965 0.039041 0.111787
vn 0.992910 0.034827 0.113654
vn 0.994104 0.055892 0.092918
vn 0.994454 0.066948 0.081115
vn 0.988266 0.122313 0.091492
vn 0.955616 0.047367 -0.290784
vn 0.938262 -0.135551 0.318261
vn 0.906670 -0.186865 0.378195
vn 0.963020 -0.158338 0.217995
vn 0.983893 -0.162853 0.073712
vn 0.965532 -0.210256 -0.153426
vn 0.778959 -0.297559 -0.551980
vn 0.940617 -0.081732 0.329485
vn 0.890118 -0.027186 0.454919
vn 0.975871 -0.103904 0.192042
vn 0.989097 -0.087084 0.118758
vn 0.996837 -0.071630 -0.034413
vn 0.506468 -0.038516 -0.861398
vn 0.954431 0.012257 0.298178
vn 0.895985 -0.002345 0.444077
vn 0.982509 0.019563 0.185182
vn 0.984261 0.018737 0.175722
vn 0.999828 -0.015270 -0.010501
vn 0.684695 -0.050198 -0.727099
vn 0.955324 0.057992 0.289814
vn 0.915123 -0.021536 0.402599
vn 0.972035 0.086235 0.218428
vn 0.973827 0.032460 0.224959
vn 0.985739 -0.032111 0.165189
vn 0.965008 -0.250131 -0.078705
s 1
g pCube570
usemtl initialShadingGroup
f 1/1/1 2/2/2 8/8/3 7/7/4
f 2/2/2 3/3/5 9/9/6 8/8/3
f 3/3/5 4/4/7 10/10/8 9/9/6
f 4/4/7 5/5/9 11/11/10 10/10/8
f 5/5/9 6/6/11 12/12/12 11/11/10
f 7/7/4 8/8/3 14/14/13 13/13/14
f 8/8/3 9/9/6 15/15/15 14/14/13
f 9/9/6 10/10/8 16/16/16 15/15/15
f 10/10/8 11/11/10 17/17/17 16/16/16
f 11/11/10 12/12/12 18/18/18 17/17/17
f 13/13/14 14/14/13 20/20/19 19/19/20
f 14/14/13 15/15/15 21/21/21 20/20/19
f 15/15/15 16/16/16 22/22/22 21/21/21
f 16/16/16 17/17/17 23/23/23 22/22/22
f 17/17/17 18/18/18 24/24/24 23/23/23
f 19/19/20 20/20/19 26/26/25 25/25/26
f 20/20/19 21/21/21 27/27/27 26/26/25
f 21/21/21 22/22/22 28/28/28 27/27/27
f 22/22/22 23/23/23 29/29/29 28/28/28
f 23/23/23 24/24/24 30/30/30 29/29/29
f 25/25/26 26/26/25 32/32/31 31/31/32
f 26/26/25 27/27/27 33/33/33 32/32/31
f 27/27/27 28/28/28 34/34/34 33/33/33
f 28/28/28 29/29/29 35/35/35 34/34/34
f 29/29/29 30/30/30 36/36/36 35/35/35
s 2
f 31/31/37 32/32/38 38/38/39 37/37/40
f 32/32/38 33/33/41 39/39/42 38/38/39
f 33/33/41 34/34/43 40/40/44 39/39/42
f 34/34/43 35/35/45 41/41/46 40/40/44
f 35/35/45 36/36/47 42/42/48 41/41/46
f 37/37/40 38/38/39 44/44/49 43/43/50
f 38/38/39 39/39/42 45/45/51 44/44/49
f 39/39/42 40/40/44 46/46/52 45/45/51
f 40/40/44 41/41/46 47/47/53 46/46/52
f 41/41/46 42/42/48 48/48/54 47/47/53
f 43/43/50 44/44/49 50/50/55 49/49/56
f 44/44/49 45/45/51 51/51/57 50/50/55
f 45/45/51 46/46/52 52/52/58 51/51/57
f 46/46/52 47/47/53 53/53/59 52/52/58
f 47/47/53 48/48/54 54/54/60 53/53/59
f 49/49/56 50/50/55 56/56/61 55/55/62
f 50/50/55 51/51/57 57/57/63 56/56/61
f 51/51/57 52/52/58 58/58/64 57/57/63
f 52/52/58 53/53/59 59/59/65 58/58/64
f 53/53/59 54/54/60 60/60/66 59/59/65
f 55/55/62 56/56/61 62/62/67 61/61/68
f 56/56/61 57/57/63 63/63/69 62/62/67
f 57/57/63 58/58/64 64/64/70 63/63/69
f 58/58/64 59/59/65 65/65/71 64/64/70
f 59/59/65 60/60/66 66/66/72 65/65/71
s 3
f 61/61/73 62/62/74 68/68/75 67/67/76
f 62/62/74 63/63/77 69/69/78 68/68/75
f 63/63/77 64/64/79 70/70/80 69/69/78
f 64/64/79 65/65/81 71/71/82 70/70/80
f 65/65/81 66/66/83 72/72/84 71/71/82
f 67/67/76 68/68/75 74/74/85 73/73/86
f 68/68/75 69/69/78 75/75/87 74/74/85
f 69/69/78 70/70/80 76/76/88 75/75/87
f 70/70/80 71/71/82 77/77/89 76/76/88
f 71/71/82 72/72/84 78/78/90 77/77/89
f 73/73/86 74/74/85 80/80/91 79/79/92
f 74/74/85 75/75/87 81/81/93 80/80/91
f 75/75/87 76/76/88 82/82/94 81/81/93
f 76/76/88 77/77/89 83/83/95 82/82/94
f 77/77/89 78/78/90 84/84/96 83/83/95
f 79/79/92 80/80/91 86/86/97 85/85/98
f 80/80/91 81/81/93 87/87/99 86/86/97
f 81/81/93 82/82/94 88/88/100 87/87/99
f 82/82/94 83/83/95 89/89/101 88/88/100
f 83/83/95 84/84/96 90/90/102 89/89/101
f 85/85/98 86/86/97 92/92/103 91/91/104
f 86/86/97 87/87/99 93/93/105 92/92/103
f 87/87/99 88/88/100 94/94/106 93/93/105
f 88/88/100 89/89/101 95/95/107 94/94/106
f 89/89/101 90/90/102 96/96/108 95/95/107
s 4
f 91/91/109 92/92/110 98/98/111 97/97/112
f 92/92/110 93/93/113 99/99/114 98/98/111
f 93/93/113 94/94/115 100/100/116 99/99/114
f 94/94/115 95/95/117 101/101/118 100/100/116
f 95/95/117 96/96/119 102/102/120 101/101/118
f 97/97/112 98/98/111 104/104/121 103/103/122
f 98/98/111 99/99/114 105/105/123 104/104/121
f 99/99/114 100/100/116 106/106/124 105/105/123
f 100/100/116 101/101/118 107/107/125 106/106/124
f 101/101/118 102/102/120 108/108/126 107/107/125
f 103/103/122 104/104/121 110/110/127 109/109/128
f 104/104/121 105/105/123 111/111/129 110/110/127
f 105/105/123 106/106/124 112/112/130 111/111/129
f 106/106/124 107/107/125 113/113/131 112/112/130
f 107/107/125 108/108/126 114/114/132 113/113/131
f 109/109/128 110/110/127 116/116/133 115/115/134
f 110/110/127 111/111/129 117/117/135 116/116/133
f 111/111/129 112/112/130 118/118/136 117/117/135
f 112/112/130 113/113/131 119/119/137 118/118/136
f 113/113/131 114/114/132 120/120/138 119/119/137
f 115/115/134 116/116/133 2/122/139 1/121/140
f 116/116/133 117/117/135 3/123/141 2/122/139
f 117/117/135 118/118/136 4/124/142 3/123/141
f 118/118/136 119/119/137 5/125/143 4/124/142
f 119/119/137 120/120/138 6/126/144 5/125/143
s 5
f 102/128/145 96/127/146 90/132/147 121/133/148
f 108/129/149 102/128/145 121/133/148 122/134/150
f 114/130/151 108/129/149 122/134/150 123/135/152
f 120/131/153 114/130/151 123/135/152 124/136/154
f 6/6/155 120/131/153 124/136/154 12/12/156
f 121/133/148 90/132/147 84/137/157 125/138/158
f 122/134/150 121/133/148 125/138/158 126/139/159
f 123/135/152 122/134/150 126/139/159 127/140/160
f 124/136/154 123/135/152 127/140/160 128/141/161
f 12/12/156 124/136/154 128/141/161 18/18/162
f 125/138/158 84/137/157 78/142/163 129/143/164
f 126/139/159 125/138/158 129/143/164 130/144/165
f 127/140/160 126/139/159 130/144/165 131/145/166
f 128/141/161 127/140/160 131/145/166 132/146/167
f 18/18/162 128/141/161 132/146/167 24/24/168
f 129/143/164 78/142/163 72/147/169 133/148/170
f 130/144/165 129/143/164 133/148/170 134/149/171
f 131/145/166 130/144/165 134/149/171 135/150/172
f 132/146/167 131/145/166 135/150/172 136/151/173
f 24/24/168 132/146/167 136/151/173 30/30/174
f 133/148/170 72/147/169 66/152/175 60/153/176
f 134/149/171 133/148/170 60/153/176 54/154/177
f 135/150/172 134/149/171 54/154/177 48/155/178
f 136/151/173 135/150/172 48/155/178 42/156/179
f 30/30/174 136/151/173 42/156/179 36/36/180
s 6
f 91/157/181 97/158/182 137/163/183 85/162/184
f 97/158/182 103/159/185 138/164/186 137/163/183
f 103/159/185 109/160/187 139/165/188 138/164/186
f 109/160/187 115/161/189 140/166/190 139/165/188
f 115/161/189 1/1/191 7/7/192 140/166/190
f 85/162/184 137/163/183 141/168/193 79/167/194
f 137/163/183 138/164/186 142/169/195 141/168/193
f 138/164/186 139/165/188 143/170/196 142/169/195
f 139/165/188 140/166/190 144/171/197 143/170/196
f 140/166/190 7/7/192 13/13/198 144/171/197
f 79/167/194 141/168/193 145/173/199 73/172/200
f 141/168/193 142/169/195 146/174/201 145/173/199
f 142/169/195 143/170/196 147/175/202 146/174/201
f 143/170/196 144/171/197 148/176/203 147/175/202
f 144/171/197 13/13/198 19/19/204 148/176/203
f 73/172/200 145/173/199 149/178/205 67/177/206
f 145/173/199 146/174/201 150/179/207 149/178/205
f 146/174/201 147/175/202 151/180/208 150/179/207
f 147/175/202 148/176/203 152/181/209 151/180/208
f 148/176/203 19/19/204 25/25/210 152/181/209
f 67/177/206 149/178/205 55/183/211 61/182/212
f 149/178/205 150/179/207 49/184/213 55/183/211
f 150/179/207 151/180/208 43/185/214 49/184/213
f 151/180/208 152/181/209 37/186/215 43/185/214
f 152/181/209 25/25/210 31/31/216 37/186/215
