# This file uses centimeters as units for non-parametric coordinates.

mtllib Rune Rock 1.mtl
g default
v -4.312047 16.273711 318.830104
v -4.151293 15.885431 318.624211
v -3.991335 15.729245 318.401263
v -3.833258 15.729245 318.174129
v -3.674863 15.885431 317.939650
v -3.472043 16.273711 317.623139
v -4.434651 16.666571 318.644564
v -4.161116 16.337039 318.602352
v -3.996607 16.185017 318.384160
v -3.821917 16.185017 318.133155
v -3.629213 16.337039 317.838085
v -3.414412 16.666571 317.519385
v -4.437223 17.151568 318.630219
v -4.159949 16.942915 318.562952
v -3.969777 16.844966 318.301740
v -3.750988 16.844966 318.020333
v -3.523751 16.932661 317.749450
v -3.291744 17.080471 317.530389
v -4.437223 17.986372 318.617905
v -4.143580 18.042780 318.555312
v -3.875830 17.983740 318.344582
v -3.574775 17.872353 318.107934
v -3.344996 17.754996 317.848810
v -3.178323 17.632298 317.609326
v -4.432712 18.971861 318.413414
v -4.116370 19.207501 318.397798
v -3.902317 19.036572 318.272190
v -3.689258 18.862461 318.186791
v -3.483796 18.506832 318.046813
v -3.255214 18.471815 317.719807
v -4.309141 19.486177 318.584949
v -4.133416 19.549306 318.394602
v -3.951940 19.519256 318.230529
v -3.758867 19.439908 318.111093
v -3.554983 19.123390 318.006714
v -3.351043 18.516563 317.817608
v -4.531070 19.868244 318.514511
v -4.377208 20.181154 318.389464
v -4.218342 20.160335 318.173694
v -4.060188 20.082536 317.968669
v -3.889819 19.694631 317.766517
v -3.648720 19.230880 317.665496
v -4.752919 20.040002 318.461563
v -4.603739 20.415571 318.305594
v -4.445586 20.453147 318.083280
v -4.287432 20.403282 317.857958
v -4.129278 20.234456 317.630714
v -3.930121 19.657667 317.458865
v -4.972926 19.974559 318.345634
v -4.830983 20.538144 318.154292
v -4.672830 20.564634 317.927048
v -4.514676 20.539668 317.699805
v -4.356522 20.480626 317.472561
v -4.187933 19.837879 317.279437
v -5.179670 19.542063 318.200032
v -5.054250 20.559725 317.995426
v -4.900073 20.664450 317.768895
v -4.741920 20.664011 317.541651
v -4.583053 20.456853 317.318384
v -4.424208 19.522447 317.130189
v -5.386616 18.893262 318.054234
v -5.245315 19.474709 317.840703
v -5.106705 19.794859 317.619715
v -4.953589 19.794859 317.399709
v -4.794512 19.474709 317.192964
v -4.642636 18.866034 316.986018
v -5.379079 18.438776 318.053658
v -5.231521 18.900875 317.841136
v -5.090303 19.097531 317.626856
v -4.941194 19.079314 317.412609
v -4.788844 18.870749 317.205575
v -4.641050 18.419194 316.989350
v -5.379079 17.801539 318.053658
v -5.236166 17.805766 317.838404
v -5.137679 17.754545 317.593561
v -5.060386 17.728826 317.324569
v -4.961186 17.742429 317.063742
v -4.840480 17.727514 316.825195
v -5.402033 17.143596 318.037683
v -5.366184 16.896144 317.747916
v -5.362154 16.750286 317.437461
v -5.334704 16.707290 317.133986
v -5.231622 16.785567 316.875528
v -5.082858 16.994220 316.661775
v -5.410504 16.660639 318.044343
v -5.387177 16.291685 317.749058
v -5.379464 16.092755 317.431740
v -5.348701 16.049656 317.122870
v -5.252187 16.179690 316.867353
v -5.088137 16.509222 316.651320
v -5.439672 16.266091 318.045316
v -5.350608 15.861083 317.789530
v -5.251572 15.685981 317.524183
v -5.175069 15.657649 317.240276
v -5.131303 15.773480 316.936463
v -5.047504 16.135032 316.677012
v -5.213651 15.884802 318.220079
v -5.058227 15.394587 317.996139
v -4.900073 15.204661 317.768895
v -4.744786 15.203665 317.539656
v -4.636295 15.376343 317.277849
v -4.671531 15.800137 316.921216
v -4.988890 15.729245 318.381299
v -4.830983 15.204661 318.154292
v -4.672830 14.998289 317.927048
v -4.514676 14.998289 317.699805
v -4.356522 15.204661 317.472561
v -4.301301 15.693543 317.174088
v -4.761757 15.729245 318.539376
v -4.603739 15.204661 318.312446
v -4.445586 14.998289 318.085202
v -4.287432 14.998289 317.857958
v -4.129279 15.204661 317.630714
v -3.999909 15.719334 317.383846
v -4.534313 15.885431 318.692875
v -4.376496 15.394587 318.470599
v -4.218342 15.204661 318.243356
v -4.060188 15.204661 318.016112
v -3.902035 15.394587 317.788868
v -3.738752 15.884982 317.547011
v -4.755813 16.216379 316.846728
v -4.389645 16.109942 317.064183
v -4.010809 16.155921 317.276767
v -3.683742 16.332688 317.422429
v -4.743657 16.812882 316.794332
v -4.346887 16.758250 316.940351
v -3.925164 16.810048 317.128312
v -3.572856 16.925179 317.334745
v -4.529981 17.744638 316.943042
v -4.121409 17.695712 317.093935
v -3.701595 17.616449 317.279640
v -3.412043 17.636609 317.446665
v -4.414322 18.982176 317.147460
v -4.154208 19.271137 317.317980
v -3.870605 19.079179 317.498273
v -3.584630 18.608267 317.647274
v -5.206281 16.331377 318.200173
v -4.979816 16.184567 318.370439
v -4.756018 16.185017 318.526195
v -4.532694 16.337039 318.668965
v -5.187404 16.935849 318.187057
v -4.963174 16.843666 318.350394
v -4.745450 16.844966 318.501922
v -4.530997 16.942915 318.643893
v -5.167059 17.825235 318.201217
v -4.959051 17.824059 318.352630
v -4.745239 17.873409 318.501436
v -4.530997 17.969750 318.634348
v -5.167059 19.022550 318.165107
v -4.960025 19.411411 318.289738
v -4.745371 19.592928 318.381130
v -4.524879 19.468835 318.455670
vt 0.375000 0.000000
vt 0.425000 0.000000
vt 0.475000 0.000000
vt 0.525000 0.000000
vt 0.575000 0.000000
vt 0.625000 0.000000
vt 0.375000 0.050000
vt 0.425000 0.050000
vt 0.475000 0.050000
vt 0.525000 0.050000
vt 0.575000 0.050000
vt 0.625000 0.050000
vt 0.375000 0.100000
vt 0.425000 0.100000
vt 0.475000 0.100000
vt 0.525000 0.100000
vt 0.575000 0.100000
vt 0.625000 0.100000
vt 0.375000 0.150000
vt 0.425000 0.150000
vt 0.475000 0.150000
vt 0.525000 0.150000
vt 0.575000 0.150000
vt 0.625000 0.150000
vt 0.375000 0.200000
vt 0.425000 0.200000
vt 0.475000 0.200000
vt 0.525000 0.200000
vt 0.575000 0.200000
vt 0.625000 0.200000
vt 0.375000 0.250000
vt 0.425000 0.250000
vt 0.475000 0.250000
vt 0.525000 0.250000
vt 0.575000 0.250000
vt 0.625000 0.250000
vt 0.375000 0.300000
vt 0.425000 0.300000
vt 0.475000 0.300000
vt 0.525000 0.300000
vt 0.575000 0.300000
vt 0.625000 0.300000
vt 0.375000 0.350000
vt 0.425000 0.350000
vt 0.475000 0.350000
vt 0.525000 0.350000
vt 0.575000 0.350000
vt 0.625000 0.350000
vt 0.375000 0.400000
vt 0.425000 0.400000
vt 0.475000 0.400000
vt 0.525000 0.400000
vt 0.575000 0.400000
vt 0.625000 0.400000
vt 0.375000 0.450000
vt 0.425000 0.450000
vt 0.475000 0.450000
vt 0.525000 0.450000
vt 0.575000 0.450000
vt 0.625000 0.450000
vt 0.375000 0.500000
vt 0.425000 0.500000
vt 0.475000 0.500000
vt 0.525000 0.500000
vt 0.575000 0.500000
vt 0.625000 0.500000
vt 0.375000 0.550000
vt 0.425000 0.550000
vt 0.475000 0.550000
vt 0.525000 0.550000
vt 0.575000 0.550000
vt 0.625000 0.550000
vt 0.375000 0.600000
vt 0.425000 0.600000
vt 0.475000 0.600000
vt 0.525000 0.600000
vt 0.575000 0.600000
vt 0.625000 0.600000
vt 0.375000 0.650000
vt 0.425000 0.650000
vt 0.475000 0.650000
vt 0.525000 0.650000
vt 0.575000 0.650000
vt 0.625000 0.650000
vt 0.375000 0.700000
vt 0.425000 0.700000
vt 0.475000 0.700000
vt 0.525000 0.700000
vt 0.575000 0.700000
vt 0.625000 0.700000
vt 0.375000 0.750000
vt 0.425000 0.750000
vt 0.475000 0.750000
vt 0.525000 0.750000
vt 0.575000 0.750000
vt 0.625000 0.750000
vt 0.375000 0.800000
vt 0.425000 0.800000
vt 0.475000 0.800000
vt 0.525000 0.800000
vt 0.575000 0.800000
vt 0.625000 0.800000
vt 0.375000 0.850000
vt 0.425000 0.850000
vt 0.475000 0.850000
vt 0.525000 0.850000
vt 0.575000 0.850000
vt 0.625000 0.850000
vt 0.375000 0.900000
vt 0.425000 0.900000
vt 0.475000 0.900000
vt 0.525000 0.900000
vt 0.575000 0.900000
vt 0.625000 0.900000
vt 0.375000 0.950000
vt 0.425000 0.950000
vt 0.475000 0.950000
vt 0.525000 0.950000
vt 0.575000 0.950000
vt 0.625000 0.950000
vt 0.375000 1.000000
vt 0.425000 1.000000
vt 0.475000 1.000000
vt 0.525000 1.000000
vt 0.575000 1.000000
vt 0.625000 1.000000
vt 0.875000 0.000000
vt 0.825000 0.000000
vt 0.775000 0.000000
vt 0.725000 0.000000
vt 0.675000 0.000000
vt 0.875000 0.050000
vt 0.825000 0.050000
vt 0.775000 0.050000
vt 0.725000 0.050000
vt 0.675000 0.050000
vt 0.875000 0.100000
vt 0.825000 0.100000
vt 0.775000 0.100000
vt 0.725000 0.100000
vt 0.675000 0.100000
vt 0.875000 0.150000
vt 0.825000 0.150000
vt 0.775000 0.150000
vt 0.725000 0.150000
vt 0.675000 0.150000
vt 0.875000 0.200000
vt 0.825000 0.200000
vt 0.775000 0.200000
vt 0.725000 0.200000
vt 0.675000 0.200000
vt 0.875000 0.250000
vt 0.825000 0.250000
vt 0.775000 0.250000
vt 0.725000 0.250000
vt 0.675000 0.250000
vt 0.125000 0.000000
vt 0.175000 0.000000
vt 0.225000 0.000000
vt 0.275000 0.000000
vt 0.325000 0.000000
vt 0.125000 0.050000
vt 0.175000 0.050000
vt 0.225000 0.050000
vt 0.275000 0.050000
vt 0.325000 0.050000
vt 0.125000 0.100000
vt 0.175000 0.100000
vt 0.225000 0.100000
vt 0.275000 0.100000
vt 0.325000 0.100000
vt 0.125000 0.150000
vt 0.175000 0.150000
vt 0.225000 0.150000
vt 0.275000 0.150000
vt 0.325000 0.150000
vt 0.125000 0.200000
vt 0.175000 0.200000
vt 0.225000 0.200000
vt 0.275000 0.200000
vt 0.325000 0.200000
vt 0.125000 0.250000
vt 0.175000 0.250000
vt 0.225000 0.250000
vt 0.275000 0.250000
vt 0.325000 0.250000
vn 0.768703 0.263663 0.582733
vn 0.810619 0.087621 0.578981
vn 0.754784 0.111995 0.646342
vn 0.338897 0.086784 0.936812
vn 0.819269 0.033844 0.572410
vn 0.812857 0.033603 0.581493
vn 0.821253 0.033334 0.569590
vn 0.812623 0.022400 0.582359
vn 0.820943 0.038230 0.569728
vn 0.813064 -0.005443 0.582148
vn 0.812371 0.042057 0.581623
vn 0.820548 -0.113995 0.560094
vn 0.565188 -0.002142 0.824959
vn 0.226885 0.015712 0.973795
vn 0.744251 -0.043808 0.666461
vn 0.750268 -0.096092 0.654113
vn 0.771034 -0.166788 0.614563
vn 0.761124 -0.215008 0.611933
vn 0.416514 0.062855 0.906954
vn 0.141790 0.082565 0.986448
vn 0.642203 -0.018135 0.766320
vn 0.671295 -0.093503 0.735269
vn 0.763915 -0.116622 0.634691
vn 0.776631 -0.147839 0.612363
vn 0.449962 0.039620 0.892168
vn 0.097102 0.124848 0.987413
vn 0.572905 0.087308 0.814959
vn 0.591066 0.071837 0.803418
vn 0.738668 0.021075 0.673740
vn 0.822308 0.008848 0.568973
vn 0.559525 -0.076228 0.825300
vn 0.489888 -0.226489 0.841851
vn 0.574522 0.119495 0.809719
vn 0.562391 0.151598 0.812856
vn 0.694964 0.152214 0.702749
vn 0.849429 0.170966 0.499240
vn 0.476560 0.280992 0.833027
vn 0.629951 0.308321 0.712812
vn 0.476807 0.435467 0.763560
vn 0.347686 0.313263 0.883731
vn 0.717876 0.373147 0.587720
vn 0.709550 0.479248 0.516585
vn 0.870924 0.466487 0.154535
vn 0.827164 0.493843 0.268176
vn 0.902636 0.419110 -0.097949
vn 0.892451 0.444437 -0.077508
vn 0.904808 0.408606 -0.119843
vn 0.903025 0.410471 -0.126724
vn 0.028482 0.650798 0.758716
vn -0.217739 0.409286 0.886045
vn 0.508502 0.798862 0.321318
vn 0.685577 0.712828 0.147853
vn 0.822690 0.497738 -0.274659
vn 0.858224 0.419058 -0.296381
vn -0.437069 0.611459 0.659613
vn -0.656668 0.319355 0.683227
vn 0.263326 0.935886 0.234043
vn 0.448884 0.893385 0.019132
vn 0.558583 0.571025 -0.601594
vn 0.539160 0.342429 -0.769447
vn -0.909862 0.406947 0.080909
vn -0.953797 0.213592 0.211307
vn -0.746238 0.555551 -0.366732
vn -0.551267 0.575114 -0.604440
vn -0.181800 0.387027 -0.903968
vn -0.086657 0.228838 -0.969600
vn -0.976632 0.211037 0.040649
vn -0.970064 0.198415 0.140028
vn -0.864087 0.256417 -0.433133
vn -0.681919 0.262824 -0.682576
vn -0.277573 0.219483 -0.935297
vn -0.189454 0.207602 -0.959692
vn -0.808132 -0.016682 -0.588765
vn -0.825828 -0.022221 -0.563484
vn -0.857744 0.006784 -0.514032
vn -0.826711 0.000986 -0.562625
vn -0.823074 -0.024317 -0.567414
vn -0.867621 0.021238 -0.496772
vn -0.818534 -0.024123 -0.573951
vn -0.857876 0.046601 -0.511739
vn -0.814767 -0.021408 -0.579394
vn -0.828601 0.097309 -0.551318
vn -0.832393 -0.014152 -0.554004
vn -0.713162 0.227879 -0.662926
vn -0.903441 0.080627 -0.421063
vn -0.877900 0.058211 -0.475293
vn -0.928194 0.140171 -0.344685
vn -0.908964 0.198199 -0.366745
vn -0.843079 0.258264 -0.471719
vn -0.797997 0.304638 -0.519997
vn -0.973439 0.116410 -0.197142
vn -0.941058 0.095473 -0.324493
vn -0.977604 0.149033 -0.148590
vn -0.955584 0.170515 -0.240381
vn -0.897910 0.197161 -0.393555
vn -0.866382 0.280584 -0.413104
vn -0.995649 -0.020471 -0.090910
vn -0.990512 0.018242 -0.136211
vn -0.989760 -0.118395 -0.079735
vn -0.954150 -0.177451 -0.241058
vn -0.857280 -0.119648 -0.500755
vn -0.806502 -0.017327 -0.590978
vn -0.983923 -0.160170 -0.079002
vn -0.984244 -0.017665 -0.175929
vn -0.949012 -0.301970 -0.090507
vn -0.895132 -0.388581 -0.218501
vn -0.810992 -0.362836 -0.458958
vn -0.689342 -0.226270 -0.688192
vn -0.868174 -0.396805 0.298025
vn -0.865591 -0.461495 0.194355
vn -0.807653 -0.536636 0.244373
vn -0.833671 -0.416079 0.363141
vn -0.756576 -0.640465 -0.131899
vn -0.699522 -0.704262 -0.121177
vn -0.490599 -0.765725 -0.415907
vn -0.435975 -0.781470 -0.446353
vn -0.101399 -0.682033 -0.724257
vn -0.026467 -0.708672 -0.705042
vn 0.009725 -0.617561 -0.786463
vn 0.079899 -0.608564 -0.789472
vn -0.602078 -0.620094 0.502977
vn -0.632947 -0.465049 0.618957
vn -0.430048 -0.899386 0.078515
vn -0.073486 -0.907017 -0.414633
vn 0.302672 -0.646430 -0.700370
vn 0.386145 -0.532715 -0.753065
vn -0.262324 -0.620001 0.739449
vn -0.360061 -0.464589 0.809020
vn 0.077130 -0.899411 0.430246
vn 0.430246 -0.899411 -0.077130
vn 0.600391 -0.618053 -0.507486
vn 0.620131 -0.476712 -0.623044
vn 0.151578 -0.511958 0.845531
vn 0.041496 -0.412564 0.909983
vn 0.502855 -0.620001 0.602275
vn 0.739215 -0.620079 0.262798
vn 0.833406 -0.528378 -0.162024
vn 0.842465 -0.469080 -0.264984
vn 0.277194 -0.412564 0.867729
vn 0.162954 -0.383660 0.908983
vn 0.618672 -0.464589 0.633563
vn 0.807903 -0.465799 0.361005
vn 0.885490 -0.463913 -0.026296
vn 0.878293 -0.456428 -0.142390
vn 0.517625 -0.069628 -0.852770
vn 0.508661 -0.028671 -0.860489
vn 0.433630 -0.039323 -0.900233
vn 0.453292 -0.086527 -0.887152
vn 0.528618 -0.125514 -0.839529
vn 0.474212 -0.155724 -0.866529
vn 0.543399 -0.187124 -0.818353
vn 0.509581 -0.214648 -0.833219
vn 0.568903 -0.245931 -0.784772
vn 0.562403 -0.247034 -0.789099
vn 0.617489 -0.282195 -0.734216
vn 0.596339 -0.213174 -0.773910
vn 0.387083 0.036530 -0.921321
vn 0.383346 -0.000860 -0.923604
vn 0.403005 -0.048527 -0.913910
vn 0.462771 -0.078835 -0.882966
vn 0.538640 -0.087309 -0.838000
vn 0.577893 -0.046046 -0.814813
vn 0.366137 0.086072 -0.926572
vn 0.369163 0.098130 -0.924170
vn 0.426864 0.110402 -0.897551
vn 0.505670 0.121993 -0.854058
vn 0.532180 0.137958 -0.835316
vn 0.479624 0.134340 -0.867130
vn 0.368099 0.110232 -0.923229
vn 0.444263 0.088387 -0.891526
vn 0.502921 0.079070 -0.860708
vn 0.535180 0.127193 -0.835107
vn 0.569573 0.214190 -0.793542
vn 0.453438 0.220238 -0.863648
vn 0.580786 -0.010240 -0.813992
vn 0.561141 -0.018650 -0.827510
vn 0.552440 -0.015771 -0.833403
vn 0.554534 -0.000618 -0.832161
vn 0.586572 0.063053 -0.807439
vn 0.634795 0.277485 -0.721136
vn -0.561006 0.044889 0.826594
vn -0.571786 0.039793 0.819437
vn -0.571868 0.039242 0.819407
vn -0.563385 0.032232 0.825566
vn -0.572530 0.033942 0.819181
vn -0.574241 0.036930 0.817853
vn -0.569380 0.033856 0.821377
vn -0.567680 0.036879 0.822423
vn -0.566302 0.055892 0.822300
vn -0.552447 0.070912 0.830526
vn -0.562208 0.122313 0.817901
vn -0.126373 0.067956 0.989652
vn -0.578116 0.015040 0.815816
vn -0.569651 0.006533 0.821861
vn -0.577941 0.017940 0.815881
vn -0.561450 0.018478 0.827305
vn -0.429919 0.017971 0.902688
vn 0.140763 0.013718 0.989948
vn -0.568340 0.013937 0.822676
vn -0.555068 0.008228 0.831764
vn -0.556908 0.022083 0.830280
vn -0.508919 0.037263 0.860007
vn -0.268296 0.069127 0.960853
vn 0.445034 0.088811 0.891099
vn -0.530603 0.005642 0.847602
vn -0.531076 0.012457 0.847232
vn -0.489299 0.003852 0.872108
vn -0.431251 -0.011729 0.902156
vn -0.418481 0.003604 0.908218
vn 0.477911 0.096751 0.873064
vn -0.421211 -0.080760 0.903360
vn -0.430668 -0.041769 0.901543
vn -0.377361 -0.121467 0.918066
vn -0.366410 -0.141574 0.919620
vn -0.400176 -0.155677 0.903119
vn -0.499161 -0.151004 0.853250
s 1
g pCube551
usemtl initialShadingGroup
f 1/1/1 2/2/2 8/8/3 7/7/4
f 2/2/2 3/3/5 9/9/6 8/8/3
f 3/3/5 4/4/7 10/10/8 9/9/6
f 4/4/7 5/5/9 11/11/10 10/10/8
f 5/5/9 6/6/11 12/12/12 11/11/10
f 7/7/4 8/8/3 14/14/13 13/13/14
f 8/8/3 9/9/6 15/15/15 14/14/13
f 9/9/6 10/10/8 16/16/16 15/15/15
f 10/10/8 11/11/10 17/17/17 16/16/16
f 11/11/10 12/12/12 18/18/18 17/17/17
f 13/13/14 14/14/13 20/20/19 19/19/20
f 14/14/13 15/15/15 21/21/21 20/20/19
f 15/15/15 16/16/16 22/22/22 21/21/21
f 16/16/16 17/17/17 23/23/23 22/22/22
f 17/17/17 18/18/18 24/24/24 23/23/23
f 19/19/20 20/20/19 26/26/25 25/25/26
f 20/20/19 21/21/21 27/27/27 26/26/25
f 21/21/21 22/22/22 28/28/28 27/27/27
f 22/22/22 23/23/23 29/29/29 28/28/28
f 23/23/23 24/24/24 30/30/30 29/29/29
f 25/25/26 26/26/25 32/32/31 31/31/32
f 26/26/25 27/27/27 33/33/33 32/32/31
f 27/27/27 28/28/28 34/34/34 33/33/33
f 28/28/28 29/29/29 35/35/35 34/34/34
f 29/29/29 30/30/30 36/36/36 35/35/35
s 2
f 31/31/37 32/32/38 38/38/39 37/37/40
f 32/32/38 33/33/41 39/39/42 38/38/39
f 33/33/41 34/34/43 40/40/44 39/39/42
f 34/34/43 35/35/45 41/41/46 40/40/44
f 35/35/45 36/36/47 42/42/48 41/41/46
f 37/37/40 38/38/39 44/44/49 43/43/50
f 38/38/39 39/39/42 45/45/51 44/44/49
f 39/39/42 40/40/44 46/46/52 45/45/51
f 40/40/44 41/41/46 47/47/53 46/46/52
f 41/41/46 42/42/48 48/48/54 47/47/53
f 43/43/50 44/44/49 50/50/55 49/49/56
f 44/44/49 45/45/51 51/51/57 50/50/55
f 45/45/51 46/46/52 52/52/58 51/51/57
f 46/46/52 47/47/53 53/53/59 52/52/58
f 47/47/53 48/48/54 54/54/60 53/53/59
f 49/49/56 50/50/55 56/56/61 55/55/62
f 50/50/55 51/51/57 57/57/63 56/56/61
f 51/51/57 52/52/58 58/58/64 57/57/63
f 52/52/58 53/53/59 59/59/65 58/58/64
f 53/53/59 54/54/60 60/60/66 59/59/65
f 55/55/62 56/56/61 62/62/67 61/61/68
f 56/56/61 57/57/63 63/63/69 62/62/67
f 57/57/63 58/58/64 64/64/70 63/63/69
f 58/58/64 59/59/65 65/65/71 64/64/70
f 59/59/65 60/60/66 66/66/72 65/65/71
s 3
f 61/61/73 62/62/74 68/68/75 67/67/76
f 62/62/74 63/63/77 69/69/78 68/68/75
f 63/63/77 64/64/79 70/70/80 69/69/78
f 64/64/79 65/65/81 71/71/82 70/70/80
f 65/65/81 66/66/83 72/72/84 71/71/82
f 67/67/76 68/68/75 74/74/85 73/73/86
f 68/68/75 69/69/78 75/75/87 74/74/85
f 69/69/78 70/70/80 76/76/88 75/75/87
f 70/70/80 71/71/82 77/77/89 76/76/88
f 71/71/82 72/72/84 78/78/90 77/77/89
f 73/73/86 74/74/85 80/80/91 79/79/92
f 74/74/85 75/75/87 81/81/93 80/80/91
f 75/75/87 76/76/88 82/82/94 81/81/93
f 76/76/88 77/77/89 83/83/95 82/82/94
f 77/77/89 78/78/90 84/84/96 83/83/95
f 79/79/92 80/80/91 86/86/97 85/85/98
f 80/80/91 81/81/93 87/87/99 86/86/97
f 81/81/93 82/82/94 88/88/100 87/87/99
f 82/82/94 83/83/95 89/89/101 88/88/100
f 83/83/95 84/84/96 90/90/102 89/89/101
f 85/85/98 86/86/97 92/92/103 91/91/104
f 86/86/97 87/87/99 93/93/105 92/92/103
f 87/87/99 88/88/100 94/94/106 93/93/105
f 88/88/100 89/89/101 95/95/107 94/94/106
f 89/89/101 90/90/102 96/96/108 95/95/107
s 4
f 91/91/109 92/92/110 98/98/111 97/97/112
f 92/92/110 93/93/113 99/99/114 98/98/111
f 93/93/113 94/94/115 100/100/116 99/99/114
f 94/94/115 95/95/117 101/101/118 100/100/116
f 95/95/117 96/96/119 102/102/120 101/101/118
f 97/97/112 98/98/111 104/104/121 103/103/122
f 98/98/111 99/99/114 105/105/123 104/104/121
f 99/99/114 100/100/116 106/106/124 105/105/123
f 100/100/116 101/101/118 107/107/125 106/106/124
f 101/101/118 102/102/120 108/108/126 107/107/125
f 103/103/122 104/104/121 110/110/127 109/109/128
f 104/104/121 105/105/123 111/111/129 110/110/127
f 105/105/123 106/106/124 112/112/130 111/111/129
f 106/106/124 107/107/125 113/113/131 112/112/130
f 107/107/125 108/108/126 114/114/132 113/113/131
f 109/109/128 110/110/127 116/116/133 115/115/134
f 110/110/127 111/111/129 117/117/135 116/116/133
f 111/111/129 112/112/130 118/118/136 117/117/135
f 112/112/130 113/113/131 119/119/137 118/118/136
f 113/113/131 114/114/132 120/120/138 119/119/137
f 115/115/134 116/116/133 2/122/139 1/121/140
f 116/116/133 117/117/135 3/123/141 2/122/139
f 117/117/135 118/118/136 4/124/142 3/123/141
f 118/118/136 119/119/137 5/125/143 4/124/142
f 119/119/137 120/120/138 6/126/144 5/125/143
s 5
f 102/128/145 96/127/146 90/132/147 121/133/148
f 108/129/149 102/128/145 121/133/148 122/134/150
f 114/130/151 108/129/149 122/134/150 123/135/152
f 120/131/153 114/130/151 123/135/152 124/136/154
f 6/6/155 120/131/153 124/136/154 12/12/156
f 121/133/148 90/132/147 84/137/157 125/138/158
f 122/134/150 121/133/148 125/138/158 126/139/159
f 123/135/152 122/134/150 126/139/159 127/140/160
f 124/136/154 123/135/152 127/140/160 128/141/161
f 12/12/156 124/136/154 128/141/161 18/18/162
f 125/138/158 84/137/157 78/142/163 129/143/164
f 126/139/159 125/138/158 129/143/164 130/144/165
f 127/140/160 126/139/159 130/144/165 131/145/166
f 128/141/161 127/140/160 131/145/166 132/146/167
f 18/18/162 128/141/161 132/146/167 24/24/168
f 129/143/164 78/142/163 72/147/169 133/148/170
f 130/144/165 129/143/164 133/148/170 134/149/171
f 131/145/166 130/144/165 134/149/171 135/150/172
f 132/146/167 131/145/166 135/150/172 136/151/173
f 24/24/168 132/146/167 136/151/173 30/30/174
f 133/148/170 72/147/169 66/152/175 60/153/176
f 134/149/171 133/148/170 60/153/176 54/154/177
f 135/150/172 134/149/171 54/154/177 48/155/178
f 136/151/173 135/150/172 48/155/178 42/156/179
f 30/30/174 136/151/173 42/156/179 36/36/180
s 6
f 91/157/181 97/158/182 137/163/183 85/162/184
f 97/158/182 103/159/185 138/164/186 137/163/183
f 103/159/185 109/160/187 139/165/188 138/164/186
f 109/160/187 115/161/189 140/166/190 139/165/188
f 115/161/189 1/1/191 7/7/192 140/166/190
f 85/162/184 137/163/183 141/168/193 79/167/194
f 137/163/183 138/164/186 142/169/195 141/168/193
f 138/164/186 139/165/188 143/170/196 142/169/195
f 139/165/188 140/166/190 144/171/197 143/170/196
f 140/166/190 7/7/192 13/13/198 144/171/197
f 79/167/194 141/168/193 145/173/199 73/172/200
f 141/168/193 142/169/195 146/174/201 145/173/199
f 142/169/195 143/170/196 147/175/202 146/174/201
f 143/170/196 144/171/197 148/176/203 147/175/202
f 144/171/197 13/13/198 19/19/204 148/176/203
f 73/172/200 145/173/199 149/178/205 67/177/206
f 145/173/199 146/174/201 150/179/207 149/178/205
f 146/174/201 147/175/202 151/180/208 150/179/207
f 147/175/202 148/176/203 152/181/209 151/180/208
f 148/176/203 19/19/204 25/25/210 152/181/209
f 67/177/206 149/178/205 55/183/211 61/182/212
f 149/178/205 150/179/207 49/184/213 55/183/211
f 150/179/207 151/180/208 43/185/214 49/184/213
f 151/180/208 152/181/209 37/186/215 43/185/214
f 152/181/209 25/25/210 31/31/216 37/186/215
