# This file uses centimeters as units for non-parametric coordinates.

mtllib Rune ROck 4.mtl
g default
v 11.096088 15.295894 330.033264
v 10.957870 14.907614 329.811612
v 10.803359 14.751428 329.584855
v 10.644271 14.751428 329.358428
v 10.478393 14.907614 329.129182
v 10.250712 15.295894 328.830056
v 10.879741 15.688754 330.084746
v 10.933968 15.359222 329.813337
v 10.785486 15.207199 329.583938
v 10.609678 15.207199 329.333715
v 10.398663 15.359222 329.051448
v 10.173038 15.688754 328.740318
v 10.865384 16.173751 330.082238
v 10.897361 15.965098 329.798719
v 10.717279 15.867148 329.530451
v 10.528050 15.867148 329.228374
v 10.351606 15.954843 328.921973
v 10.225473 16.102654 328.628876
v 10.853819 17.008555 330.078012
v 10.895803 17.064963 329.780722
v 10.789761 17.005923 329.456913
v 10.670806 16.894535 329.092927
v 10.506279 16.777179 328.788174
v 10.338540 16.654481 328.549435
v 10.647029 17.994044 330.111483
v 10.684026 18.229684 329.807858
v 10.685669 18.058755 329.473267
v 10.705584 17.884644 329.227520
v 10.644620 17.529015 328.986497
v 10.415923 17.493998 328.659572
v 10.787917 18.508360 330.126784
v 10.679546 18.571489 329.880521
v 10.626474 18.541439 329.577961
v 10.604281 18.462091 329.281165
v 10.582527 18.145573 329.039599
v 10.474896 17.538746 328.783145
v 10.820156 18.890427 330.365482
v 10.867571 19.203337 330.205126
v 10.702593 19.182518 329.971198
v 10.500342 19.104719 329.647854
v 10.252355 18.716814 329.282165
v 10.229862 18.253063 329.010539
v 10.835262 19.062185 330.572157
v 10.857951 19.437754 330.435567
v 10.705105 19.475330 330.233286
v 10.447651 19.425465 329.924197
v 10.122943 19.256639 329.541631
v 9.939207 18.679850 329.203935
v 10.687169 18.996742 330.730848
v 10.650479 19.560327 330.595579
v 10.486858 19.586817 330.391792
v 10.218013 19.561851 330.080007
v 9.902944 19.502809 329.707405
v 9.682197 18.860062 329.384511
v 10.460914 18.564245 330.844247
v 10.376530 19.581908 330.710845
v 10.200016 19.686633 330.496172
v 9.941889 19.686194 330.191306
v 9.657762 19.479036 329.844363
v 9.460925 18.544630 329.555214
v 10.104411 17.915445 330.856214
v 10.054764 18.496892 330.745588
v 9.799051 18.817042 330.466630
v 9.565688 18.817042 330.177050
v 9.395291 18.496892 329.927080
v 9.250548 17.888217 329.710898
v 10.004115 17.460959 330.771678
v 9.964100 17.923058 330.652395
v 9.819087 18.119714 330.460773
v 9.590591 18.101497 330.178038
v 9.406593 17.892932 329.923577
v 9.254221 17.441377 329.710551
v 10.000602 16.823722 330.769019
v 9.847469 16.827949 330.560912
v 9.651296 16.776728 330.384379
v 9.425168 16.751009 330.219464
v 9.214227 16.764611 330.036775
v 9.031594 16.749697 329.841533
v 9.977721 16.165779 330.785096
v 9.717856 15.918327 330.651979
v 9.427639 15.772468 330.541648
v 9.152016 15.729472 330.411715
v 8.944632 15.807749 330.226193
v 8.794917 16.016403 330.013105
v 9.981068 15.682822 330.795339
v 9.711723 15.313868 330.672089
v 9.416324 15.114938 330.555943
v 9.136771 15.071839 330.421046
v 8.929897 15.201873 330.242703
v 8.783285 15.531405 330.014476
v 9.971973 15.288273 330.823070
v 9.762288 14.883266 330.651631
v 9.547045 14.708164 330.467544
v 9.306636 14.679832 330.298253
v 9.036295 14.795663 330.152879
v 8.821361 15.157215 329.985127
v 10.213690 14.906985 330.670753
v 10.056691 14.416770 330.447914
v 9.897526 14.226844 330.221377
v 9.735503 14.225848 329.996848
v 9.526831 14.398526 329.805096
v 9.179765 14.822320 329.715798
v 10.442254 14.751428 330.514973
v 10.283227 14.226844 330.288749
v 10.124062 14.020472 330.062212
v 9.964897 14.020472 329.835676
v 9.805732 14.226844 329.609139
v 9.544339 14.715726 329.454838
v 10.668681 14.751428 330.355885
v 10.509764 14.226844 330.129584
v 10.350599 14.020472 329.903047
v 10.191434 14.020472 329.676511
v 10.032269 14.226844 329.449974
v 9.844793 14.741517 329.243739
v 10.890914 14.907614 330.194934
v 10.736301 14.416770 329.970419
v 10.577136 14.226844 329.743882
v 10.417970 14.226844 329.517346
v 10.258805 14.416770 329.290809
v 10.087675 14.907165 329.054440
v 9.080876 15.238562 329.769398
v 9.410790 15.132125 329.500098
v 9.740476 15.178104 329.217228
v 9.989539 15.354871 328.960015
v 9.035834 15.835064 329.739998
v 9.309153 15.780433 329.417438
v 9.630431 15.832231 329.085836
v 9.945235 15.947362 328.825772
v 9.248844 16.766820 329.590336
v 9.530792 16.717895 329.258364
v 9.849295 16.638632 328.927780
v 10.105548 16.658792 328.713136
v 9.480540 18.004359 329.551857
v 9.729973 18.293320 329.366061
v 9.996647 18.101362 329.161558
v 10.234742 17.630450 328.944088
v 10.197522 15.353560 330.656999
v 10.435168 15.206750 330.502722
v 10.658270 15.207199 330.345971
v 10.869012 15.359222 330.185209
v 10.191681 15.958031 330.634767
v 10.422052 15.865849 330.480212
v 10.639098 15.867148 330.327715
v 10.846045 15.965098 330.175010
v 10.211963 16.847418 330.620517
v 10.425568 16.846242 330.477106
v 10.638714 16.895592 330.327349
v 10.837080 16.991933 330.171734
v 10.390461 18.044733 330.776063
v 10.599292 18.433594 330.713796
v 10.682639 18.615111 330.556282
v 10.716444 18.491017 330.357090
vt 0.375000 0.000000
vt 0.425000 0.000000
vt 0.475000 0.000000
vt 0.525000 0.000000
vt 0.575000 0.000000
vt 0.625000 0.000000
vt 0.375000 0.050000
vt 0.425000 0.050000
vt 0.475000 0.050000
vt 0.525000 0.050000
vt 0.575000 0.050000
vt 0.625000 0.050000
vt 0.375000 0.100000
vt 0.425000 0.100000
vt 0.475000 0.100000
vt 0.525000 0.100000
vt 0.575000 0.100000
vt 0.625000 0.100000
vt 0.375000 0.150000
vt 0.425000 0.150000
vt 0.475000 0.150000
vt 0.525000 0.150000
vt 0.575000 0.150000
vt 0.625000 0.150000
vt 0.375000 0.200000
vt 0.425000 0.200000
vt 0.475000 0.200000
vt 0.525000 0.200000
vt 0.575000 0.200000
vt 0.625000 0.200000
vt 0.375000 0.250000
vt 0.425000 0.250000
vt 0.475000 0.250000
vt 0.525000 0.250000
vt 0.575000 0.250000
vt 0.625000 0.250000
vt 0.375000 0.300000
vt 0.425000 0.300000
vt 0.475000 0.300000
vt 0.525000 0.300000
vt 0.575000 0.300000
vt 0.625000 0.300000
vt 0.375000 0.350000
vt 0.425000 0.350000
vt 0.475000 0.350000
vt 0.525000 0.350000
vt 0.575000 0.350000
vt 0.625000 0.350000
vt 0.375000 0.400000
vt 0.425000 0.400000
vt 0.475000 0.400000
vt 0.525000 0.400000
vt 0.575000 0.400000
vt 0.625000 0.400000
vt 0.375000 0.450000
vt 0.425000 0.450000
vt 0.475000 0.450000
vt 0.525000 0.450000
vt 0.575000 0.450000
vt 0.625000 0.450000
vt 0.375000 0.500000
vt 0.425000 0.500000
vt 0.475000 0.500000
vt 0.525000 0.500000
vt 0.575000 0.500000
vt 0.625000 0.500000
vt 0.375000 0.550000
vt 0.425000 0.550000
vt 0.475000 0.550000
vt 0.525000 0.550000
vt 0.575000 0.550000
vt 0.625000 0.550000
vt 0.375000 0.600000
vt 0.425000 0.600000
vt 0.475000 0.600000
vt 0.525000 0.600000
vt 0.575000 0.600000
vt 0.625000 0.600000
vt 0.375000 0.650000
vt 0.425000 0.650000
vt 0.475000 0.650000
vt 0.525000 0.650000
vt 0.575000 0.650000
vt 0.625000 0.650000
vt 0.375000 0.700000
vt 0.425000 0.700000
vt 0.475000 0.700000
vt 0.525000 0.700000
vt 0.575000 0.700000
vt 0.625000 0.700000
vt 0.375000 0.750000
vt 0.425000 0.750000
vt 0.475000 0.750000
vt 0.525000 0.750000
vt 0.575000 0.750000
vt 0.625000 0.750000
vt 0.375000 0.800000
vt 0.425000 0.800000
vt 0.475000 0.800000
vt 0.525000 0.800000
vt 0.575000 0.800000
vt 0.625000 0.800000
vt 0.375000 0.850000
vt 0.425000 0.850000
vt 0.475000 0.850000
vt 0.525000 0.850000
vt 0.575000 0.850000
vt 0.625000 0.850000
vt 0.375000 0.900000
vt 0.425000 0.900000
vt 0.475000 0.900000
vt 0.525000 0.900000
vt 0.575000 0.900000
vt 0.625000 0.900000
vt 0.375000 0.950000
vt 0.425000 0.950000
vt 0.475000 0.950000
vt 0.525000 0.950000
vt 0.575000 0.950000
vt 0.625000 0.950000
vt 0.375000 1.000000
vt 0.425000 1.000000
vt 0.475000 1.000000
vt 0.525000 1.000000
vt 0.575000 1.000000
vt 0.625000 1.000000
vt 0.875000 0.000000
vt 0.825000 0.000000
vt 0.775000 0.000000
vt 0.725000 0.000000
vt 0.675000 0.000000
vt 0.875000 0.050000
vt 0.825000 0.050000
vt 0.775000 0.050000
vt 0.725000 0.050000
vt 0.675000 0.050000
vt 0.875000 0.100000
vt 0.825000 0.100000
vt 0.775000 0.100000
vt 0.725000 0.100000
vt 0.675000 0.100000
vt 0.875000 0.150000
vt 0.825000 0.150000
vt 0.775000 0.150000
vt 0.725000 0.150000
vt 0.675000 0.150000
vt 0.875000 0.200000
vt 0.825000 0.200000
vt 0.775000 0.200000
vt 0.725000 0.200000
vt 0.675000 0.200000
vt 0.875000 0.250000
vt 0.825000 0.250000
vt 0.775000 0.250000
vt 0.725000 0.250000
vt 0.675000 0.250000
vt 0.125000 0.000000
vt 0.175000 0.000000
vt 0.225000 0.000000
vt 0.275000 0.000000
vt 0.325000 0.000000
vt 0.125000 0.050000
vt 0.175000 0.050000
vt 0.225000 0.050000
vt 0.275000 0.050000
vt 0.325000 0.050000
vt 0.125000 0.100000
vt 0.175000 0.100000
vt 0.225000 0.100000
vt 0.275000 0.100000
vt 0.325000 0.100000
vt 0.125000 0.150000
vt 0.175000 0.150000
vt 0.225000 0.150000
vt 0.275000 0.150000
vt 0.325000 0.150000
vt 0.125000 0.200000
vt 0.175000 0.200000
vt 0.225000 0.200000
vt 0.275000 0.200000
vt 0.325000 0.200000
vt 0.125000 0.250000
vt 0.175000 0.250000
vt 0.225000 0.250000
vt 0.275000 0.250000
vt 0.325000 0.250000
vn 0.811154 0.263663 -0.522026
vn 0.822015 0.087621 -0.562684
vn 0.866123 0.111995 -0.487122
vn 0.996222 0.086784 0.003194
vn 0.818812 0.033844 -0.573063
vn 0.825143 0.033603 -0.563924
vn 0.816844 0.033334 -0.575895
vn 0.825875 0.022400 -0.563408
vn 0.816868 0.038230 -0.575557
vn 0.825829 -0.005443 -0.563894
vn 0.825097 0.042057 -0.563423
vn 0.807683 -0.113995 -0.578492
vn 0.968824 -0.002142 -0.247741
vn 0.992517 0.015712 0.121094
vn 0.881405 -0.043808 -0.470325
vn 0.871872 -0.096092 -0.480214
vn 0.841851 -0.166788 -0.513292
vn 0.835979 -0.215008 -0.504887
vn 0.992513 0.085229 -0.087484
vn 0.980944 0.094529 0.169741
vn 0.950848 0.001534 -0.309655
vn 0.924296 -0.091127 -0.370639
vn 0.858313 -0.116622 -0.499698
vn 0.841705 -0.147839 -0.519304
vn 0.993178 0.088895 -0.075464
vn 0.977522 0.138854 0.158649
vn 0.978256 0.125013 -0.165492
vn 0.966623 0.083206 -0.242317
vn 0.886682 0.021801 -0.461865
vn 0.816627 0.008848 -0.577098
vn 0.986466 -0.029942 -0.161212
vn 0.970776 -0.134236 -0.198936
vn 0.987311 0.124378 -0.098733
vn 0.974914 0.161649 -0.153008
vn 0.901446 0.160334 -0.402104
vn 0.760436 0.170966 -0.626504
vn 0.970583 -0.085888 -0.224927
vn 0.945276 -0.016376 -0.325860
vn 0.957734 0.097039 -0.270795
vn 0.986253 -0.083735 -0.142458
vn 0.903435 0.189056 -0.384789
vn 0.835924 0.283882 -0.469726
vn 0.500382 0.482892 -0.718633
vn 0.626624 0.461010 -0.628341
vn 0.232123 0.434956 -0.870019
vn 0.273763 0.497047 -0.823407
vn 0.199346 0.413903 -0.888226
vn 0.193280 0.423620 -0.884980
vn 0.874694 0.437985 0.207554
vn 0.885556 0.092701 0.455188
vn 0.511782 0.754796 -0.410319
vn 0.428966 0.718908 -0.546954
vn 0.158893 0.603687 -0.781226
vn 0.045507 0.493651 -0.868469
vn 0.454883 0.516167 0.725708
vn 0.360901 0.191092 0.912817
vn 0.287599 0.940653 -0.180162
vn 0.230760 0.895395 -0.380812
vn -0.202685 0.736475 -0.645386
vn -0.475442 0.477946 -0.738595
vn -0.303182 0.350238 0.886236
vn -0.189476 0.134371 0.972648
vn -0.569147 0.547441 0.613498
vn -0.669505 0.642869 0.372134
vn -0.855604 0.514077 -0.060544
vn -0.926722 0.294888 -0.232866
vn -0.373540 0.160997 0.913536
vn -0.253735 0.125101 0.959150
vn -0.677776 0.271111 0.683460
vn -0.826456 0.315620 0.466214
vn -0.961011 0.275479 -0.023852
vn -0.956964 0.256371 -0.135992
vn -0.821519 0.054460 0.567574
vn -0.772137 -0.000736 0.635456
vn -0.765703 0.033445 0.642324
vn -0.839902 0.032060 0.541790
vn -0.773873 -0.020993 0.632993
vn -0.742179 0.024050 0.669770
vn -0.785913 -0.025863 0.617795
vn -0.757365 0.045446 0.651408
vn -0.806363 -0.022255 0.591001
vn -0.795693 0.096141 0.598021
vn -0.806039 -0.013655 0.591705
vn -0.867405 0.227930 0.442330
vn -0.702695 0.092663 0.705432
vn -0.757534 0.076319 0.648319
vn -0.641145 0.140142 0.754516
vn -0.657739 0.193438 0.727985
vn -0.731132 0.255793 0.632468
vn -0.762282 0.304638 0.571071
vn -0.519246 0.116410 0.846660
vn -0.627749 0.095473 0.772539
vn -0.475072 0.149033 0.867234
vn -0.553731 0.170515 0.815050
vn -0.677808 0.197161 0.708310
vn -0.685350 0.280584 0.671988
vn -0.427088 -0.020471 0.903978
vn -0.467874 0.018242 0.883607
vn -0.414570 -0.118395 0.902283
vn -0.553875 -0.177451 0.813470
vn -0.764554 -0.119648 0.633357
vn -0.831870 -0.017327 0.554699
vn -0.411879 -0.160170 0.897051
vn -0.503029 -0.017665 0.864089
vn -0.410704 -0.301970 0.860312
vn -0.512434 -0.388581 0.765779
vn -0.709409 -0.362836 0.604226
vn -0.882972 -0.226271 0.411293
vn -0.018027 -0.396805 0.917726
vn -0.114514 -0.461495 0.879721
vn -0.047650 -0.536636 0.842467
vn 0.054976 -0.416079 0.907665
vn -0.383540 -0.640465 0.665358
vn -0.353888 -0.704262 0.615449
vn -0.559017 -0.765725 0.318067
vn -0.568867 -0.781470 0.256311
vn -0.715069 -0.682034 -0.153319
vn -0.671305 -0.708672 -0.217105
vn -0.735359 -0.617561 -0.279043
vn -0.714102 -0.608564 -0.345988
vn 0.265800 -0.620094 0.738129
vn 0.364142 -0.465049 0.806926
vn -0.073843 -0.899385 0.430875
vn -0.414670 -0.907017 -0.073276
vn -0.553958 -0.646430 -0.524651
vn -0.574806 -0.532715 -0.621139
vn 0.604511 -0.620001 0.500165
vn 0.636314 -0.464589 0.615842
vn 0.430585 -0.899411 0.075212
vn 0.075211 -0.899411 -0.430585
vn -0.270614 -0.618053 -0.738091
vn -0.372379 -0.476712 -0.796291
vn 0.846199 -0.511958 0.147808
vn 0.868956 -0.412564 0.273324
vn 0.738272 -0.620001 -0.265618
vn 0.500530 -0.620079 -0.604128
vn 0.133835 -0.528378 -0.838394
vn 0.040238 -0.469080 -0.882239
vn 0.910159 -0.412564 0.037439
vn 0.909701 -0.383660 0.158900
vn 0.807407 -0.464589 -0.363663
vn 0.616346 -0.465799 -0.634940
vn 0.279195 -0.463913 -0.840735
vn 0.167682 -0.456428 -0.873817
vn -0.623331 -0.069628 -0.778852
vn -0.633659 -0.028671 -0.773081
vn -0.696738 -0.039323 -0.716247
vn -0.677705 -0.086527 -0.730226
vn -0.607122 -0.125514 -0.784633
vn -0.651155 -0.155724 -0.742797
vn -0.582160 -0.187124 -0.791249
vn -0.607729 -0.214648 -0.764586
vn -0.541866 -0.245931 -0.803679
vn -0.548160 -0.247034 -0.799059
vn -0.477706 -0.282195 -0.831963
vn -0.522247 -0.213174 -0.825721
vn -0.732521 0.036530 -0.679764
vn -0.735948 -0.000860 -0.677038
vn -0.720095 -0.048527 -0.692176
vn -0.670519 -0.078835 -0.737692
vn -0.602247 -0.087309 -0.793521
vn -0.566997 -0.046046 -0.822432
vn -0.744641 0.086072 -0.661893
vn -0.741346 0.098130 -0.663910
vn -0.696542 0.110402 -0.708972
vn -0.628645 0.121993 -0.768065
vn -0.601942 0.137958 -0.786532
vn -0.649861 0.134340 -0.748086
vn -0.740828 0.110232 -0.662588
vn -0.684911 0.088387 -0.723246
vn -0.635834 0.079070 -0.767765
vn -0.600717 0.127193 -0.789279
vn -0.549873 0.214190 -0.807318
vn -0.655578 0.220238 -0.722297
vn -0.565233 -0.010240 -0.824868
vn -0.584672 -0.018650 -0.811055
vn -0.593193 -0.015771 -0.804906
vn -0.591308 -0.000618 -0.806446
vn -0.557092 0.063053 -0.828054
vn -0.459481 0.277485 -0.843729
vn 0.583858 0.044889 0.810614
vn 0.573436 0.039793 0.818283
vn 0.573379 0.039242 0.818350
vn 0.582076 0.032232 0.812496
vn 0.572940 0.033942 0.818894
vn 0.571105 0.036930 0.820046
vn 0.576084 0.033856 0.816689
vn 0.577649 0.036879 0.815452
vn 0.578007 0.055892 0.814115
vn 0.590488 0.070912 0.803925
vn 0.575280 0.122313 0.808760
vn 0.886176 0.067956 0.458339
vn 0.567862 0.015040 0.822987
vn 0.576445 0.006533 0.817110
vn 0.567983 0.017940 0.822844
vn 0.584373 0.018478 0.811275
vn 0.700318 0.017971 0.713604
vn 0.978133 0.013718 0.207529
vn 0.507207 -0.087605 0.857360
vn 0.455764 -0.061131 0.887999
vn 0.625493 -0.088428 0.775203
vn 0.710707 -0.056077 0.701249
vn 0.912281 0.015401 0.409275
vn 0.969220 0.119031 -0.215510
vn 0.491656 -0.184114 0.851103
vn 0.341834 -0.121320 0.931896
vn 0.715287 -0.152057 0.682087
vn 0.845922 -0.160259 0.508657
vn 0.902854 -0.110638 0.415467
vn 0.942771 0.119722 -0.311206
vn 0.562342 -0.159378 0.811400
vn 0.348728 -0.204546 0.914631
vn 0.821696 -0.209164 0.530157
vn 0.893938 -0.250489 0.371658
vn 0.925351 -0.279716 0.255899
vn 0.928632 -0.255564 0.268942
s 1
g pCube550
usemtl initialShadingGroup
f 1/1/1 2/2/2 8/8/3 7/7/4
f 2/2/2 3/3/5 9/9/6 8/8/3
f 3/3/5 4/4/7 10/10/8 9/9/6
f 4/4/7 5/5/9 11/11/10 10/10/8
f 5/5/9 6/6/11 12/12/12 11/11/10
f 7/7/4 8/8/3 14/14/13 13/13/14
f 8/8/3 9/9/6 15/15/15 14/14/13
f 9/9/6 10/10/8 16/16/16 15/15/15
f 10/10/8 11/11/10 17/17/17 16/16/16
f 11/11/10 12/12/12 18/18/18 17/17/17
f 13/13/14 14/14/13 20/20/19 19/19/20
f 14/14/13 15/15/15 21/21/21 20/20/19
f 15/15/15 16/16/16 22/22/22 21/21/21
f 16/16/16 17/17/17 23/23/23 22/22/22
f 17/17/17 18/18/18 24/24/24 23/23/23
f 19/19/20 20/20/19 26/26/25 25/25/26
f 20/20/19 21/21/21 27/27/27 26/26/25
f 21/21/21 22/22/22 28/28/28 27/27/27
f 22/22/22 23/23/23 29/29/29 28/28/28
f 23/23/23 24/24/24 30/30/30 29/29/29
f 25/25/26 26/26/25 32/32/31 31/31/32
f 26/26/25 27/27/27 33/33/33 32/32/31
f 27/27/27 28/28/28 34/34/34 33/33/33
f 28/28/28 29/29/29 35/35/35 34/34/34
f 29/29/29 30/30/30 36/36/36 35/35/35
s 2
f 31/31/37 32/32/38 38/38/39 37/37/40
f 32/32/38 33/33/41 39/39/42 38/38/39
f 33/33/41 34/34/43 40/40/44 39/39/42
f 34/34/43 35/35/45 41/41/46 40/40/44
f 35/35/45 36/36/47 42/42/48 41/41/46
f 37/37/40 38/38/39 44/44/49 43/43/50
f 38/38/39 39/39/42 45/45/51 44/44/49
f 39/39/42 40/40/44 46/46/52 45/45/51
f 40/40/44 41/41/46 47/47/53 46/46/52
f 41/41/46 42/42/48 48/48/54 47/47/53
f 43/43/50 44/44/49 50/50/55 49/49/56
f 44/44/49 45/45/51 51/51/57 50/50/55
f 45/45/51 46/46/52 52/52/58 51/51/57
f 46/46/52 47/47/53 53/53/59 52/52/58
f 47/47/53 48/48/54 54/54/60 53/53/59
f 49/49/56 50/50/55 56/56/61 55/55/62
f 50/50/55 51/51/57 57/57/63 56/56/61
f 51/51/57 52/52/58 58/58/64 57/57/63
f 52/52/58 53/53/59 59/59/65 58/58/64
f 53/53/59 54/54/60 60/60/66 59/59/65
f 55/55/62 56/56/61 62/62/67 61/61/68
f 56/56/61 57/57/63 63/63/69 62/62/67
f 57/57/63 58/58/64 64/64/70 63/63/69
f 58/58/64 59/59/65 65/65/71 64/64/70
f 59/59/65 60/60/66 66/66/72 65/65/71
s 3
f 61/61/73 62/62/74 68/68/75 67/67/76
f 62/62/74 63/63/77 69/69/78 68/68/75
f 63/63/77 64/64/79 70/70/80 69/69/78
f 64/64/79 65/65/81 71/71/82 70/70/80
f 65/65/81 66/66/83 72/72/84 71/71/82
f 67/67/76 68/68/75 74/74/85 73/73/86
f 68/68/75 69/69/78 75/75/87 74/74/85
f 69/69/78 70/70/80 76/76/88 75/75/87
f 70/70/80 71/71/82 77/77/89 76/76/88
f 71/71/82 72/72/84 78/78/90 77/77/89
f 73/73/86 74/74/85 80/80/91 79/79/92
f 74/74/85 75/75/87 81/81/93 80/80/91
f 75/75/87 76/76/88 82/82/94 81/81/93
f 76/76/88 77/77/89 83/83/95 82/82/94
f 77/77/89 78/78/90 84/84/96 83/83/95
f 79/79/92 80/80/91 86/86/97 85/85/98
f 80/80/91 81/81/93 87/87/99 86/86/97
f 81/81/93 82/82/94 88/88/100 87/87/99
f 82/82/94 83/83/95 89/89/101 88/88/100
f 83/83/95 84/84/96 90/90/102 89/89/101
f 85/85/98 86/86/97 92/92/103 91/91/104
f 86/86/97 87/87/99 93/93/105 92/92/103
f 87/87/99 88/88/100 94/94/106 93/93/105
f 88/88/100 89/89/101 95/95/107 94/94/106
f 89/89/101 90/90/102 96/96/108 95/95/107
s 4
f 91/91/109 92/92/110 98/98/111 97/97/112
f 92/92/110 93/93/113 99/99/114 98/98/111
f 93/93/113 94/94/115 100/100/116 99/99/114
f 94/94/115 95/95/117 101/101/118 100/100/116
f 95/95/117 96/96/119 102/102/120 101/101/118
f 97/97/112 98/98/111 104/104/121 103/103/122
f 98/98/111 99/99/114 105/105/123 104/104/121
f 99/99/114 100/100/116 106/106/124 105/105/123
f 100/100/116 101/101/118 107/107/125 106/106/124
f 101/101/118 102/102/120 108/108/126 107/107/125
f 103/103/122 104/104/121 110/110/127 109/109/128
f 104/104/121 105/105/123 111/111/129 110/110/127
f 105/105/123 106/106/124 112/112/130 111/111/129
f 106/106/124 107/107/125 113/113/131 112/112/130
f 107/107/125 108/108/126 114/114/132 113/113/131
f 109/109/128 110/110/127 116/116/133 115/115/134
f 110/110/127 111/111/129 117/117/135 116/116/133
f 111/111/129 112/112/130 118/118/136 117/117/135
f 112/112/130 113/113/131 119/119/137 118/118/136
f 113/113/131 114/114/132 120/120/138 119/119/137
f 115/115/134 116/116/133 2/122/139 1/121/140
f 116/116/133 117/117/135 3/123/141 2/122/139
f 117/117/135 118/118/136 4/124/142 3/123/141
f 118/118/136 119/119/137 5/125/143 4/124/142
f 119/119/137 120/120/138 6/126/144 5/125/143
s 5
f 102/128/145 96/127/146 90/132/147 121/133/148
f 108/129/149 102/128/145 121/133/148 122/134/150
f 114/130/151 108/129/149 122/134/150 123/135/152
f 120/131/153 114/130/151 123/135/152 124/136/154
f 6/6/155 120/131/153 124/136/154 12/12/156
f 121/133/148 90/132/147 84/137/157 125/138/158
f 122/134/150 121/133/148 125/138/158 126/139/159
f 123/135/152 122/134/150 126/139/159 127/140/160
f 124/136/154 123/135/152 127/140/160 128/141/161
f 12/12/156 124/136/154 128/141/161 18/18/162
f 125/138/158 84/137/157 78/142/163 129/143/164
f 126/139/159 125/138/158 129/143/164 130/144/165
f 127/140/160 126/139/159 130/144/165 131/145/166
f 128/141/161 127/140/160 131/145/166 132/146/167
f 18/18/162 128/141/161 132/146/167 24/24/168
f 129/143/164 78/142/163 72/147/169 133/148/170
f 130/144/165 129/143/164 133/148/170 134/149/171
f 131/145/166 130/144/165 134/149/171 135/150/172
f 132/146/167 131/145/166 135/150/172 136/151/173
f 24/24/168 132/146/167 136/151/173 30/30/174
f 133/148/170 72/147/169 66/152/175 60/153/176
f 134/149/171 133/148/170 60/153/176 54/154/177
f 135/150/172 134/149/171 54/154/177 48/155/178
f 136/151/173 135/150/172 48/155/178 42/156/179
f 30/30/174 136/151/173 42/156/179 36/36/180
s 6
f 91/157/181 97/158/182 137/163/183 85/162/184
f 97/158/182 103/159/185 138/164/186 137/163/183
f 103/159/185 109/160/187 139/165/188 138/164/186
f 109/160/187 115/161/189 140/166/190 139/165/188
f 115/161/189 1/1/191 7/7/192 140/166/190
f 85/162/184 137/163/183 141/168/193 79/167/194
f 137/163/183 138/164/186 142/169/195 141/168/193
f 138/164/186 139/165/188 143/170/196 142/169/195
f 139/165/188 140/166/190 144/171/197 143/170/196
f 140/166/190 7/7/192 13/13/198 144/171/197
f 79/167/194 141/168/193 145/173/199 73/172/200
f 141/168/193 142/169/195 146/174/201 145/173/199
f 142/169/195 143/170/196 147/175/202 146/174/201
f 143/170/196 144/171/197 148/176/203 147/175/202
f 144/171/197 13/13/198 19/19/204 148/176/203
f 73/172/200 145/173/199 149/178/205 67/177/206
f 145/173/199 146/174/201 150/179/207 149/178/205
f 146/174/201 147/175/202 151/180/208 150/179/207
f 147/175/202 148/176/203 152/181/209 151/180/208
f 148/176/203 19/19/204 25/25/210 152/181/209
f 67/177/206 149/178/205 55/183/211 61/182/212
f 149/178/205 150/179/207 49/184/213 55/183/211
f 150/179/207 151/180/208 43/185/214 49/184/213
f 151/180/208 152/181/209 37/186/215 43/185/214
f 152/181/209 25/25/210 31/31/216 37/186/215
