# This file uses centimeters as units for non-parametric coordinates.

mtllib Lily PAd.mtl
g default
v -25.782104 -0.000000 12.313309
v -11.470822 -0.000000 18.866077
v 11.470826 -0.000000 17.420193
v 24.710461 -0.000000 9.689577
v -33.919163 -0.000000 -0.859901
v -11.470822 -0.000000 -0.859901
v 11.470826 -0.000000 -0.859901
v 34.412472 -0.000000 -0.859901
v -33.919163 0.000000 -19.140099
v -11.470822 0.000000 -19.140099
v 11.470826 0.000000 -19.140099
v 34.412472 0.000000 -19.140099
v -25.782104 0.000000 -32.313362
v -11.470822 0.000000 -38.866074
v 11.470826 0.000000 -37.420242
v 24.710461 0.000000 -29.689629
v -37.554977 0.000000 -10.290735
v -11.470822 0.000000 -10.290735
v 11.470826 0.000000 -10.290735
v 15.739882 0.000000 -10.290735
v -0.517196 -0.000000 20.351814
v -0.517196 -0.000000 -0.859901
v -0.517196 0.000000 -10.290735
v -0.517196 0.000000 -19.140099
v -0.517196 0.000000 -40.351868
vt 0.264978 0.828015
vt 0.175482 0.641289
vt 0.434957 0.636760
vt 0.440121 0.932005
vt 0.153407 0.497548
vt 0.432437 0.492677
vt 0.189201 0.339172
vt 0.287845 0.163212
vt 0.424400 0.033135
vt 0.429678 0.334974
vt 0.564998 0.977655
vt 0.559009 0.634595
vt 0.675414 0.632563
vt 0.680558 0.927809
vt 0.556495 0.490512
vt 0.672905 0.488480
vt 0.553742 0.332809
vt 0.552762 0.276645
vt 0.664899 0.028937
vt 0.670157 0.330776
vt 0.934891 0.628034
vt 0.851965 0.817770
vt 0.951936 0.483609
vt 0.805910 0.154168
vt 0.910636 0.326579
vn 0.000000 1.000000 0.000000
vn -0.000000 1.000000 0.000000
vn 0.000000 1.000000 0.000000
vn 0.000000 1.000000 0.000000
vn 0.000000 1.000000 0.000000
vn 0.000000 1.000000 0.000000
vn 0.000000 1.000000 0.000000
vn -0.000000 1.000000 0.000000
vn -0.000000 1.000000 0.000000
vn 0.000000 1.000000 0.000000
vn 0.000000 1.000000 0.000000
vn 0.000000 1.000000 0.000000
vn -0.000000 1.000000 0.000000
vn -0.000000 1.000000 0.000000
vn 0.000000 1.000000 0.000000
vn -0.000000 1.000000 0.000000
vn 0.000000 1.000000 0.000000
vn 0.000000 1.000000 0.000000
vn 0.000000 1.000000 0.000000
vn -0.000000 1.000000 0.000000
vn 0.000000 1.000000 0.000000
vn -0.000000 1.000000 0.000000
vn -0.000000 1.000000 0.000000
vn 0.000000 1.000000 0.000000
vn -0.000000 1.000000 0.000000
s 1
g Lily_Pad
usemtl initialShadingGroup
f 1/1/1 2/2/2 6/3/3 5/4/4
f 2/2/2 21/5/5 22/6/6 6/3/3
f 3/7/7 4/8/8 8/9/9 7/10/10
f 17/11/11 18/12/12 10/13/13 9/14/14
f 18/12/12 23/15/15 24/16/16 10/13/13
f 19/17/17 20/18/18 12/19/19 11/20/20
f 9/14/14 10/13/13 14/21/21 13/22/22
f 10/13/13 24/16/16 25/23/23 14/21/21
f 11/20/20 12/19/19 16/24/24 15/25/25
f 5/4/4 6/3/3 18/12/12 17/11/11
f 6/3/3 22/6/6 23/15/15 18/12/12
f 7/10/10 8/9/9 20/18/18 19/17/17
f 22/6/6 21/5/5 3/7/7 7/10/10
f 23/15/15 22/6/6 7/10/10 19/17/17
f 24/16/16 23/15/15 19/17/17 11/20/20
f 25/23/23 24/16/16 11/20/20 15/25/25
