# This file uses centimeters as units for non-parametric coordinates.

mtllib Mushroom SOlo.mtl
g default
v 3.328344 0.513034 3.880518
v 2.831258 0.513034 2.904947
v 2.057030 0.513034 2.130716
v 1.081445 0.513034 1.633623
v 0.000001 0.513034 1.462343
v -1.081443 0.513034 1.633623
v -2.057027 0.513034 2.130716
v -2.831255 0.513034 2.904947
v -3.328340 0.513034 3.880518
v -3.499624 0.513034 4.961966
v -3.328340 0.513034 6.043413
v -2.831255 0.513034 7.019003
v -2.057027 0.513034 7.793234
v -1.081442 0.513034 8.290308
v 0.000001 0.513034 8.461588
v 1.081445 0.513034 8.290308
v 2.057029 0.513034 7.793234
v 2.831257 0.513034 7.019003
v 3.328341 0.513034 6.043413
v 3.499625 0.513034 4.961966
v 2.213217 15.475866 -0.719110
v 1.882675 15.475866 -1.367838
v 1.367843 15.475866 -1.882669
v 0.719118 15.475866 -2.213213
v 0.000001 15.475866 -2.327120
v -0.719116 15.475866 -2.213213
v -1.367841 15.475866 -1.882669
v -1.882672 15.475866 -1.367838
v -2.213214 15.475866 -0.719110
v -2.327110 15.475866 -0.000002
v -2.213214 15.475866 0.719107
v -1.882672 15.475866 1.367834
v -1.367841 15.475866 1.882666
v -0.719116 15.475866 2.213209
v 0.000001 15.475866 2.327116
v 0.719118 15.475866 2.213209
v 1.367842 15.475866 1.882666
v 1.882673 15.475866 1.367834
v 2.213215 15.475866 0.719107
v 2.327112 15.475866 -0.000002
v 2.971195 10.648103 -0.965406
v 2.527450 10.648103 -1.836302
v 1.836300 10.648103 -2.527449
v 0.965401 10.648103 -2.971193
v 0.000001 10.648103 -3.124105
v -0.965398 10.648103 -2.971193
v -1.836298 10.648103 -2.527449
v -2.527447 10.648103 -1.836302
v -2.971193 10.648103 -0.965406
v -3.124096 10.648103 -0.000002
v -2.971193 10.648103 0.965403
v -2.527447 10.648103 1.836298
v -1.836297 10.648103 2.527445
v -0.965398 10.648103 2.971189
v 0.000001 10.648103 3.124102
v 0.965400 10.648103 2.971189
v 1.836299 10.648103 2.527445
v 2.527448 10.648103 1.836298
v 2.971194 10.648103 0.965403
v 3.124098 10.648103 -0.000002
v 3.328344 5.434086 0.923403
v 2.831258 5.434086 -0.052168
v 2.057030 5.434086 -0.826399
v 1.081445 5.434086 -1.323492
v 0.000001 5.434086 -1.494772
v -1.081443 5.434086 -1.323492
v -2.057027 5.434086 -0.826399
v -2.831255 5.434086 -0.052168
v -3.328341 5.434086 0.923403
v -3.499624 5.434086 2.004850
v -3.328341 5.434086 3.086298
v -2.831255 5.434086 4.061888
v -2.057027 5.434086 4.836119
v -1.081442 5.434086 5.333193
v 0.000001 5.434086 5.504473
v 1.081445 5.434086 5.333193
v 2.057029 5.434086 4.836119
v 2.831256 5.434086 4.061888
v 3.328341 5.434086 3.086298
v 3.499625 5.434086 2.004850
v 8.801077 11.529383 -2.859652
v 7.486644 11.529383 -5.439360
v 5.439365 11.529383 -7.486650
v 2.859644 11.529383 -8.801081
v 0.000001 11.529383 -9.254000
v -2.859642 11.529383 -8.801081
v -5.439362 11.529383 -7.486650
v -7.486639 11.529383 -5.439360
v -8.801072 11.529383 -2.859652
v -9.253996 11.529383 -0.000002
v -8.801072 11.529383 2.859648
v -7.486639 11.529383 5.439356
v -5.439361 11.529383 7.486628
v -2.859641 11.529383 8.801077
v 0.000001 11.529383 9.253996
v 2.859642 11.529383 8.801077
v 5.439362 11.529383 7.486628
v 7.486639 11.529383 5.439356
v 8.801072 11.529383 2.859648
v 9.253996 11.529383 -0.000002
v 9.045093 14.619553 -2.938921
v 7.694215 14.619553 -5.590174
v 5.590175 14.619553 -7.694208
v 2.938929 14.619553 -9.045088
v 0.000001 14.619553 -9.510576
v -2.938927 14.619553 -9.045088
v -5.590171 14.619553 -7.694208
v -7.694211 14.619553 -5.590174
v -9.045086 14.619553 -2.938921
v -9.510567 14.619553 -0.000002
v -9.045086 14.619553 2.938917
v -7.694210 14.619553 5.590170
v -5.590170 14.619553 7.694204
v -2.938926 14.619553 9.045084
v 0.000001 14.619553 9.510572
v 2.938927 14.619553 9.045084
v 5.590171 14.619553 7.694204
v 7.694211 14.619553 5.590170
v 9.045087 14.619553 2.938917
v 9.510567 14.619553 -0.000002
v 7.694215 17.407236 -2.500002
v 6.545091 17.407236 -4.755289
v 4.755287 17.407236 -6.545088
v 2.500002 17.407236 -7.694208
v 0.000001 17.407236 -8.090174
v -2.500000 17.407236 -7.694208
v -4.755283 17.407236 -6.545088
v -6.545086 17.407236 -4.755289
v -7.694210 17.407236 -2.500002
v -8.090171 17.407236 -0.000002
v -7.694210 17.407236 2.499998
v -6.545085 17.407236 4.755285
v -4.755282 17.407236 6.545084
v -2.499999 17.407236 7.694204
v 0.000001 17.407236 8.090170
v 2.500001 17.407236 7.694204
v 4.755284 17.407236 6.545084
v 6.545086 17.407236 4.755285
v 7.694211 17.407236 2.499998
v 8.090171 17.407236 -0.000002
v 5.590175 19.619553 -1.816351
v 4.755287 19.619553 -3.454916
v 3.454918 19.619553 -4.755289
v 1.816358 19.619553 -5.590174
v 0.000001 19.619553 -5.877859
v -1.816356 19.619553 -5.590174
v -3.454915 19.619553 -4.755289
v -4.755282 19.619553 -3.454916
v -5.590170 19.619553 -1.816351
v -5.877852 19.619553 -0.000002
v -5.590170 19.619553 1.816347
v -4.755282 19.619553 3.454912
v -3.454915 19.619553 4.755285
v -1.816355 19.619553 5.590170
v 0.000001 19.619553 5.877855
v 1.816357 19.619553 5.590170
v 3.454916 19.619553 4.755285
v 4.755284 19.619553 3.454912
v 5.590171 19.619553 1.816347
v 5.877854 19.619553 -0.000002
v 2.938930 21.039948 -0.954916
v 2.500003 21.039948 -1.816351
v 1.816359 21.039948 -2.500002
v 0.954917 21.039948 -2.938921
v 0.000001 21.039948 -3.090174
v -0.954914 21.039948 -2.938921
v -1.816356 21.039948 -2.500002
v -2.500000 21.039948 -1.816351
v -2.938926 21.039948 -0.954916
v -3.090169 21.039948 -0.000002
v -2.938926 21.039948 0.954912
v -2.499999 21.039948 1.816347
v -1.816355 21.039948 2.499998
v -0.954914 21.039948 2.938917
v 0.000001 21.039948 3.090170
v 0.954916 21.039948 2.938917
v 1.816357 21.039948 2.499998
v 2.500001 21.039948 1.816347
v 2.938928 21.039948 0.954912
v 3.090171 21.039948 -0.000002
v 0.000001 21.529385 -0.000002
vt 0.212356 0.229468
vt 0.221207 0.231709
vt 0.212740 0.283722
vt 0.203628 0.282655
vt 0.229866 0.233705
vt 0.221729 0.284796
vt 0.238435 0.235372
vt 0.230614 0.285861
vt 0.247019 0.236670
vt 0.239411 0.286915
vt 0.255714 0.237590
vt 0.248126 0.287966
vt 0.264613 0.238174
vt 0.256765 0.289048
vt 0.273830 0.238491
vt 0.265328 0.290210
vt 0.283472 0.238656
vt 0.273818 0.291519
vt 0.293649 0.238841
vt 0.282230 0.293056
vt 0.304449 0.239281
vt 0.114475 0.287985
vt 0.106825 0.227245
vt 0.122962 0.285394
vt 0.118488 0.223791
vt 0.131584 0.283271
vt 0.130517 0.221251
vt 0.140327 0.281649
vt 0.142711 0.219773
vt 0.149175 0.280541
vt 0.154819 0.219392
vt 0.158104 0.279940
vt 0.166579 0.220020
vt 0.167094 0.279811
vt 0.177781 0.221472
vt 0.176133 0.280100
vt 0.188300 0.223495
vt 0.185222 0.280730
vt 0.198106 0.225810
vt 0.194378 0.281615
vt 0.211045 0.171706
vt 0.221519 0.176605
vt 0.231874 0.180663
vt 0.242252 0.183682
vt 0.252735 0.185562
vt 0.263347 0.186270
vt 0.274089 0.185832
vt 0.284996 0.184353
vt 0.296126 0.182045
vt 0.307580 0.179248
vt 0.089210 0.163702
vt 0.101160 0.158099
vt 0.113673 0.153576
vt 0.126683 0.150560
vt 0.139959 0.149324
vt 0.153182 0.149956
vt 0.166021 0.152341
vt 0.178233 0.156184
vt 0.189727 0.161036
vt 0.200590 0.166383
vt 0.211447 0.107960
vt 0.222902 0.113864
vt 0.234814 0.118832
vt 0.247118 0.122583
vt 0.259659 0.124938
vt 0.272297 0.125820
vt 0.284891 0.125223
vt 0.297276 0.123245
vt 0.309380 0.120128
vt 0.321267 0.116291
vt 0.333120 0.112308
vt 0.101864 0.089227
vt 0.114050 0.084543
vt 0.126735 0.081532
vt 0.139724 0.080494
vt 0.152703 0.081536
vt 0.165357 0.084552
vt 0.177482 0.089229
vt 0.189056 0.095080
vt 0.200269 0.101523
vt 0.605805 0.163324
vt 0.612428 0.392591
vt 0.504294 0.397449
vt 0.433061 0.261455
vt 0.783905 0.251289
vt 0.720644 0.391254
vt 0.892087 0.358954
vt 0.802060 0.443924
vt 0.952390 0.473700
vt 0.853309 0.518019
vt 0.974912 0.587477
vt 0.876440 0.598778
vt 0.966200 0.693990
vt 0.874884 0.677880
vt 0.931495 0.788576
vt 0.852147 0.749828
vt 0.875430 0.867272
vt 0.811935 0.810393
vt 0.802879 0.926656
vt 0.758158 0.856527
vt 0.719050 0.964185
vt 0.695033 0.885800
vt 0.629387 0.978612
vt 0.626968 0.897091
vt 0.538888 0.969451
vt 0.558395 0.889793
vt 0.453028 0.936776
vt 0.493665 0.864131
vt 0.377177 0.881699
vt 0.437351 0.821274
vt 0.316816 0.806387
vt 0.393724 0.763124
vt 0.276714 0.714009
vt 0.366931 0.692660
vt 0.261801 0.608045
vt 0.360772 0.613693
vt 0.277758 0.493140
vt 0.379243 0.531616
vt 0.331317 0.375143
vt 0.426088 0.454750
vt 0.614729 0.473010
vt 0.546664 0.483692
vt 0.683302 0.479775
vt 0.739903 0.510741
vt 0.778920 0.557879
vt 0.799027 0.612781
vt 0.801030 0.668825
vt 0.786925 0.721138
vt 0.759199 0.765953
vt 0.720737 0.800369
vt 0.674856 0.822386
vt 0.625057 0.830835
vt 0.574839 0.825273
vt 0.527799 0.805916
vt 0.487463 0.773792
vt 0.457202 0.730749
vt 0.440095 0.679351
vt 0.438877 0.623169
vt 0.455773 0.567195
vt 0.491991 0.517906
vt 0.616797 0.543619
vt 0.576595 0.551074
vt 0.657355 0.548813
vt 0.692530 0.566717
vt 0.718474 0.594521
vt 0.733230 0.628289
vt 0.736426 0.663993
vt 0.728714 0.698229
vt 0.711509 0.728127
vt 0.686667 0.751357
vt 0.656476 0.766320
vt 0.623398 0.772062
vt 0.590084 0.768188
vt 0.559079 0.754964
vt 0.532943 0.733224
vt 0.514018 0.704461
vt 0.504309 0.670717
vt 0.505377 0.634798
vt 0.518170 0.600214
vt 0.542464 0.570951
vt 0.618552 0.605709
vt 0.600087 0.609197
vt 0.637155 0.608155
vt 0.653805 0.616200
vt 0.666701 0.628917
vt 0.674649 0.644790
vt 0.677092 0.662097
vt 0.674018 0.679138
vt 0.665955 0.694282
vt 0.653764 0.706247
vt 0.638588 0.714030
vt 0.621833 0.716997
vt 0.604917 0.714960
vt 0.589334 0.708024
vt 0.576455 0.696795
vt 0.567481 0.682157
vt 0.563436 0.665336
vt 0.564822 0.647928
vt 0.571828 0.631606
vt 0.583941 0.618192
vt 0.620218 0.662551
vt 0.319493 0.176428
vt 0.095624 0.231404
vt 0.290556 0.294913
vt 0.090192 0.095114
vn 0.944052 0.036888 -0.327729
vn 0.798650 -0.021405 -0.601415
vn 0.798213 0.162880 -0.579937
vn 0.938356 0.162880 -0.304890
vn 0.576370 -0.066247 -0.814499
vn 0.579935 0.162880 -0.798214
vn 0.301415 -0.094266 -0.948822
vn 0.304895 0.162880 -0.938355
vn 0.000000 -0.103771 -0.994601
vn 0.000000 0.162880 -0.986646
vn -0.301415 -0.094266 -0.948822
vn -0.304895 0.162880 -0.938354
vn -0.576370 -0.066247 -0.814499
vn -0.579936 0.162880 -0.798213
vn -0.798650 -0.021405 -0.601415
vn -0.798213 0.162880 -0.579936
vn -0.944051 0.036888 -0.327729
vn -0.938356 0.162880 -0.304890
vn -0.994449 0.103179 -0.020634
vn -0.986646 0.162880 0.000000
vn -0.942905 0.170265 0.286250
vn -0.938356 0.162880 0.304890
vn -0.796411 0.230519 0.559098
vn -0.798213 0.162880 0.579936
vn -0.573682 0.277557 0.770617
vn -0.579936 0.162880 0.798213
vn -0.299543 0.307182 0.903279
vn -0.304896 0.162880 0.938354
vn 0.000000 0.317263 0.948338
vn 0.000000 0.162880 0.986646
vn 0.299543 0.307182 0.903279
vn 0.304896 0.162880 0.938354
vn 0.573682 0.277557 0.770617
vn 0.579936 0.162880 0.798213
vn 0.796411 0.230519 0.559098
vn 0.798213 0.162880 0.579936
vn 0.942905 0.170265 0.286250
vn 0.938356 0.162880 0.304890
vn 0.994449 0.103179 -0.020633
vn 0.986646 0.162880 0.000001
vn 0.941383 -0.122630 -0.314262
vn 0.779820 -0.248782 -0.574446
vn 0.549327 -0.339780 -0.763406
vn 0.282076 -0.393298 -0.875072
vn 0.000000 -0.410818 -0.911717
vn -0.282076 -0.393298 -0.875072
vn -0.549328 -0.339780 -0.763406
vn -0.779820 -0.248782 -0.574446
vn -0.941383 -0.122630 -0.314262
vn -0.999605 0.026758 -0.008648
vn -0.938496 0.177119 0.296401
vn -0.774260 0.305238 0.554392
vn -0.542932 0.397758 0.739604
vn -0.277808 0.451961 0.847676
vn -0.000000 0.469642 0.882857
vn 0.277808 0.451961 0.847676
vn 0.542932 0.397758 0.739604
vn 0.774261 0.305238 0.554392
vn 0.938496 0.177119 0.296401
vn 0.999605 0.026758 -0.008647
vn 0.953645 -0.155002 -0.257945
vn 0.790073 -0.315745 -0.525443
vn 0.552073 -0.429463 -0.714687
vn 0.281175 -0.494290 -0.822568
vn 0.000000 -0.515070 -0.857148
vn -0.281175 -0.494290 -0.822568
vn -0.552073 -0.429463 -0.714687
vn -0.790073 -0.315745 -0.525443
vn -0.953645 -0.155003 -0.257946
vn -0.998035 0.032274 0.053708
vn -0.912897 0.210247 0.349880
vn -0.732560 0.350609 0.583463
vn -0.502805 0.445226 0.740919
vn -0.254050 0.498171 0.829026
vn 0.000000 0.515070 0.857148
vn 0.254050 0.498171 0.829026
vn 0.502805 0.445226 0.740919
vn 0.732560 0.350609 0.583463
vn 0.912897 0.210247 0.349880
vn 0.998035 0.032274 0.053709
vn 0.806243 -0.082743 -0.585770
vn 0.795805 0.179987 -0.578186
vn 0.935525 0.179987 -0.303969
vn 0.947795 -0.082743 -0.307957
vn 0.585770 -0.082742 -0.806243
vn 0.578186 0.179987 -0.795805
vn 0.307958 -0.082742 -0.947795
vn 0.303971 0.179988 -0.935525
vn -0.000000 -0.082743 -0.996571
vn 0.000000 0.179988 -0.983669
vn -0.307958 -0.082742 -0.947795
vn -0.303971 0.179988 -0.935525
vn -0.585770 -0.082742 -0.806243
vn -0.578186 0.179987 -0.795805
vn -0.806243 -0.082743 -0.585769
vn -0.795805 0.179987 -0.578186
vn -0.947795 -0.082743 -0.307958
vn -0.935525 0.179987 -0.303970
vn -0.996571 -0.082743 0.000000
vn -0.983669 0.179987 0.000000
vn -0.947795 -0.082743 0.307958
vn -0.935525 0.179987 0.303970
vn -0.806242 -0.082744 0.585770
vn -0.795805 0.179987 0.578186
vn -0.585770 -0.082744 0.806242
vn -0.578186 0.179986 0.795805
vn -0.307959 -0.082743 0.947795
vn -0.303972 0.179987 0.935524
vn 0.000000 -0.082743 0.996571
vn 0.000000 0.179988 0.983669
vn 0.307959 -0.082743 0.947795
vn 0.303972 0.179987 0.935524
vn 0.585770 -0.082744 0.806242
vn 0.578186 0.179986 0.795805
vn 0.806242 -0.082744 0.585770
vn 0.795805 0.179986 0.578186
vn 0.947795 -0.082743 0.307958
vn 0.935525 0.179987 0.303970
vn 0.996571 -0.082743 0.000001
vn 0.983669 0.179987 0.000001
vn 0.667256 0.565463 -0.484790
vn 0.784406 0.565463 -0.254868
vn 0.484789 0.565463 -0.667256
vn 0.254870 0.565463 -0.784406
vn -0.000000 0.565464 -0.824773
vn -0.254870 0.565463 -0.784406
vn -0.484789 0.565463 -0.667256
vn -0.667256 0.565463 -0.484789
vn -0.784406 0.565463 -0.254869
vn -0.824773 0.565463 0.000000
vn -0.784406 0.565463 0.254869
vn -0.667256 0.565463 0.484789
vn -0.484789 0.565463 0.667256
vn -0.254870 0.565463 0.784406
vn 0.000000 0.565464 0.824773
vn 0.254870 0.565463 0.784406
vn 0.484789 0.565463 0.667256
vn 0.667256 0.565463 0.484789
vn 0.784406 0.565463 0.254869
vn 0.824773 0.565463 0.000001
vn 0.505396 0.780862 -0.367191
vn 0.594129 0.780862 -0.193043
vn 0.367191 0.780862 -0.505396
vn 0.193044 0.780861 -0.594129
vn 0.000000 0.780862 -0.624704
vn -0.193044 0.780862 -0.594129
vn -0.367192 0.780862 -0.505396
vn -0.505396 0.780862 -0.367191
vn -0.594129 0.780862 -0.193044
vn -0.624704 0.780862 0.000000
vn -0.594129 0.780862 0.193044
vn -0.505396 0.780862 0.367191
vn -0.367192 0.780862 0.505396
vn -0.193044 0.780862 0.594129
vn 0.000000 0.780862 0.624704
vn 0.193044 0.780862 0.594129
vn 0.367192 0.780862 0.505396
vn 0.505396 0.780862 0.367191
vn 0.594129 0.780862 0.193044
vn 0.624704 0.780862 0.000001
vn 0.316558 0.920269 -0.229992
vn 0.372137 0.920269 -0.120914
vn 0.229993 0.920269 -0.316558
vn 0.120914 0.920269 -0.372136
vn 0.000000 0.920269 -0.391287
vn -0.120914 0.920269 -0.372136
vn -0.229993 0.920269 -0.316558
vn -0.316558 0.920269 -0.229992
vn -0.372136 0.920269 -0.120914
vn -0.391287 0.920269 -0.000000
vn -0.372136 0.920269 0.120914
vn -0.316558 0.920269 0.229992
vn -0.229993 0.920269 0.316558
vn -0.120914 0.920269 0.372135
vn -0.000000 0.920269 0.391287
vn 0.120914 0.920269 0.372136
vn 0.229993 0.920269 0.316558
vn 0.316558 0.920269 0.229992
vn 0.372137 0.920269 0.120915
vn 0.391287 0.920269 0.000000
vn -0.000000 1.000000 -0.000000
s 1
g Mushroom_Solo
usemtl initialShadingGroup
f 41/1/1 42/2/2 22/3/3 21/4/4
f 42/2/2 43/5/5 23/6/6 22/3/3
f 43/5/5 44/7/7 24/8/8 23/6/6
f 44/7/7 45/9/9 25/10/10 24/8/8
f 45/9/9 46/11/11 26/12/12 25/10/10
f 46/11/11 47/13/13 27/14/14 26/12/12
f 47/13/13 48/15/15 28/16/16 27/14/14
f 48/15/15 49/17/17 29/18/18 28/16/16
f 49/17/17 50/19/19 30/20/20 29/18/18
f 50/19/19 51/21/21 31/184/22 30/20/20
f 51/183/21 52/23/23 32/24/24 31/22/22
f 52/23/23 53/25/25 33/26/26 32/24/24
f 53/25/25 54/27/27 34/28/28 33/26/26
f 54/27/27 55/29/29 35/30/30 34/28/28
f 55/29/29 56/31/31 36/32/32 35/30/30
f 56/31/31 57/33/33 37/34/34 36/32/32
f 57/33/33 58/35/35 38/36/36 37/34/34
f 58/35/35 59/37/37 39/38/38 38/36/36
f 59/37/37 60/39/39 40/40/40 39/38/38
f 60/39/39 41/1/1 21/4/4 40/40/40
f 61/41/41 62/42/42 42/2/2 41/1/1
f 62/42/42 63/43/43 43/5/5 42/2/2
f 63/43/43 64/44/44 44/7/7 43/5/5
f 64/44/44 65/45/45 45/9/9 44/7/7
f 65/45/45 66/46/46 46/11/11 45/9/9
f 66/46/46 67/47/47 47/13/13 46/11/11
f 67/47/47 68/48/48 48/15/15 47/13/13
f 68/48/48 69/49/49 49/17/17 48/15/15
f 69/49/49 70/50/50 50/19/19 49/17/17
f 70/50/50 71/182/51 51/21/21 50/19/19
f 71/51/51 72/52/52 52/23/23 51/183/21
f 72/52/52 73/53/53 53/25/25 52/23/23
f 73/53/53 74/54/54 54/27/27 53/25/25
f 74/54/54 75/55/55 55/29/29 54/27/27
f 75/55/55 76/56/56 56/31/31 55/29/29
f 76/56/56 77/57/57 57/33/33 56/31/31
f 77/57/57 78/58/58 58/35/35 57/33/33
f 78/58/58 79/59/59 59/37/37 58/35/35
f 79/59/59 80/60/60 60/39/39 59/37/37
f 80/60/60 61/41/41 41/1/1 60/39/39
f 1/61/61 2/62/62 62/42/42 61/41/41
f 2/62/62 3/63/63 63/43/43 62/42/42
f 3/63/63 4/64/64 64/44/44 63/43/43
f 4/64/64 5/65/65 65/45/45 64/44/44
f 5/65/65 6/66/66 66/46/46 65/45/45
f 6/66/66 7/67/67 67/47/47 66/46/46
f 7/67/67 8/68/68 68/48/48 67/47/47
f 8/68/68 9/69/69 69/49/49 68/48/48
f 9/69/69 10/70/70 70/50/50 69/49/49
f 10/70/70 11/71/71 71/182/51 70/50/50
f 11/185/71 12/72/72 72/52/52 71/51/51
f 12/72/72 13/73/73 73/53/53 72/52/52
f 13/73/73 14/74/74 74/54/54 73/53/53
f 14/74/74 15/75/75 75/55/55 74/54/54
f 15/75/75 16/76/76 76/56/56 75/55/55
f 16/76/76 17/77/77 77/57/57 76/56/56
f 17/77/77 18/78/78 78/58/58 77/57/57
f 18/78/78 19/79/79 79/59/59 78/58/58
f 19/79/79 20/80/80 80/60/60 79/59/59
f 20/80/80 1/61/61 61/41/41 80/60/60
s 2
f 82/81/81 102/82/82 101/83/83 81/84/84
f 83/85/85 103/86/86 102/82/82 82/81/81
f 84/87/87 104/88/88 103/86/86 83/85/85
f 85/89/89 105/90/90 104/88/88 84/87/87
f 86/91/91 106/92/92 105/90/90 85/89/89
f 87/93/93 107/94/94 106/92/92 86/91/91
f 88/95/95 108/96/96 107/94/94 87/93/93
f 89/97/97 109/98/98 108/96/96 88/95/95
f 90/99/99 110/100/100 109/98/98 89/97/97
f 91/101/101 111/102/102 110/100/100 90/99/99
f 92/103/103 112/104/104 111/102/102 91/101/101
f 93/105/105 113/106/106 112/104/104 92/103/103
f 94/107/107 114/108/108 113/106/106 93/105/105
f 95/109/109 115/110/110 114/108/108 94/107/107
f 96/111/111 116/112/112 115/110/110 95/109/109
f 97/113/113 117/114/114 116/112/112 96/111/111
f 98/115/115 118/116/116 117/114/114 97/113/113
f 99/117/117 119/118/118 118/116/116 98/115/115
f 100/119/119 120/120/120 119/118/118 99/117/117
f 81/84/84 101/83/83 120/120/120 100/119/119
f 102/82/82 122/121/121 121/122/122 101/83/83
f 103/86/86 123/123/123 122/121/121 102/82/82
f 104/88/88 124/124/124 123/123/123 103/86/86
f 105/90/90 125/125/125 124/124/124 104/88/88
f 106/92/92 126/126/126 125/125/125 105/90/90
f 107/94/94 127/127/127 126/126/126 106/92/92
f 108/96/96 128/128/128 127/127/127 107/94/94
f 109/98/98 129/129/129 128/128/128 108/96/96
f 110/100/100 130/130/130 129/129/129 109/98/98
f 111/102/102 131/131/131 130/130/130 110/100/100
f 112/104/104 132/132/132 131/131/131 111/102/102
f 113/106/106 133/133/133 132/132/132 112/104/104
f 114/108/108 134/134/134 133/133/133 113/106/106
f 115/110/110 135/135/135 134/134/134 114/108/108
f 116/112/112 136/136/136 135/135/135 115/110/110
f 117/114/114 137/137/137 136/136/136 116/112/112
f 118/116/116 138/138/138 137/137/137 117/114/114
f 119/118/118 139/139/139 138/138/138 118/116/116
f 120/120/120 140/140/140 139/139/139 119/118/118
f 101/83/83 121/122/122 140/140/140 120/120/120
f 122/121/121 142/141/141 141/142/142 121/122/122
f 123/123/123 143/143/143 142/141/141 122/121/121
f 124/124/124 144/144/144 143/143/143 123/123/123
f 125/125/125 145/145/145 144/144/144 124/124/124
f 126/126/126 146/146/146 145/145/145 125/125/125
f 127/127/127 147/147/147 146/146/146 126/126/126
f 128/128/128 148/148/148 147/147/147 127/127/127
f 129/129/129 149/149/149 148/148/148 128/128/128
f 130/130/130 150/150/150 149/149/149 129/129/129
f 131/131/131 151/151/151 150/150/150 130/130/130
f 132/132/132 152/152/152 151/151/151 131/131/131
f 133/133/133 153/153/153 152/152/152 132/132/132
f 134/134/134 154/154/154 153/153/153 133/133/133
f 135/135/135 155/155/155 154/154/154 134/134/134
f 136/136/136 156/156/156 155/155/155 135/135/135
f 137/137/137 157/157/157 156/156/156 136/136/136
f 138/138/138 158/158/158 157/157/157 137/137/137
f 139/139/139 159/159/159 158/158/158 138/138/138
f 140/140/140 160/160/160 159/159/159 139/139/139
f 121/122/122 141/142/142 160/160/160 140/140/140
f 142/141/141 162/161/161 161/162/162 141/142/142
f 143/143/143 163/163/163 162/161/161 142/141/141
f 144/144/144 164/164/164 163/163/163 143/143/143
f 145/145/145 165/165/165 164/164/164 144/144/144
f 146/146/146 166/166/166 165/165/165 145/145/145
f 147/147/147 167/167/167 166/166/166 146/146/146
f 148/148/148 168/168/168 167/167/167 147/147/147
f 149/149/149 169/169/169 168/168/168 148/148/148
f 150/150/150 170/170/170 169/169/169 149/149/149
f 151/151/151 171/171/171 170/170/170 150/150/150
f 152/152/152 172/172/172 171/171/171 151/151/151
f 153/153/153 173/173/173 172/172/172 152/152/152
f 154/154/154 174/174/174 173/173/173 153/153/153
f 155/155/155 175/175/175 174/174/174 154/154/154
f 156/156/156 176/176/176 175/175/175 155/155/155
f 157/157/157 177/177/177 176/176/176 156/156/156
f 158/158/158 178/178/178 177/177/177 157/157/157
f 159/159/159 179/179/179 178/178/178 158/158/158
f 160/160/160 180/180/180 179/179/179 159/159/159
f 141/142/142 161/162/162 180/180/180 160/160/160
f 162/161/161 181/181/181 161/162/162
f 163/163/163 181/181/181 162/161/161
f 164/164/164 181/181/181 163/163/163
f 165/165/165 181/181/181 164/164/164
f 166/166/166 181/181/181 165/165/165
f 167/167/167 181/181/181 166/166/166
f 168/168/168 181/181/181 167/167/167
f 169/169/169 181/181/181 168/168/168
f 170/170/170 181/181/181 169/169/169
f 171/171/171 181/181/181 170/170/170
f 172/172/172 181/181/181 171/171/171
f 173/173/173 181/181/181 172/172/172
f 174/174/174 181/181/181 173/173/173
f 175/175/175 181/181/181 174/174/174
f 176/176/176 181/181/181 175/175/175
f 177/177/177 181/181/181 176/176/176
f 178/178/178 181/181/181 177/177/177
f 179/179/179 181/181/181 178/178/178
f 180/180/180 181/181/181 179/179/179
f 161/162/162 181/181/181 180/180/180
