# This file uses centimeters as units for non-parametric coordinates.

mtllib Rock 3.mtl
g default
v -6.676186 -8.390468 -13.939285
v -14.165754 -9.076077 -13.742981
v -11.803931 29.560385 -13.904114
v -14.222294 25.270290 -13.850174
v -10.011253 29.825649 -12.286797
v -12.694348 30.396040 -10.953293
v 1.115632 -6.048653 -5.226440
v -10.074838 -5.927238 10.220871
v -6.597529 -2.703511 -14.037514
v -15.816668 4.021663 -15.390587
v -10.406025 13.642839 -1.801414
v -1.336680 3.435694 -5.322685
v -5.285686 17.455389 -8.892555
v -11.738266 22.880322 -6.168404
v -15.533216 14.325418 -14.994125
v -9.205869 14.250862 -14.372139
v -6.824875 -5.217527 -14.140091
v -14.931488 -3.254733 -14.497528
v -10.369520 2.206621 2.442513
v 0.061402 -1.519004 -5.427742
v 17.007380 -4.142367 13.001289
v 17.262909 -4.142367 4.641724
v 8.696709 24.747343 12.074966
v 9.701527 21.649729 8.865852
v 6.612247 24.592886 14.256287
v 5.002584 25.038685 11.490860
v 4.474871 -4.142367 24.623833
v -2.941779 -4.142367 12.909050
v 15.845725 -0.189832 13.791466
v 16.382614 5.796993 4.287376
v -2.351389 10.837704 12.851753
v 3.757615 2.887862 21.263199
v 5.088315 14.352244 18.283997
v 0.890175 18.578619 12.091789
v 13.586299 13.568884 5.929985
v 12.569771 12.961358 12.989922
v 16.542171 -2.073679 13.214912
v 16.898214 0.065766 4.447517
v -2.018207 1.867110 11.648407
v 4.930120 -0.973837 22.181091
vt 0.601310 0.590493
vt 0.626402 0.519372
vt 0.697436 0.966928
vt 0.937985 0.665248
vt 0.161921 0.836938
vt 0.993593 0.689367
vt 0.489261 0.633471
vt 0.384764 0.473037
vt 0.619786 0.121673
vt 0.611596 0.647696
vt 0.753090 0.559302
vt 0.260384 0.670354
vt 0.515020 0.283237
vt 0.521344 0.726965
vt 0.401664 0.678159
vt 0.597327 0.858014
vt 0.278328 0.764389
vt 0.191135 0.747102
vt 0.566671 0.193926
vt 0.844803 0.605954
vt 0.659000 0.814583
vt 0.609561 0.622203
vt 0.639381 0.461445
vt 0.338341 0.576029
vt 0.467200 0.395745
vt 0.505127 0.677627
vt 0.448527 0.656366
vt 0.682859 0.537037
vt 0.654921 0.389089
vt 0.630908 0.602386
vt 0.652787 0.615036
vt 0.817197 0.663045
vt 0.656943 0.285788
vt 0.648832 0.175165
vt 0.282222 0.061397
vt 0.348418 0.109892
vt 0.329329 0.168267
vt 0.277668 0.160404
vt 0.273840 0.251284
vt 0.299682 0.230229
vt 0.288661 0.274603
vt 0.264569 0.273019
vt 0.228378 0.348786
vt 0.290932 0.331918
vt 0.286712 0.395175
vt 0.195102 0.432832
vt 0.157204 0.481791
vt 0.259280 0.506906
vt 0.192304 0.658294
vt 0.149753 0.611245
vt 0.389583 0.140432
vt 0.401946 0.291103
vt 0.342095 0.286580
vt 0.344220 0.179752
vt 0.083126 0.267107
vt 0.093929 0.152735
vt 0.189122 0.202152
vt 0.177089 0.274272
vt 0.287963 0.047270
vt 0.350546 0.067943
vt 0.427425 0.124566
vt 0.461134 0.265410
vt 0.275053 0.462628
vt 0.177136 0.458613
vt 0.053203 0.253781
vt 0.082120 0.141208
vt 0.290909 0.031996
vt 0.351733 0.037113
vt 0.455321 0.113181
vt 0.505109 0.260572
vt 0.021840 0.259181
vt 0.067879 0.132233
vt 0.986282 0.718863
vt 0.137141 0.818984
vt 0.966137 0.705457
vt 0.673691 0.973198
vn 0.094989 -0.032814 -0.994937
vn 0.122520 0.001746 -0.992465
vn 0.098493 0.030523 -0.994670
vn 0.101278 0.029104 -0.994432
vn -0.610149 0.694740 -0.380860
vn -0.610149 0.694740 -0.380860
vn -0.610149 0.694740 -0.380860
vn -0.610149 0.694740 -0.380860
vn 0.637326 0.384488 0.667821
vn 0.618217 0.410534 0.670276
vn 0.637411 0.337704 0.692578
vn 0.620961 0.271282 0.735401
vn 0.128994 -0.984537 0.118523
vn 0.128994 -0.984537 0.118523
vn 0.128994 -0.984537 0.118523
vn 0.128994 -0.984537 0.118523
vn -0.948883 0.031193 0.314084
vn -0.943568 0.028837 0.329920
vn -0.935575 0.048028 0.349847
vn -0.932857 0.031788 0.358841
vn 0.800747 0.103362 -0.590018
vn 0.794737 0.111565 -0.596612
vn 0.791527 0.103734 -0.602266
vn 0.784872 0.106948 -0.610360
vn 0.029350 -0.091680 -0.995356
vn 0.039851 -0.086432 -0.995460
vn -0.969237 0.040674 0.242745
vn -0.969752 0.040939 0.240635
vn 0.665020 0.353735 0.657739
vn 0.674892 0.378271 0.633587
vn 0.762152 0.111855 -0.637662
vn 0.758035 0.103088 -0.644016
vn 0.591028 0.445462 0.672495
vn 0.591028 0.445462 0.672495
vn -0.940332 0.083148 0.329941
vn -0.940333 0.083148 0.329941
vn 0.034451 0.062929 -0.997423
vn 0.034451 0.062929 -0.997423
vn 0.741572 0.126559 -0.658827
vn 0.741572 0.126559 -0.658827
vn 0.001638 -0.105459 -0.994422
vn 0.001638 -0.105459 -0.994422
vn -0.979229 0.046293 0.197403
vn -0.979229 0.046293 0.197403
vn 0.694951 0.434871 0.572652
vn 0.694951 0.434871 0.572652
vn 0.747955 0.082426 -0.658612
vn 0.747955 0.082426 -0.658612
vn 0.962376 0.218371 0.161697
vn 0.951948 0.246862 0.181257
vn 0.941723 0.292566 0.166022
vn 0.941329 0.295808 0.162472
vn 0.136367 0.900281 -0.413397
vn 0.136367 0.900281 -0.413397
vn 0.136367 0.900282 -0.413397
vn 0.136367 0.900282 -0.413397
vn -0.652582 0.310454 0.691199
vn -0.655783 0.339043 0.674536
vn -0.723823 0.180595 0.665933
vn -0.810903 0.001881 0.585178
vn 0.000000 -1.000000 0.000000
vn 0.000000 -1.000000 0.000000
vn 0.000000 -1.000000 0.000000
vn 0.000000 -1.000000 0.000000
vn -0.387775 0.049903 -0.920402
vn -0.393195 0.053793 -0.917880
vn -0.400803 0.090477 -0.911686
vn -0.404081 0.075649 -0.911590
vn 0.568503 0.181061 0.802509
vn 0.571259 0.191884 0.798025
vn 0.577905 0.184172 0.795052
vn 0.580596 0.187505 0.792307
vn 0.986058 0.141688 0.087254
vn 0.985277 0.143445 0.093015
vn -0.375847 -0.029604 -0.926209
vn -0.376342 -0.020860 -0.926246
vn -0.837981 0.065018 0.541812
vn -0.816509 0.185686 0.546657
vn 0.606662 0.274944 0.745900
vn 0.611299 0.282503 0.739260
vn -0.660206 0.399150 0.636245
vn -0.660206 0.399150 0.636245
vn -0.386121 0.152140 -0.909815
vn -0.386121 0.152140 -0.909815
vn 0.930385 0.353396 0.097443
vn 0.930385 0.353396 0.097443
vn 0.617225 0.234363 0.751071
vn 0.617225 0.234363 0.751071
vn 0.990068 0.130744 0.051686
vn 0.990068 0.130744 0.051686
vn -0.369838 -0.111112 -0.922428
vn -0.369838 -0.111112 -0.922428
vn -0.771756 0.334237 0.540997
vn -0.771756 0.334238 0.540997
vn 0.625666 0.306515 0.717350
vn 0.625666 0.306515 0.717350
s 1
g Rock_3
usemtl initialShadingGroup
f 9/31/1 10/11/2 15/20/3 16/32/4
s off
f 3/75/5 4/4/6 6/6/7 5/73/8
s 2
f 13/17/9 14/18/10 11/12/11 12/15/12
s off
f 7/7/13 8/8/14 2/2/15 1/1/16
s 3
f 10/29/17 11/13/18 14/19/19 15/33/20
s 4
f 12/14/21 9/10/22 16/21/23 13/16/24
s 1
f 17/30/25 18/28/26 10/11/2 9/31/1
s 3
f 18/23/27 19/25/28 11/13/18 10/29/17
s 2
f 12/15/12 11/12/11 19/24/29 20/27/30
s 4
f 20/26/31 17/22/32 9/10/22 12/14/21
s 2
f 5/5/33 6/74/34 14/18/10 13/17/9
s 3
f 15/33/20 14/19/19 6/9/35 4/34/36
s 1
f 16/32/4 15/20/3 4/4/37 3/75/38
s 4
f 13/16/24 16/21/23 3/3/39 5/76/40
s 1
f 1/1/41 2/2/42 18/28/26 17/30/25
s 3
f 2/2/43 8/8/44 19/25/28 18/23/27
s 2
f 20/27/30 19/24/29 8/8/45 7/7/46
s 4
f 7/7/47 1/1/48 17/22/32 20/26/31
s 5
f 29/35/49 30/36/50 35/37/51 36/38/52
s off
f 23/39/53 24/40/54 26/41/55 25/42/56
s 6
f 33/43/57 34/44/58 31/45/59 32/46/60
s off
f 27/47/61 28/48/62 22/49/63 21/50/64
s 7
f 30/51/65 31/52/66 34/53/67 35/54/68
s 8
f 32/55/69 29/56/70 36/57/71 33/58/72
s 5
f 37/59/73 38/60/74 30/36/50 29/35/49
s 7
f 38/61/75 39/62/76 31/52/66 30/51/65
s 6
f 32/46/60 31/45/59 39/63/77 40/64/78
s 8
f 40/65/79 37/66/80 29/56/70 32/55/69
s 6
f 25/42/81 26/41/82 34/44/58 33/43/57
s 7
f 35/54/68 34/53/67 26/41/83 24/40/84
s 5
f 36/38/52 35/37/51 24/40/85 23/39/86
s 8
f 33/58/72 36/57/71 23/39/87 25/42/88
s 5
f 21/67/89 22/68/90 38/60/74 37/59/73
s 7
f 22/69/91 28/70/92 39/62/76 38/61/75
s 6
f 40/64/78 39/63/77 28/48/93 27/47/94
s 8
f 27/71/95 21/72/96 37/66/80 40/65/79
