# File produced by Open Asset Import Library (http://www.assimp.sf.net)
# (assimp v3.1.193236683)

mtllib smShrineIce.mtl

# 142 vertex positions
v  -43.2436 0 23.2436
v  -43.2436 0 0
v  43.2436 0 0
v  43.2436 0 23.2436
v  -37.7621 152.035 -26.1972
v  -37.7621 128.02 -26.1972
v  -43.6621 128.02 -20.2973
v  -43.6621 152.035 -20.2973
v  50 6.75639 -23.2436
v  43.2436 0 -23.2436
v  43.2436 6.75639 -30
v  -43.6621 152.035 20.2973
v  -43.6621 152.035 0
v  -43.6621 128.02 0
v  -43.6621 128.02 20.2973
v  43.2436 6.75639 30
v  -43.2436 6.75639 30
v  50 6.75639 23.2436
v  37.7621 152.035 -26.1972
v  37.7621 128.02 -26.1972
v  50 6.75639 0
v  -37.7621 128.02 26.1972
v  -37.7621 152.035 26.1972
v  43.6621 152.035 -20.2973
v  43.6621 128.02 -20.2973
v  37.7621 128.02 26.1972
v  37.7621 152.035 26.1972
v  -63.8362 288.244 -23.2436
v  -57.0798 295 -23.2436
v  -57.0798 288.244 -30
v  43.6621 152.035 20.2973
v  43.6621 128.02 20.2973
v  43.6621 128.02 0
v  43.6621 152.035 0
v  -43.2436 271.742 -30
v  -43.2436 155 -30
v  -50 155 -23.2436
v  -50 267 -23.2436
v  -63.8362 288.244 23.2436
v  -57.0798 288.244 30
v  -57.0798 295 23.2436
v  -50 267 23.2436
v  -50 267 0
v  -50 155 0
v  -50 155 23.2436
v  63.8362 288.244 -23.2436
v  57.0798 288.244 -30
v  57.0798 295 -23.2436
v  -57.0798 276.742 -30
v  -63.8362 272 -23.2436
v  -43.2436 155 30
v  -43.2436 271.742 30
v  -50 288.244 -30
v  -50 295 -23.2436
v  -63.8362 272 23.2436
v  -63.8362 272 0
v  -63.8362 288.244 0
v  63.8362 288.244 23.2436
v  57.0798 295 23.2436
v  57.0798 288.244 30
v  -57.0798 295 0
v  50 267 -23.2436
v  50 155 -23.2436
v  43.2436 155 -30
v  43.2436 271.742 -30
v  -50 295 23.2436
v  -50 295 0
v  -57.0798 276.742 30
v  50 288.244 -30
v  -50 288.244 30
v  50 267 23.2436
v  50 155 23.2436
v  50 155 0
v  50 267 0
v  50 295 -23.2436
v  43.2436 271.742 30
v  43.2436 155 30
v  50 295 23.2436
v  50 295 0
v  63.8362 272 -23.2436
v  57.0798 276.742 -30
v  50 288.244 30
v  63.8362 272 23.2436
v  63.8362 272 0
v  63.8362 288.244 0
v  57.0798 295 0
v  57.0798 276.742 30
v  -50 6.75639 23.2436
v  -43.2436 0 -23.2436
v  -43.2436 6.75639 -30
v  -50 6.75639 -23.2436
v  -50 6.75639 0
v  10.4735 182.766 -30
v  -10.4735 182.766 -30
v  -8.68999 188.255 -24.5109
v  8.68999 188.255 -24.5109
v  -22.7507 198.471 -24.5109
v  -27.42 195.078 -30
v  -28.1214 215 -24.5109
v  -33.893 215 -30
v  -33.893 215 30
v  -27.42 195.078 30
v  -22.7507 198.471 24.5109
v  -28.1214 215 24.5109
v  -8.68999 188.255 24.5109
v  -10.4735 182.766 30
v  8.68999 188.255 24.5109
v  10.4735 182.766 30
v  -22.7507 231.529 -24.5109
v  -27.42 234.922 -30
v  -27.42 234.922 30
v  -22.7507 231.529 24.5109
v  27.42 195.078 -30
v  22.7507 198.471 -24.5109
v  22.7507 198.471 24.5109
v  27.42 195.078 30
v  -8.68999 241.745 -24.5109
v  -10.4735 247.234 -30
v  -10.4735 247.234 30
v  -8.68999 241.745 24.5109
v  33.893 215 -30
v  28.1214 215 -24.5109
v  28.1214 215 24.5109
v  33.893 215 30
v  8.68999 241.745 -24.5109
v  10.4735 247.234 -30
v  10.4735 247.234 30
v  8.68999 241.745 24.5109
v  27.42 234.922 -30
v  22.7507 231.529 -24.5109
v  22.7507 231.529 24.5109
v  27.42 234.922 30
v  -50 125.351 23.2436
v  -50 125.351 0
v  -43.2436 125.351 30
v  43.2436 125.351 30
v  50 125.351 23.2436
v  50 125.351 0
v  50 125.351 -23.2436
v  43.2436 125.351 -30
v  -43.2436 125.351 -30
v  -50 125.351 -23.2436

# 236 UV coordinates
vt 0.140658 0.54711 0
vt 0.138835 0.486609 0
vt 0.372178 0.476472 0
vt 0.37523 0.536819 0
vt 0.0777846 0.917081 0
vt 0.0777892 0.979027 0
vt 0.0562667 0.979029 0
vt 0.0562621 0.917082 0
vt 0.115603 0.577557 0
vt 0.118374 0.554068 0
vt 0.140999 0.572023 0
vt 0.636686 0.917039 0
vt 0.689042 0.917035 0
vt 0.689046 0.978981 0
vt 0.63669 0.978985 0
vt 0.376893 0.561575 0
vt 0.140999 0.572032 0
vt 0.402398 0.56663 0
vt 0.399112 0.542865 0
vt 0.272596 0.917066 0
vt 0.2726 0.979013 0
vt 0.465097 0.568676 0
vt 0.463076 0.543217 0
vt 0.615168 0.978987 0
vt 0.615163 0.91704 0
vt 0.294118 0.917064 0
vt 0.294123 0.979011 0
vt 0.420357 0.979002 0
vt 0.420352 0.917055 0
vt 0.572625 0.457698 0
vt 0.548782 0.464512 0
vt 0.56279 0.43846 0
vt 0.39883 0.917056 0
vt 0.398834 0.979003 0
vt 0.346479 0.979007 0
vt 0.346474 0.91706 0
vt 0.645485 0.403409 0
vt 0.953292 0.359595 0
vt 0.960383 0.380668 0
vt 0.667268 0.427864 0
vt 0.458194 0.0752065 0
vt 0.439777 0.0639268 0
vt 0.465343 0.0520265 0
vt 0.422764 0.161074 0
vt 0.480168 0.192651 0
vt 0.428421 0.466742 0
vt 0.374292 0.448453 0
vt 0.592744 0.0681497 0
vt 0.580847 0.0864077 0
vt 0.569438 0.0615122 0
vt 0.602603 0.426031 0
vt 0.645212 0.439604 0
vt 0.610558 0.4482 0
vt 0.353477 0.440862 0
vt 0.398331 0.139311 0
vt 0.585978 0.414467 0
vt 0.6015 0.403768 0
vt 0.571035 0.410973 0
vt 0.57764 0.395936 0
vt 0.447107 0.112546 0
vt 0.50615 0.126805 0
vt 0.497565 0.162263 0
vt 0.434412 0.145367 0
vt 0.517577 0.0885168 0
vt 0.0683042 0.0711207 0
vt 0.0626129 0.0469964 0
vt 0.0874528 0.0608215 0
vt 0.523493 0.0641197 0
vt 0.673468 0.106938 0
vt 0.959349 0.159361 0
vt 0.951087 0.179901 0
vt 0.651574 0.131117 0
vt 0.415993 0.0646034 0
vt 0.399825 0.0727714 0
vt 0.391524 0.0131189 0
vt 0.408429 0.00741947 0
vt 0.425533 0.102257 0
vt 0.610164 0.123634 0
vt 0.403134 0.0982235 0
vt 0.41641 0.0858331 0
vt 0.101458 0.161344 0
vt 0.15342 0.452671 0
vt 0.0991191 0.470663 0
vt 0.0440766 0.192722 0
vt 0.58451 0.126072 0
vt 0.125557 0.139223 0
vt 0.174228 0.444959 0
vt 0.129301 0.0703748 0
vt 0.137036 0.00820005 0
vt 0.629567 0.0801878 0
vt 0.660942 0.0955198 0
vt 0.617674 0.101213 0
vt 0.599025 0.109005 0
vt 0.122565 0.0946386 0
vt 0.576943 0.109396 0
vt 0.0778782 0.108811 0
vt 0.0890599 0.142269 0
vt 0.0251911 0.156204 0
vt 0.0180552 0.120385 0
vt 0.0085549 0.0811869 0
vt 0.113731 0.0635219 0
vt 0.119551 0.00390625 0
vt 0.0998429 0.0992685 0
vt 0.00390625 0.057137 0
vt 0.110104 0.0804021 0
vt 0.118372 0.554078 0
vt 0.115603 0.577568 0
vt 0.140658 0.547102 0
vt 0.375233 0.536817 0
vt 0.376894 0.561574 0
vt 0.399114 0.542864 0
vt 0.402398 0.56663 0
vt 0.0539341 0.555576 0
vt 0.0531193 0.581545 0
vt 0.875088 0.244893 0
vt 0.87524 0.291906 0
vt 0.855931 0.286763 0
vt 0.854765 0.247459 0
vt 0.831656 0.321712 0
vt 0.844571 0.336226 0
vt 0.793195 0.338594 0
vt 0.794049 0.358518 0
vt 0.352944 0.282337 0
vt 0.330665 0.333376 0
vt 0.31886 0.318929 0
vt 0.333565 0.277799 0
vt 0.284546 0.345275 0
vt 0.286939 0.365504 0
vt 0.245326 0.346647 0
vt 0.240034 0.366033 0
vt 0.75155 0.328887 0
vt 0.740286 0.347179 0
vt 0.340833 0.228977 0
vt 0.321146 0.238192 0
vt 0.842743 0.201182 0
vt 0.828387 0.213011 0
vt 0.210225 0.322344 0
vt 0.195783 0.335388 0
vt 0.724714 0.294301 0
vt 0.705806 0.30133 0
vt 0.292207 0.195621 0
vt 0.283285 0.212804 0
vt 0.792278 0.178332 0
vt 0.787411 0.197934 0
vt 0.192816 0.284435 0
vt 0.172787 0.285511 0
vt 0.72241 0.247952 0
vt 0.705499 0.238772 0
vt 0.229547 0.197151 0
vt 0.236479 0.215827 0
vt 0.739192 0.190027 0
vt 0.748081 0.209992 0
vt 0.202109 0.2428 0
vt 0.183489 0.231831 0
vt 0.696879 0.656987 0
vt 0.696902 0.530538 0
vt 0.741732 0.530546 0
vt 0.74171 0.656995 0
vt 0.786563 0.530554 0
vt 0.786541 0.657003 0
vt 0.652048 0.656979 0
vt 0.652071 0.53053 0
vt 0.831394 0.530562 0
vt 0.831372 0.657011 0
vt 0.607217 0.656971 0
vt 0.60724 0.530522 0
vt 0.876225 0.53057 0
vt 0.876202 0.657019 0
vt 0.562387 0.656963 0
vt 0.562409 0.530514 0
vt 0.921056 0.530578 0
vt 0.921033 0.657027 0
vt 0.517556 0.656955 0
vt 0.517578 0.530506 0
vt 0.472725 0.656947 0
vt 0.472747 0.530498 0
vt 0.136849 0.872288 0
vt 0.0830693 0.892322 0
vt 0.159524 0.86846 0
vt 0.367928 0.872028 0
vt 0.390689 0.875204 0
vt 0.444801 0.893537 0
vt 0.136836 0.872275 0
vt 0.159511 0.86845 0
vt 0.367914 0.872028 0
vt 0.390675 0.875205 0
vt 0.966197 0.348899 0
vt 0.964141 0.189933 0
vt 0.976909 0.164529 0
vt 0.159023 0.470096 0
vt 0.106035 0.488101 0
vt 0.185217 0.457766 0
vt 0.343829 0.453985 0
vt 0.369132 0.465882 0
vt 0.421186 0.484133 0
vt 0.977622 0.375026 0
vt 0.143298 0.889112 0
vt 0.0922869 0.908666 0
vt 0.171357 0.880913 0
vt 0.356014 0.883902 0
vt 0.384254 0.892004 0
vt 0.435755 0.91009 0
vt 0.143284 0.889099 0
vt 0.171342 0.880903 0
vt 0.356 0.883901 0
vt 0.384239 0.892004 0
vt 0.0531193 0.58153 0
vt 0.0539359 0.555561 0
vt 0.0830551 0.892307 0
vt 0.0922712 0.908652 0
vt 0.977148 0.105259 0
vt 0.99463 0.111297 0
vt 0.70637 0.0501764 0
vt 0.64518 0.0214207 0
vt 0.681138 0.0316112 0
vt 0.605977 0.00934178 0
vt 0.581234 0.00390625 0
vt 0.524477 0.133544 0
vt 0.518582 0.116857 0
vt 0.515583 0.388969 0
vt 0.512441 0.406952 0
vt 0.58442 0.5179 0
vt 0.560829 0.523552 0
vt 0.622327 0.50797 0
vt 0.657011 0.501318 0
vt 0.978814 0.435083 0
vt 0.696795 0.48605 0
vt 0.996094 0.426814 0
vt 0.00391092 0.979033 0
vt 0.00390625 0.917086 0
vt 0.444785 0.89354 0
vt 0.435739 0.910092 0
vt 0.465097 0.568679 0
vt 0.463077 0.543219 0
vt 0.37218 0.47647 0
vt 0.138836 0.486601 0

# 200 vertex normals
vn 0 -1 0
vn -0.707107 0 -0.707107
vn -0.707107 0 -0.707107
vn 0.57735 -0.57735 -0.57735
vn -1 0 0
vn -1 2.28164e-08 0
vn 0 -0.707107 0.707107
vn 0.57735 -0.57735 0.57735
vn 0 0 -1
vn 0.707107 -0.707107 0
vn -0.707107 -3.48578e-08 0.707107
vn -0.707107 -3.48578e-08 0.707107
vn 0.707107 3.48578e-08 -0.707107
vn 0.707107 3.48578e-08 -0.707107
vn 0 0 1
vn -0.577349 0.57735 -0.577352
vn -0.577349 0.57735 -0.577352
vn 1 -2.9606e-07 3.75883e-07
vn 1 -2.73244e-07 0
vn -0.707107 0 -0.707107
vn -0.707107 0 -0.707107
vn -0.577349 0.57735 0.577352
vn -0.577349 0.57735 0.577352
vn -1 0 0
vn 0.707107 0 0.707107
vn 0.707107 0 0.707107
vn 0.577349 0.57735 -0.577352
vn 0.577349 0.57735 -0.577352
vn -0.240317 -0.665017 -0.707107
vn -0.240317 -0.665017 -0.707107
vn -0.707107 0 0.707107
vn -0.707107 0 0.707107
vn -0.707107 0 0.707107
vn -0.707106 0 -0.707107
vn -0.707106 0 -0.707107
vn -0.707106 0 -0.707107
vn -5.73029e-10 0 -1
vn 0 0.707109 -0.707105
vn 0 0.707107 -0.707106
vn -0.33986 -0.940476 0
vn 0.577349 0.57735 0.577352
vn 0.577349 0.57735 0.577352
vn -0.707106 0.707108 0
vn 0.707107 0 -0.707107
vn 0.707107 0 -0.707107
vn 0.707107 0 -0.707107
vn 0 1 0
vn 0 1 0
vn -0.240317 -0.665017 0.707107
vn -0.240317 -0.665017 0.707107
vn -0.707106 0 0.707107
vn -0.707106 0 0.707107
vn -0.707106 0 0.707107
vn -7.08204e-09 0 -1
vn 7.08205e-09 0 1
vn 1 0 0
vn 0 0.707109 0.707105
vn 0 0.707107 0.707106
vn 0.707107 0 0.707107
vn 0.707107 0 0.707107
vn 0.240317 -0.665017 -0.707107
vn 0.240317 -0.665017 -0.707107
vn -7.38581e-09 0 1
vn 0.707106 0 -0.707107
vn 0.707106 0 -0.707107
vn 0.707106 0 -0.707107
vn 0.33986 -0.940476 0
vn 0.240317 -0.665017 0.707107
vn 0.240317 -0.665017 0.707107
vn 0.707106 0.707108 0
vn 0.707106 0 0.707107
vn 0.707106 0 0.707107
vn 0.707106 0 0.707107
vn -0.57735 -0.57735 0.57735
vn 0 -0.707107 -0.707107
vn -0.57735 -0.57735 -0.57735
vn -0.707107 -0.707107 0
vn -0.212959 0.655421 -0.724618
vn 0.212959 0.655421 -0.724618
vn 0.212959 0.655421 -0.724618
vn -0.212959 0.655421 -0.724618
vn 0.557535 0.405073 -0.724617
vn 0.557535 0.405073 -0.724617
vn 0.689152 1.68201e-07 -0.724617
vn 0.689152 1.56304e-07 -0.724617
vn 0.689152 4.8845e-08 0.724617
vn 0.557535 0.405073 0.724617
vn 0.557535 0.405073 0.724617
vn 0.689152 5.11917e-08 0.724617
vn 0.21296 0.655422 0.724618
vn 0.21296 0.655422 0.724618
vn -0.212959 0.655421 0.724618
vn -0.212959 0.655421 0.724618
vn 0.557535 -0.405073 -0.724617
vn 0.557535 -0.405073 -0.724617
vn 0.557535 -0.405073 0.724618
vn 0.557535 -0.405073 0.724617
vn -0.557535 0.405073 -0.724618
vn -0.557535 0.405073 -0.724618
vn -0.557535 0.405073 0.724618
vn -0.557535 0.405073 0.724618
vn 0.212959 -0.655421 -0.724618
vn 0.21296 -0.655421 -0.724618
vn 0.212959 -0.655421 0.724618
vn 0.212959 -0.655421 0.724618
vn -0.689152 -9.769e-09 -0.724617
vn -0.689152 7.3131e-09 -0.724617
vn -0.689152 7.3131e-09 0.724617
vn -0.689152 -9.769e-09 0.724617
vn -0.21296 -0.655422 -0.724617
vn -0.21296 -0.655422 -0.724617
vn -0.212959 -0.655421 0.724618
vn -0.212959 -0.655421 0.724618
vn -0.557536 -0.405074 -0.724617
vn -0.557536 -0.405073 -0.724617
vn -0.557536 -0.405073 0.724617
vn -0.557535 -0.405073 0.724617
vn 0.309017 0.951056 0
vn 0.809017 0.587785 0
vn 1 7.19295e-08 0
vn -0.309017 0.951056 0
vn 0.809017 -0.587785 0
vn -0.809017 0.587785 0
vn 0.309017 -0.951056 0
vn -1 8.39178e-08 0
vn -0.309017 -0.951056 0
vn -0.809017 -0.587785 0
vn 3.22376e-08 0 -1
vn -3.22376e-08 0 -1
vn -2.41843e-07 0 -1
vn 1.74512e-07 0 -1
vn -6.67491e-08 0 -1
vn 3.22376e-08 0 1
vn -3.22376e-08 0 1
vn 0 0 1
vn 2.41843e-07 0 1
vn -2.41843e-07 0 1
vn -0.707107 0 0.707107
vn 0.707107 0 0.707107
vn 1 0 0
vn 0.707107 0 -0.707107
vn -0.707107 0 -0.707107
vn 0 -0.788631 -0.614866
vn 0 -0.788631 -0.614866
vn 0.29104 -0.911368 -0.291039
vn 0.29104 -0.911368 -0.291039
vn 0.29104 -0.911368 -0.291039
vn 0.29104 -0.911368 -0.291039
vn 0.423727 -0.90579 0
vn 0.423727 -0.90579 0
vn 0.423727 -0.90579 0
vn 0.29104 -0.911368 0.291039
vn 0.29104 -0.911368 0.291039
vn 0.29104 -0.911368 0.291039
vn 0 -0.788631 0.614866
vn 0 -0.788631 0.614866
vn -0.29104 -0.911368 0.291039
vn -0.29104 -0.911368 0.291039
vn -0.29104 -0.911368 0.291039
vn -0.29104 -0.911368 0.291039
vn -0.423726 -0.90579 0
vn -0.423726 -0.90579 0
vn -0.423726 -0.90579 0
vn -0.29104 -0.911368 -0.291039
vn -0.29104 -0.911368 -0.291039
vn -0.29104 -0.911368 -0.291039
vn -0.29104 -0.911368 -0.291039
vn -0.388028 0.921648 0
vn -0.388028 0.921647 0
vn -0.388028 0.921648 0
vn -0.266254 0.9264 0.266255
vn -0.266255 0.9264 0.266255
vn -0.266254 0.9264 0.266255
vn 0 0.818581 0.574392
vn 0 0.818581 0.574392
vn 0.266255 0.9264 0.266255
vn 0.266255 0.9264 0.266255
vn 0.266255 0.9264 0.266255
vn 0.38803 0.921647 0
vn 0.38803 0.921647 0
vn 0.38803 0.921647 0
vn 0.266256 0.926399 -0.266256
vn 0.266256 0.926399 -0.266256
vn 0.266256 0.926399 -0.266256
vn 0.266256 0.926399 -0.266256
vn 0 0.818579 -0.574393
vn -0.266256 0.9264 -0.266255
vn -0.266256 0.9264 -0.266255
vn -0.266256 0.9264 -0.266255
vn -0.266256 0.9264 -0.266255
vn 0.38803 0.921647 0
vn 0.38803 0.921647 0
vn 1 -2.50427e-07 -3.75883e-07
vn 0.423727 -0.90579 0
vn -0.423726 -0.90579 0
vn -0.423726 -0.90579 0
vn -1 4.56327e-08 0
vn -1 4.56327e-08 0
vn -0.388028 0.921647 0
vn -0.388028 0.921648 0

# Mesh 'IceShrineMesh_IceShrineMesh' with 284 faces
g IceShrineMesh_IceShrineMesh
usemtl lambert1
f  1/1/1 2/2/1 3/3/1
f  3/3/1 4/4/1 1/1/1
f  5/5/2 6/6/3 7/7/3
f  7/7/3 8/8/2 5/5/2
f  9/9/4 10/10/4 11/11/4
f  12/12/5 13/13/6 14/14/6
f  14/14/6 15/15/5 12/12/5
f  16/16/7 17/17/7 1/1/7
f  1/1/7 4/4/7 16/16/7
f  18/18/8 16/16/8 4/19/8
f  6/6/9 5/5/9 19/20/9
f  19/20/9 20/21/9 6/6/9
f  21/22/10 18/18/10 4/19/10
f  4/19/10 3/23/10 21/22/10
f  12/12/11 15/15/12 22/24/11
f  22/24/11 23/25/11 12/12/11
f  24/26/13 25/27/14 20/21/14
f  20/21/14 19/20/14 24/26/13
f  23/25/15 22/24/15 26/28/15
f  26/28/15 27/29/15 23/25/15
f  28/30/16 29/31/17 30/32/16
f  31/33/18 32/34/18 33/35/19
f  33/35/19 34/36/19 31/33/18
f  35/37/3 36/38/20 37/39/20
f  37/39/20 38/40/21 35/37/3
f  39/41/22 40/42/22 41/43/23
f  42/44/24 43/45/24 44/46/24
f  44/46/24 45/47/24 42/44/24
f  27/29/25 26/28/26 32/34/26
f  32/34/26 31/33/26 27/29/25
f  46/48/27 47/49/27 48/50/28
f  49/51/29 35/37/30 38/52/29
f  38/52/29 50/53/30 49/51/29
f  42/44/31 45/47/32 51/54/32
f  51/54/32 52/55/33 42/44/31
f  30/32/34 49/51/35 50/53/36
f  50/53/36 28/30/34 30/32/34
f  30/56/9 53/57/9 35/37/37
f  35/37/37 49/51/9 30/56/9
f  29/58/38 54/59/39 53/57/39
f  53/57/39 30/56/38 29/58/38
f  55/60/40 56/61/40 43/62/40
f  43/62/40 42/63/40 55/60/40
f  39/41/24 57/64/24 56/61/24
f  56/61/24 55/60/24 39/41/24
f  58/65/41 59/66/42 60/67/41
f  57/64/43 39/41/43 41/43/43
f  41/43/43 61/68/43 57/64/43
f  62/69/44 63/70/45 64/71/45
f  64/71/45 65/72/46 62/69/44
f  41/73/47 66/74/48 67/75/48
f  67/75/48 61/76/47 41/73/47
f  55/60/49 42/63/50 52/55/49
f  52/55/49 68/77/50 55/60/49
f  39/41/51 55/60/52 68/77/53
f  68/77/53 40/42/51 39/41/51
f  35/37/37 53/57/9 69/78/9
f  69/78/9 65/72/54 35/37/37
f  68/77/15 52/55/55 70/79/15
f  70/79/15 40/80/15 68/77/15
f  71/81/56 72/82/56 73/83/56
f  73/83/56 74/84/56 71/81/56
f  40/80/57 70/79/58 66/74/58
f  66/74/58 41/73/57 40/80/57
f  69/78/39 53/57/39 54/59/39
f  54/59/39 75/85/39 69/78/39
f  76/86/26 77/87/59 72/82/59
f  72/82/59 71/81/60 76/86/26
f  67/75/48 66/74/48 78/88/48
f  78/88/48 79/89/47 67/75/48
f  80/90/61 62/91/62 65/72/61
f  65/72/61 81/92/62 80/90/61
f  81/92/9 65/72/54 69/78/9
f  69/78/9 47/93/9 81/92/9
f  70/79/15 52/55/55 76/86/63
f  76/86/63 82/94/15 70/79/15
f  46/48/64 80/90/65 81/92/66
f  81/92/66 47/49/64 46/48/64
f  78/88/58 66/74/58 70/79/58
f  70/79/58 82/94/58 78/88/58
f  47/93/38 69/78/39 75/85/39
f  75/85/39 48/95/38 47/93/38
f  83/96/67 71/97/67 74/98/67
f  74/98/67 84/99/67 83/96/67
f  58/65/56 83/96/56 84/99/56
f  84/99/56 85/100/56 58/65/56
f  59/101/47 86/102/47 79/89/47
f  79/89/47 78/88/48 59/101/47
f  87/103/68 76/86/69 71/97/68
f  71/97/68 83/96/69 87/103/68
f  58/65/70 85/100/70 86/104/70
f  86/104/70 59/66/70 58/65/70
f  60/105/15 82/94/15 76/86/63
f  76/86/63 87/103/15 60/105/15
f  60/67/71 87/103/72 83/96/73
f  83/96/73 58/65/71 60/67/71
f  59/101/57 78/88/58 82/94/58
f  82/94/58 60/105/57 59/101/57
f  1/106/74 17/17/74 88/107/74
f  10/108/75 89/109/75 90/110/75
f  90/110/75 11/11/75 10/108/75
f  90/110/76 89/111/76 91/112/76
f  2/113/77 1/106/77 88/107/77
f  88/107/77 92/114/77 2/113/77
f  93/115/78 94/116/79 95/117/80
f  95/117/80 96/118/81 93/115/78
f  97/119/82 95/117/80 94/116/79
f  94/116/79 98/120/83 97/119/82
f  99/121/84 97/119/82 98/120/83
f  98/120/83 100/122/85 99/121/84
f  101/123/86 102/124/87 103/125/88
f  103/125/88 104/126/89 101/123/86
f  105/127/90 103/125/88 102/124/87
f  102/124/87 106/128/91 105/127/90
f  107/129/92 105/127/90 106/128/91
f  106/128/91 108/130/93 107/129/92
f  109/131/94 99/121/84 100/122/85
f  100/122/85 110/132/95 109/131/94
f  111/133/96 101/123/86 104/126/89
f  104/126/89 112/134/97 111/133/96
f  113/135/98 93/115/78 96/118/81
f  96/118/81 114/136/99 113/135/98
f  115/137/100 107/129/92 108/130/93
f  108/130/93 116/138/101 115/137/100
f  117/139/102 109/131/94 110/132/95
f  110/132/95 118/140/103 117/139/102
f  119/141/104 111/133/96 112/134/97
f  112/134/97 120/142/105 119/141/104
f  121/143/106 113/135/98 114/136/99
f  114/136/99 122/144/107 121/143/106
f  123/145/108 115/137/100 116/138/101
f  116/138/101 124/146/109 123/145/108
f  125/147/110 117/139/102 118/140/103
f  118/140/103 126/148/111 125/147/110
f  127/149/112 119/141/104 120/142/105
f  120/142/105 128/150/113 127/149/112
f  129/151/114 121/143/106 122/144/107
f  122/144/107 130/152/115 129/151/114
f  131/153/116 123/145/108 124/146/109
f  124/146/109 132/154/117 131/153/116
f  130/152/115 125/147/110 126/148/111
f  126/148/111 129/151/114 130/152/115
f  132/154/117 127/149/112 128/150/113
f  128/150/113 131/153/116 132/154/117
f  105/155/118 95/156/118 97/157/119
f  97/157/119 103/158/119 105/155/118
f  103/158/119 97/157/119 99/159/120
f  99/159/120 104/160/120 103/158/119
f  107/161/121 96/162/121 95/156/118
f  95/156/118 105/155/118 107/161/121
f  104/160/120 99/159/120 109/163/122
f  109/163/122 112/164/122 104/160/120
f  115/165/123 114/166/123 96/162/121
f  96/162/121 107/161/121 115/165/123
f  112/164/122 109/163/122 117/167/124
f  117/167/124 120/168/124 112/164/122
f  123/169/125 122/170/125 114/166/123
f  114/166/123 115/165/123 123/169/125
f  120/168/124 117/167/124 125/171/126
f  125/171/126 128/172/126 120/168/124
f  131/173/127 130/174/127 122/170/125
f  122/170/125 123/169/125 131/173/127
f  128/175/126 125/176/126 130/174/127
f  130/174/127 131/173/127 128/175/126
f  35/37/37 100/122/128 36/38/9
f  100/122/128 98/120/9 36/38/9
f  121/143/129 64/71/9 113/135/9
f  98/120/9 94/116/9 36/38/9
f  36/38/9 94/116/9 64/71/9
f  94/116/9 93/115/9 64/71/9
f  93/115/9 113/135/9 64/71/9
f  64/71/9 121/143/129 65/72/54
f  121/143/129 129/151/130 65/72/54
f  100/122/128 35/37/37 110/132/131
f  129/151/130 126/148/9 65/72/54
f  65/72/54 126/148/9 35/37/37
f  126/148/9 118/140/132 35/37/37
f  118/140/132 110/132/131 35/37/37
f  52/55/55 51/54/15 101/123/133
f  124/146/134 116/138/15 77/87/15
f  101/123/133 51/54/15 102/124/15
f  116/138/15 108/130/135 77/87/15
f  77/87/15 108/130/135 51/54/15
f  108/130/135 106/128/135 51/54/15
f  51/54/15 106/128/135 102/124/15
f  77/87/15 76/86/63 124/146/134
f  101/123/133 111/133/136 52/55/55
f  124/146/134 76/86/63 132/154/137
f  111/133/136 119/141/15 52/55/55
f  52/55/55 119/141/15 76/86/63
f  119/141/15 127/149/135 76/86/63
f  76/86/63 127/149/135 132/154/137
f  133/177/5 134/178/5 92/114/5
f  92/114/5 88/107/5 133/177/5
f  133/177/138 88/107/138 17/17/138
f  17/17/138 135/179/138 133/177/138
f  135/179/15 17/17/15 16/16/15
f  16/16/15 136/180/15 135/179/15
f  136/180/139 16/16/139 18/18/139
f  18/18/139 137/181/139 136/180/139
f  137/181/140 18/18/140 21/22/140
f  21/22/140 138/182/140 137/181/140
f  139/183/141 9/9/141 11/11/141
f  11/11/141 140/184/141 139/183/141
f  90/110/9 141/185/9 140/184/9
f  140/184/9 11/11/9 90/110/9
f  141/185/142 90/110/142 91/112/142
f  91/112/142 142/186/142 141/185/142
f  5/187/143 36/38/144 64/71/144
f  64/71/144 19/188/143 5/187/143
f  63/70/145 24/189/146 19/188/147
f  19/188/147 64/71/148 63/70/145
f  72/82/149 31/190/149 34/191/150
f  34/191/150 73/83/151 72/82/149
f  77/87/152 27/192/153 31/190/154
f  31/190/154 72/82/153 77/87/152
f  51/54/155 23/193/156 27/192/156
f  27/192/156 77/87/155 51/54/155
f  45/47/157 12/194/158 23/193/159
f  23/193/159 51/54/160 45/47/157
f  45/47/161 44/46/162 13/195/162
f  13/195/162 12/194/163 45/47/161
f  36/38/164 5/187/165 8/196/166
f  8/196/166 37/39/167 36/38/164
f  15/197/168 14/198/169 134/178/169
f  134/178/169 133/177/170 15/197/168
f  15/197/171 133/177/172 135/179/173
f  135/179/173 22/199/173 15/197/171
f  22/199/174 135/179/175 136/180/175
f  136/180/175 26/200/174 22/199/174
f  26/200/176 136/180/177 137/181/178
f  137/181/178 32/201/177 26/200/176
f  32/201/179 137/181/180 138/182/181
f  138/182/181 33/202/181 32/201/179
f  25/203/182 139/183/183 140/184/184
f  140/184/184 20/204/185 25/203/182
f  141/185/186 6/205/186 20/204/186
f  20/204/186 140/184/186 141/185/186
f  6/205/187 141/185/188 142/186/189
f  142/186/189 7/206/190 6/205/187
f  9/9/10 21/207/10 3/208/10
f  3/208/10 10/10/10 9/9/10
f  139/183/140 138/209/140 21/207/140
f  21/207/140 9/9/140 139/183/140
f  25/203/191 33/210/181 138/209/181
f  138/209/181 139/183/192 25/203/191
f  24/26/193 34/36/19 33/35/19
f  33/35/19 25/27/193 24/26/193
f  63/70/150 73/211/151 34/212/150
f  34/212/150 24/189/194 63/70/150
f  62/69/56 74/213/56 73/211/56
f  73/211/56 63/70/56 62/69/56
f  80/90/67 84/214/67 74/215/67
f  74/215/67 62/91/67 80/90/67
f  46/48/56 85/216/56 84/214/56
f  84/214/56 80/90/56 46/48/56
f  85/216/70 46/48/70 48/50/70
f  48/50/70 86/217/70 85/216/70
f  48/95/47 75/85/48 79/218/47
f  79/218/47 86/219/47 48/95/47
f  54/59/48 67/220/48 79/218/47
f  79/218/47 75/85/48 54/59/48
f  29/58/47 61/221/47 67/220/48
f  67/220/48 54/59/48 29/58/47
f  28/30/43 57/222/43 61/223/43
f  61/223/43 29/31/43 28/30/43
f  28/30/24 50/53/24 56/224/24
f  56/224/24 57/222/24 28/30/24
f  50/53/40 38/52/40 43/225/40
f  43/225/40 56/224/40 50/53/40
f  38/40/24 37/39/24 44/226/24
f  44/226/24 43/227/24 38/40/24
f  37/39/195 8/196/196 13/228/162
f  13/228/162 44/226/162 37/39/195
f  8/8/197 7/7/198 14/229/6
f  14/229/6 13/230/6 8/8/197
f  7/206/199 142/186/200 134/231/169
f  134/231/169 14/232/169 7/206/199
f  142/186/5 91/112/5 92/233/5
f  92/233/5 134/231/5 142/186/5
f  89/111/77 2/234/77 92/233/77
f  92/233/77 91/112/77 89/111/77
f  2/235/1 89/109/1 10/108/1
f  10/108/1 3/236/1 2/235/1

